<?xml version="1.0" encoding="UTF-8" standalone="no"?>
<!DOCTYPE svg PUBLIC "-//W3C//DTD SVG 1.1//EN" "http://www.w3.org/Graphics/SVG/1.1/DTD/svg11.dtd">
<svg width="100%" height="100%" viewBox="0 0 161 68" version="1.1" xmlns="http://www.w3.org/2000/svg" xmlns:xlink="http://www.w3.org/1999/xlink" xml:space="preserve" xmlns:serif="http://www.serif.com/" style="fill-rule:evenodd;clip-rule:evenodd;stroke-linejoin:round;stroke-miterlimit:2;">
    <g id="TIME-TO-GO-JOE" transform="matrix(1,0.000382,-0.000382,1,0.012789,-0.031478)">
        <g transform="matrix(1,5.42101e-20,-5.42101e-20,1,4.42095,29.9981)">
            <g transform="matrix(33.9022,0,0,33.9022,0,0)">
                <path d="M0.219,-0L0.219,-0.543L0.004,-0.543L0.004,-0.7L0.631,-0.7L0.631,-0.543L0.417,-0.543L0.417,-0L0.219,-0Z" style="fill:rgb(8,56,139);fill-rule:nonzero;"/>
            </g>
            <g transform="matrix(33.9022,0,0,33.9022,22.2305,0)">
                <rect x="0.07" y="-0.7" width="0.198" height="0.7" style="fill:rgb(8,56,139);fill-rule:nonzero;"/>
            </g>
            <g transform="matrix(33.9022,0,0,33.9022,34.4071,0)">
                <path d="M0.07,-0L0.07,-0.7L0.233,-0.7L0.523,-0.224L0.437,-0.224L0.719,-0.7L0.882,-0.7L0.884,-0L0.702,-0L0.7,-0.423L0.731,-0.423L0.52,-0.069L0.432,-0.069L0.215,-0.423L0.253,-0.423L0.253,-0L0.07,-0Z" style="fill:rgb(8,56,139);fill-rule:nonzero;"/>
            </g>
            <g transform="matrix(33.9022,0,0,33.9022,67.45,0)">
                <path d="M0.252,-0.429L0.577,-0.429L0.577,-0.281L0.252,-0.281L0.252,-0.429ZM0.266,-0.153L0.632,-0.153L0.632,-0L0.07,-0L0.07,-0.7L0.619,-0.7L0.619,-0.547L0.266,-0.547L0.266,-0.153Z" style="fill:rgb(8,56,139);fill-rule:nonzero;"/>
            </g>
            <g transform="matrix(33.9022,0,0,33.9022,101.49,0)">
                <path d="M0.219,-0L0.219,-0.543L0.004,-0.543L0.004,-0.7L0.631,-0.7L0.631,-0.543L0.417,-0.543L0.417,-0L0.219,-0Z" style="fill:rgb(8,56,139);fill-rule:nonzero;"/>
            </g>
            <g transform="matrix(33.9022,0,0,33.9022,123.381,0)">
                <path d="M0.423,0.014C0.367,0.014 0.316,0.005 0.268,-0.013C0.221,-0.031 0.179,-0.057 0.145,-0.089C0.11,-0.122 0.083,-0.161 0.063,-0.205C0.044,-0.249 0.034,-0.298 0.034,-0.35C0.034,-0.403 0.044,-0.451 0.063,-0.495C0.083,-0.539 0.11,-0.578 0.145,-0.611C0.179,-0.643 0.221,-0.669 0.268,-0.687C0.315,-0.705 0.367,-0.714 0.423,-0.714C0.479,-0.714 0.531,-0.705 0.578,-0.687C0.625,-0.669 0.666,-0.644 0.701,-0.611C0.736,-0.578 0.763,-0.539 0.783,-0.495C0.802,-0.451 0.812,-0.403 0.812,-0.35C0.812,-0.298 0.802,-0.249 0.783,-0.205C0.763,-0.16 0.736,-0.122 0.701,-0.089C0.666,-0.056 0.625,-0.031 0.578,-0.013C0.531,0.005 0.48,0.014 0.423,0.014ZM0.423,-0.15C0.45,-0.15 0.475,-0.154 0.497,-0.164C0.52,-0.173 0.54,-0.187 0.557,-0.204C0.575,-0.222 0.588,-0.243 0.597,-0.268C0.607,-0.292 0.612,-0.32 0.612,-0.35C0.612,-0.38 0.607,-0.408 0.597,-0.432C0.588,-0.457 0.575,-0.478 0.557,-0.496C0.54,-0.513 0.52,-0.527 0.498,-0.536C0.475,-0.546 0.45,-0.55 0.423,-0.55C0.396,-0.55 0.371,-0.546 0.349,-0.536C0.326,-0.527 0.306,-0.513 0.288,-0.496C0.271,-0.478 0.258,-0.457 0.248,-0.432C0.239,-0.408 0.234,-0.38 0.234,-0.35C0.234,-0.32 0.239,-0.292 0.248,-0.268C0.258,-0.243 0.271,-0.222 0.288,-0.204C0.306,-0.187 0.326,-0.173 0.349,-0.164C0.371,-0.154 0.396,-0.15 0.423,-0.15Z" style="fill:rgb(8,56,139);fill-rule:nonzero;"/>
            </g>
        </g>
        <g transform="matrix(1,5.42101e-20,-5.42101e-20,1,5.77064,63.5981)">
            <g transform="matrix(33.9022,0,0,33.9022,0,0)">
                <path d="M0.42,0.014C0.364,0.014 0.313,0.005 0.266,-0.013C0.219,-0.03 0.178,-0.055 0.144,-0.088C0.109,-0.121 0.082,-0.159 0.063,-0.203C0.044,-0.248 0.034,-0.297 0.034,-0.35C0.034,-0.403 0.044,-0.452 0.063,-0.497C0.082,-0.541 0.109,-0.579 0.144,-0.612C0.179,-0.645 0.22,-0.67 0.268,-0.687C0.315,-0.705 0.367,-0.714 0.424,-0.714C0.49,-0.714 0.549,-0.703 0.601,-0.681C0.653,-0.659 0.696,-0.628 0.73,-0.586L0.604,-0.472C0.58,-0.498 0.554,-0.518 0.526,-0.531C0.499,-0.544 0.468,-0.55 0.434,-0.55C0.404,-0.55 0.377,-0.546 0.352,-0.536C0.328,-0.527 0.307,-0.513 0.289,-0.496C0.272,-0.478 0.258,-0.457 0.248,-0.432C0.239,-0.408 0.234,-0.38 0.234,-0.35C0.234,-0.321 0.239,-0.294 0.248,-0.269C0.258,-0.244 0.272,-0.223 0.289,-0.205C0.307,-0.188 0.327,-0.174 0.352,-0.164C0.376,-0.154 0.402,-0.15 0.432,-0.15C0.461,-0.15 0.49,-0.154 0.518,-0.164C0.546,-0.174 0.574,-0.19 0.603,-0.214L0.714,-0.075C0.674,-0.046 0.627,-0.024 0.575,-0.009C0.523,0.006 0.471,0.014 0.42,0.014ZM0.539,-0.101L0.539,-0.365L0.714,-0.365L0.714,-0.075L0.539,-0.101Z" style="fill:rgb(255,52,62);fill-rule:nonzero;"/>
            </g>
            <g transform="matrix(33.9022,0,0,33.9022,26.792,0)">
                <path d="M0.423,0.014C0.367,0.014 0.316,0.005 0.268,-0.013C0.221,-0.031 0.179,-0.057 0.145,-0.089C0.11,-0.122 0.083,-0.161 0.063,-0.205C0.044,-0.249 0.034,-0.298 0.034,-0.35C0.034,-0.403 0.044,-0.451 0.063,-0.495C0.083,-0.539 0.11,-0.578 0.145,-0.611C0.179,-0.643 0.221,-0.669 0.268,-0.687C0.315,-0.705 0.367,-0.714 0.423,-0.714C0.479,-0.714 0.531,-0.705 0.578,-0.687C0.625,-0.669 0.666,-0.644 0.701,-0.611C0.736,-0.578 0.763,-0.539 0.783,-0.495C0.802,-0.451 0.812,-0.403 0.812,-0.35C0.812,-0.298 0.802,-0.249 0.783,-0.205C0.763,-0.16 0.736,-0.122 0.701,-0.089C0.666,-0.056 0.625,-0.031 0.578,-0.013C0.531,0.005 0.48,0.014 0.423,0.014ZM0.423,-0.15C0.45,-0.15 0.475,-0.154 0.497,-0.164C0.52,-0.173 0.54,-0.187 0.557,-0.204C0.575,-0.222 0.588,-0.243 0.597,-0.268C0.607,-0.292 0.612,-0.32 0.612,-0.35C0.612,-0.38 0.607,-0.408 0.597,-0.432C0.588,-0.457 0.575,-0.478 0.557,-0.496C0.54,-0.513 0.52,-0.527 0.498,-0.536C0.475,-0.546 0.45,-0.55 0.423,-0.55C0.396,-0.55 0.371,-0.546 0.349,-0.536C0.326,-0.527 0.306,-0.513 0.288,-0.496C0.271,-0.478 0.258,-0.457 0.248,-0.432C0.239,-0.408 0.234,-0.38 0.234,-0.35C0.234,-0.32 0.239,-0.292 0.248,-0.268C0.258,-0.243 0.271,-0.222 0.288,-0.204C0.306,-0.187 0.326,-0.173 0.349,-0.164C0.371,-0.154 0.396,-0.15 0.423,-0.15Z" style="fill:rgb(255,52,62);fill-rule:nonzero;"/>
            </g>
            <g transform="matrix(33.9022,0,0,33.9022,66.7228,0)">
                <path d="M0.223,0.014C0.172,0.014 0.126,0.005 0.084,-0.013C0.042,-0.03 0.008,-0.056 -0.02,-0.089L0.088,-0.217C0.107,-0.193 0.126,-0.175 0.146,-0.163C0.166,-0.151 0.187,-0.144 0.209,-0.144C0.268,-0.144 0.297,-0.178 0.297,-0.246L0.297,-0.547L0.055,-0.547L0.055,-0.7L0.493,-0.7L0.493,-0.258C0.493,-0.167 0.47,-0.099 0.424,-0.054C0.378,-0.009 0.311,0.014 0.223,0.014Z" style="fill:rgb(8,56,139);fill-rule:nonzero;"/>
            </g>
            <g transform="matrix(33.9022,0,0,33.9022,86.3042,0)">
                <path d="M0.423,0.014C0.367,0.014 0.316,0.005 0.268,-0.013C0.221,-0.031 0.179,-0.057 0.145,-0.089C0.11,-0.122 0.083,-0.161 0.063,-0.205C0.044,-0.249 0.034,-0.298 0.034,-0.35C0.034,-0.403 0.044,-0.451 0.063,-0.495C0.083,-0.539 0.11,-0.578 0.145,-0.611C0.179,-0.643 0.221,-0.669 0.268,-0.687C0.315,-0.705 0.367,-0.714 0.423,-0.714C0.479,-0.714 0.531,-0.705 0.578,-0.687C0.625,-0.669 0.666,-0.644 0.701,-0.611C0.736,-0.578 0.763,-0.539 0.783,-0.495C0.802,-0.451 0.812,-0.403 0.812,-0.35C0.812,-0.298 0.802,-0.249 0.783,-0.205C0.763,-0.16 0.736,-0.122 0.701,-0.089C0.666,-0.056 0.625,-0.031 0.578,-0.013C0.531,0.005 0.48,0.014 0.423,0.014ZM0.423,-0.15C0.45,-0.15 0.475,-0.154 0.497,-0.164C0.52,-0.173 0.54,-0.187 0.557,-0.204C0.575,-0.222 0.588,-0.243 0.597,-0.268C0.607,-0.292 0.612,-0.32 0.612,-0.35C0.612,-0.38 0.607,-0.408 0.597,-0.432C0.588,-0.457 0.575,-0.478 0.557,-0.496C0.54,-0.513 0.52,-0.527 0.498,-0.536C0.475,-0.546 0.45,-0.55 0.423,-0.55C0.396,-0.55 0.371,-0.546 0.349,-0.536C0.326,-0.527 0.306,-0.513 0.288,-0.496C0.271,-0.478 0.258,-0.457 0.248,-0.432C0.239,-0.408 0.234,-0.38 0.234,-0.35C0.234,-0.32 0.239,-0.292 0.248,-0.268C0.258,-0.243 0.271,-0.222 0.288,-0.204C0.306,-0.187 0.326,-0.173 0.349,-0.164C0.371,-0.154 0.396,-0.15 0.423,-0.15Z" style="fill:rgb(8,56,139);fill-rule:nonzero;"/>
            </g>
            <g transform="matrix(33.9022,0,0,33.9022,115.669,0)">
                <path d="M0.252,-0.429L0.577,-0.429L0.577,-0.281L0.252,-0.281L0.252,-0.429ZM0.266,-0.153L0.632,-0.153L0.632,-0L0.07,-0L0.07,-0.7L0.619,-0.7L0.619,-0.547L0.266,-0.547L0.266,-0.153Z" style="fill:rgb(8,56,139);fill-rule:nonzero;"/>
            </g>
            <g transform="matrix(33.9022,0,0,33.9022,139.144,0)">
                <path d="M0.075,-0.255L0.038,-0.7L0.264,-0.7L0.226,-0.255L0.075,-0.255ZM0.151,0.009C0.118,0.009 0.09,-0.002 0.069,-0.022C0.048,-0.043 0.037,-0.068 0.037,-0.096C0.037,-0.125 0.048,-0.15 0.069,-0.17C0.09,-0.19 0.118,-0.199 0.151,-0.199C0.185,-0.199 0.212,-0.19 0.233,-0.17C0.254,-0.15 0.264,-0.125 0.264,-0.096C0.264,-0.068 0.254,-0.043 0.233,-0.022C0.212,-0.002 0.185,0.009 0.151,0.009Z" style="fill:rgb(8,56,139);fill-rule:nonzero;"/>
            </g>
        </g>
    </g>
</svg>
