<svg width="180" height="77" viewBox="0 0 180 77" fill="none" xmlns="http://www.w3.org/2000/svg">
<path d="M0 46.1002H8.09387V56.8648H21.5545V46.1002H29.7008V75.3778H21.5545V63.8332H8.09387V75.3778H0V46.1002Z" fill="#FEF9EC"/>
<path d="M46.4162 62.7411H54.8558L51.4207 53.0859H49.8514L46.4162 62.7411ZM57.1052 46.1002L67.7244 75.3778H59.2848L57.018 69.0335H44.2017L41.9349 75.3778H33.6174L44.254 46.1002H57.1052Z" fill="#FEF9EC"/>
<path d="M87.5472 60.8949C90.697 60.8949 91.8169 59.1452 91.8169 56.8064C91.8169 54.4677 90.697 52.7699 87.5472 52.7699H79.7253V60.8949H87.5472ZM71.641 46.1002H88.3871C96.1565 46.1002 99.9362 49.7209 99.9362 56.46C99.9362 61.1894 97.9064 64.377 94.0042 65.8323L101.179 75.3778H91.9044L86.1823 67.3741H79.7603V75.3778H71.6585V46.1175L71.641 46.1002Z" fill="#FEF9EC"/>
<path d="M121.165 60.8949C124.314 60.8949 125.434 59.1452 125.434 56.8064C125.434 54.4677 124.314 52.7699 121.165 52.7699H113.343V60.8949H121.165ZM105.258 46.1002H122.005C129.774 46.1002 133.554 49.7209 133.554 56.46C133.554 61.1894 131.524 64.377 127.622 65.8323L134.796 75.3778H125.522L119.8 67.3741H113.378V75.3778H105.276V46.1175L105.258 46.1002Z" fill="#FEF9EC"/>
<path d="M146.872 46.1002H138.876V75.3778H146.872V46.1002Z" fill="#FEF9EC"/>
<path d="M152.869 73.2529V65.6822H152.904C157.607 68.0903 162.467 69.3549 166.627 69.3549C170.053 69.3549 171.784 68.4541 171.784 66.8602C171.784 65.2664 170.525 64.7467 164.057 63.7072C157.747 62.6851 152.747 60.7967 152.747 54.9237C152.747 49.6398 157.345 45.2914 166.749 45.2914C170.525 45.2914 174.563 46.1403 178.042 47.7515V55.2702H178.007C174.528 53.2433 169.948 51.9613 166.155 51.9613C162.362 51.9613 161.033 52.8968 161.033 54.404C161.033 56.3443 163.603 56.5349 168.637 57.4185C174.965 58.4926 180 60.2597 180 66.4964C180 70.8795 176.923 76.0248 166.312 76.0248C161.033 76.0248 156.89 74.9161 152.869 73.2529Z" fill="#FEF9EC"/>
<path d="M93.8525 37.7838C93.8525 37.7838 98.0488 39.63 104.291 39.63C113.82 39.63 120.307 36.1102 127.476 36.1102C132.424 36.1102 135.938 38.2842 135.938 38.2842V30.1576C135.938 30.1576 132.616 27.9836 127.86 27.9836C119.625 27.9836 114.24 31.5552 106.494 31.5552C101.948 31.5552 98.6608 30.1403 98.6608 30.1403C97.6292 33.177 96.1605 35.7478 93.835 37.7666L93.8525 37.7838Z" fill="#FF343E"/>
<path d="M100.316 19.9785C100.316 21.3895 100.211 22.7317 100.054 24.0223C100.054 24.0223 102.503 25.072 107.175 25.072C114.523 25.072 120.332 21.8541 126.735 21.8541C132.264 21.8541 135.938 24.0223 135.938 24.0223V15.9174C135.938 15.9174 132.842 13.7492 126.875 13.7492C120.192 13.7492 114.943 16.9671 107.962 16.9671C102.871 16.9671 100.036 15.9174 100.036 15.9174C100.194 17.208 100.299 18.5502 100.299 19.9613L100.316 19.9785Z" fill="#FF343E"/>
<path d="M98.7014 9.80928C98.7014 9.80928 102.02 11.1611 106.963 11.1611C114.857 11.1611 119.695 8.04153 126.524 8.04153C132.026 8.04153 135.938 9.80928 135.938 9.80928V1.64643C135.938 1.64643 132.253 0 126.227 0C118.263 0 112.674 2.99824 103.452 2.99824C98.0726 2.99824 93.1822 1.64643 93.1822 1.64643C95.6274 3.79546 97.4788 6.51641 98.7014 9.80928Z" fill="#FF343E"/>
<path d="M0 1.61755H20.4287C28.0764 1.61755 32.6685 4.75691 32.6685 10.8448C32.6685 14.9382 30.5558 17.8347 26.4351 19.2396C31.2018 20.922 33.4542 23.6451 33.4542 27.9986C33.4542 35.5955 27.6399 38.3359 19.5208 38.3359H0V1.61755ZM18.4208 16.3431C21.7383 16.3431 23.0653 15.3544 23.0653 12.7181C23.0653 10.3072 21.5811 9.30118 18.4208 9.30118H9.49848V16.3257H18.4208V16.3431ZM18.8922 30.5482C22.4367 30.4962 23.7986 29.3341 23.7986 26.7151C23.7986 24.0961 22.524 22.934 18.8922 22.934H9.49848V30.5829L18.8922 30.5309V30.5482Z" fill="#FEF9EC"/>
<path d="M39.6555 1.61755H49.2838V38.3359H39.6555V1.61755Z" fill="#FEF9EC"/>
<path d="M57.4433 1.61755H74.7567C86.3222 1.61755 93.3454 8.33306 93.3454 19.9247C93.3454 31.5163 86.3222 38.3359 74.7567 38.3359H57.4433V1.61755ZM74.1278 30.1107C80.0503 30.1107 83.5269 27.074 83.5269 20.0462C83.5269 13.0183 80.0328 9.8601 74.1278 9.8601H67.1046V30.1107H74.1278Z" fill="#FEF9EC"/>
<path d="M142.792 1.61755H153.076L168.544 24.1761H168.754V1.61755H178.042V38.3359H168.177L152.29 15.1006H152.08V38.3359H142.792V1.61755Z" fill="#FEF9EC"/>
</svg>
