<svg width="33" height="33" viewBox="0 0 33 33" fill="none" xmlns="http://www.w3.org/2000/svg">
<path d="M31.001 0.524414H2.23053C1.24411 0.524414 0.445007 1.32352 0.445007 2.30993V31.0818C0.445007 32.0668 1.24411 32.8659 2.23053 32.8659H17.7208V20.3417H13.5056V15.4608H17.7208V11.8615C17.7208 7.68402 20.2717 5.40933 23.9991 5.40933C25.7846 5.40933 27.3181 5.54274 27.7655 5.60203V9.96813L25.1809 9.96948C23.1541 9.96948 22.762 10.933 22.762 12.3452V15.4621H27.5957L26.9664 20.343H22.762V32.8659H31.0037C31.9874 32.8659 32.7865 32.0668 32.7865 31.0804V2.30993C32.7865 1.32352 31.9874 0.524414 31.001 0.524414V0.524414Z" fill="#08388B"/>
</svg>
