<svg width="588" height="210" viewBox="0 0 588 210" fill="none" xmlns="http://www.w3.org/2000/svg">
<path d="M40.3496 139.916C40.3383 139.91 40.3308 139.907 40.3496 139.916Z" fill="#FEF9EC"/>
<path d="M40.3729 139.927C41.6305 136.807 40.0772 139.786 40.3729 139.927Z" fill="#FEF9EC"/>
<path d="M40.1534 140.458C40.1427 140.453 40.1352 140.45 40.1284 140.448C40.1391 140.453 40.1534 140.458 40.1534 140.458Z" fill="#FEF9EC"/>
<path d="M47.3307 122.379C47.65 121.881 47.6577 121.803 47.8535 121.651C47.5557 122.326 47.4164 122.593 47.409 122.42L47.3307 122.379Z" fill="#FEF9EC"/>
<path d="M231.356 22.4327C232.393 22.1233 233.43 21.8139 234.472 21.5239C233.397 21.8181 231.421 22.7087 231.356 22.4327Z" fill="#FEF9EC"/>
<path d="M-117.244 158.048L-117.352 158.189C-118.639 157.098 -117.698 157.45 -115.649 158.933C-116.523 158.344 -117.056 158.05 -117.244 158.048Z" fill="#FEF9EC"/>
<path d="M579.969 36.3424C579.966 36.2332 580.267 36.159 580.643 36.1168C580.831 36.0945 581.039 36.0813 581.238 36.0737C581.344 36.071 581.445 36.0686 581.542 36.0672C581.664 36.0592 581.783 36.0768 581.88 36.041C581.983 36.0174 582.075 35.998 582.15 35.9833C582.215 35.9721 582.264 35.9663 582.294 35.9659C582.353 35.9653 582.338 35.9909 582.208 36.049C582.142 36.0778 582.02 36.1238 581.874 36.1763C581.855 36.1832 581.837 36.1902 581.818 36.1957C581.797 36.1998 581.777 36.2003 581.756 36.2031C581.713 36.2071 581.668 36.2127 581.62 36.2178C581.54 36.2262 581.452 36.2337 581.355 36.2432C581.025 36.2739 580.572 36.3076 579.967 36.3432L579.969 36.3424Z" fill="#FEF9EC"/>
<path d="M579.191 36.3365C579.192 36.3247 579.193 36.3165 579.193 36.3105C579.193 36.3224 579.191 36.3365 579.191 36.3365Z" fill="#FEF9EC"/>
<path d="M579.969 36.3161C579.967 36.2943 579.969 36.303 579.969 36.3161Z" fill="#FEF9EC"/>
<path d="M561.66 4.78406C560.761 3.83191 560.472 3.47087 560.57 3.38042C561.274 4.10878 561.772 4.69354 561.66 4.78406Z" fill="#FEF9EC"/>
<path d="M557.673 50.643C557.003 50.8399 556.01 51.0373 557.586 50.3908L557.615 50.4751L557.674 50.6421L557.673 50.643Z" fill="#FEF9EC"/>
<path d="M309.826 6.76993C309.076 6.8215 308.775 6.81333 308.926 6.72991C308.66 6.68244 308.749 6.62897 309.192 6.56887C310.26 6.56676 309.747 6.68067 309.826 6.76993Z" fill="#FEF9EC"/>
<path d="M-118.801 161.84C-119.734 160.951 -119.317 161.097 -119.272 161.054C-119.111 161.18 -119.033 161.247 -118.997 161.283C-118.002 162.15 -117.517 163.055 -118.8 161.84L-118.801 161.84Z" fill="#FEF9EC"/>
<path d="M-127.079 152.768C-127.086 152.578 -126.964 152.718 -126.48 153.301C-126.275 153.688 -126.129 153.983 -126.162 154.064C-126.19 154.146 -126.404 154.016 -126.845 153.555C-126.943 153.283 -127.031 153.01 -127.079 152.768Z" fill="#FEF9EC"/>
<path d="M569.504 46.2775L569.537 46.3601C565.997 47.9621 566.914 46.4803 564.248 47.6588C564.328 47.7612 563.181 48.3272 561.975 48.864C560.766 49.3943 559.501 49.8902 559.352 49.867C559.055 49.8207 558.444 49.9215 558.498 49.806C558.552 49.692 559.272 49.363 561.622 48.4324C564.553 47.2569 563.903 47.5307 565.514 46.584C565.235 46.7524 568.322 45.5603 569.083 45.2055C569.889 45.0011 570.257 45.3035 571.014 45.1953C567.407 46.7686 569.443 46.1251 569.503 46.2783L569.504 46.2775Z" fill="#FEF9EC"/>
<path d="M263.196 11.8156L263.185 11.7281C264.64 11.4651 264.845 11.5046 264.986 11.5828C264.095 11.7668 263.499 11.8442 263.196 11.8156Z" fill="#FEF9EC"/>
<path d="M-22.7687 204.965C-22.7082 204.939 -22.6583 204.922 -22.6153 204.908C-21.7075 204.499 -21.107 204.556 -21.0713 204.627C-21.6028 204.895 -21.971 205.064 -22.2232 205.161C-22.3486 205.211 -22.4481 205.24 -22.527 205.25C-22.6043 205.262 -22.659 205.262 -22.6973 205.254C-22.8481 205.221 -22.7358 205.051 -22.7687 204.965Z" fill="#FEF9EC"/>
<path d="M381.929 8.64195C381.801 8.54684 380.747 8.36218 379.72 8.20727C379.207 8.12941 378.701 8.05919 378.321 8.00981C378.131 7.98623 377.972 7.96879 377.86 7.95435C377.748 7.94213 377.684 7.93795 377.679 7.94262C377.736 7.87212 380.845 8.07856 381.063 8.09313C381.39 8.12236 381.602 8.14102 381.766 8.15523C386.413 8.61784 381.619 8.40757 381.927 8.64135L381.929 8.64195Z" fill="#FEF9EC"/>
<path d="M371.311 7.35361C371.76 7.30116 371.507 7.33095 371.311 7.35361Z" fill="#FEF9EC"/>
<path d="M371.163 7.37121C371.229 7.36365 371.264 7.36008 371.311 7.35361C371.231 7.36204 371.163 7.37121 371.163 7.37121Z" fill="#FEF9EC"/>
<path d="M371.163 7.37121C376.228 8.21265 373.678 7.07526 371.163 7.37121Z" fill="#FEF9EC"/>
<path d="M291.278 7.69973C291.278 7.69973 291.278 7.69974 291.28 7.70272C291.28 7.70272 291.279 7.70122 291.278 7.69973Z" fill="#FEF9EC"/>
<path d="M291.279 7.70462C291.281 7.71341 291.282 7.72221 291.282 7.72814C291.281 7.72078 291.279 7.71056 291.279 7.70462Z" fill="#FEF9EC"/>
<path d="M291.813 7.6715C291.813 7.68462 291.814 7.69329 291.813 7.6715Z" fill="#FEF9EC"/>
<path d="M291.811 7.64607C295.075 7.01497 291.825 7.9726 291.811 7.64607Z" fill="#FEF9EC"/>
<path d="M27.5553 159.557C27.4566 159.747 27.3559 159.94 27.2575 160.121C27.1567 160.302 27.0527 160.463 26.9621 160.606C26.7799 160.886 26.6398 161.066 26.5973 161.038C26.5145 160.982 26.7352 160.603 26.99 160.244C27.2402 159.883 27.5061 159.527 27.5553 159.557Z" fill="#FEF9EC"/>
<path d="M376.535 7.97191C375.706 7.87143 375.415 7.78756 375.66 7.71967C375.404 7.63441 375.499 7.59441 375.946 7.59969C376.629 7.69214 378.18 8.11379 376.533 7.97273L376.535 7.97191Z" fill="#FEF9EC"/>
<path d="M430.235 13.9577C428.976 13.8145 429.442 13.6728 429.45 13.633C429.564 13.6386 429.648 13.6422 429.71 13.648L430.243 13.6788C430.218 13.6758 431.236 14.0712 430.234 13.9563L430.235 13.9577Z" fill="#FEF9EC"/>
<path d="M367.587 6.92747C367.608 6.75924 370.456 6.87198 370.665 7.07088C370.82 7.21976 367.565 7.10378 367.587 6.92747Z" fill="#FEF9EC"/>
<path d="M208.349 26.9365L208.322 26.8528C208.908 26.7229 208.97 26.6681 209.221 26.6925C208.522 26.9793 208.231 27.0609 208.349 26.9365Z" fill="#FEF9EC"/>
<path d="M95.8452 118.036L95.8012 117.96C96.1483 117.683 96.4318 117.474 96.6362 117.333C96.8366 117.186 96.9598 117.113 96.9885 117.117C97.0172 117.121 96.9491 117.201 96.7692 117.362C96.5884 117.521 96.283 117.74 95.8466 118.035L95.8452 118.036Z" fill="#FEF9EC"/>
<path d="M372.544 7.11891C372.543 7.13078 372.542 7.13896 372.542 7.1449C372.542 7.13303 372.544 7.11891 372.544 7.11891Z" fill="#FEF9EC"/>
<path d="M372.106 7.11253C372.104 7.12522 372.103 7.13341 372.106 7.11253Z" fill="#FEF9EC"/>
<path d="M372.109 7.08625C375.429 7.03722 372.065 7.41041 372.109 7.08625Z" fill="#FEF9EC"/>
<path d="M349.57 5.86731C349.599 5.55573 350.832 5.85285 351.384 5.84233C351.374 5.95157 349.552 6.06741 349.57 5.86731Z" fill="#FEF9EC"/>
<path d="M314.341 5.84507L314.343 5.73343L314.34 5.93408L314.341 5.84507Z" fill="#FEF9EC"/>
<path d="M284.61 8.18464C284.944 8.08364 285.369 8.00567 285.834 7.95153C286.299 7.90103 286.805 7.87354 287.305 7.86688C286.927 7.94425 286.256 8.06107 285.678 8.14094C285.101 8.22444 284.616 8.26737 284.611 8.18383L284.61 8.18464Z" fill="#FEF9EC"/>
<path d="M90.7488 119.451L90.8417 119.299C90.9115 119.332 90.9729 119.37 91.0269 119.395C91.0829 119.418 91.1316 119.44 91.1737 119.461C91.26 119.49 91.3223 119.52 91.3678 119.537C91.4572 119.568 91.4702 119.591 91.4307 119.6C91.3523 119.63 91.0562 119.593 90.748 119.449L90.7488 119.451Z" fill="#FEF9EC"/>
<path d="M43.5546 123.405C43.2811 123.853 43.3571 123.6 43.5044 123.237C43.6548 122.876 43.8757 122.403 43.8757 122.403C43.8839 122.381 43.5932 122.372 43.4796 122.387C43.4662 122.406 43.5149 122.282 43.5044 122.277C43.5064 122.274 43.5717 122.123 43.5717 122.123C43.5305 122.104 43.669 121.862 43.6303 122.007C43.7736 121.721 44.0112 121.27 44.2581 120.806C44.5007 120.341 44.7733 119.866 44.9489 119.526C45.4881 118.501 45.1716 119.398 44.6982 120.582C44.2469 121.773 43.647 123.256 43.5546 123.405Z" fill="#FEF9EC"/>
<path d="M43.4523 122.391C43.4523 122.391 43.4485 122.401 43.4461 122.41C43.4301 122.402 43.4356 122.395 43.4523 122.391Z" fill="#FEF9EC"/>
<path d="M42.0019 127.742C42.0763 127.669 42.015 127.876 41.8202 128.358C41.612 128.824 41.6544 128.39 41.3107 129.113C41.553 128.595 40.9607 131.237 40.572 131.052C40.3355 130.939 39.2603 133.418 39.0651 133.324C38.9076 133.543 38.8971 133.44 39.0357 133.016C39.6433 131.722 40.7798 129.001 41.2946 127.995C41.8596 126.878 41.4894 128.508 41.8303 127.81C42.0069 127.448 42.0765 126.895 42.125 126.367C42.1743 125.841 42.2047 125.34 42.2902 125.088C42.1812 125.41 42.824 125.661 42.8142 125.996C42.7978 126.475 42.1146 127.798 42.0027 127.744L42.0019 127.742Z" fill="#FEF9EC"/>
<path d="M34.4739 145.058C34.3447 145.056 33.9075 145.776 33.8023 145.724C33.4244 145.538 35.5645 142.095 34.4739 145.058Z" fill="#FEF9EC"/>
<path d="M-90.4557 183.611L-90.3386 183.449L-90.4046 183.54L-90.4557 183.611Z" fill="#FEF9EC"/>
<path d="M-95.5995 180.072L-95.5461 180.001C-93.7975 181.003 -93.6664 181.389 -95.5995 180.072Z" fill="#FEF9EC"/>
<path d="M576.216 43.5957L576.25 43.6775C572.724 45.388 576.131 43.393 576.216 43.5957Z" fill="#FEF9EC"/>
<path d="M502.422 24.9715C506.707 25.5528 505.949 25.6631 506.053 25.1596C509.49 25.3384 508.756 25.8993 508.588 26.0486C508.373 26.2387 506.828 25.9866 505.338 25.6779C504.593 25.5236 503.862 25.3575 503.319 25.2202C503.047 25.1534 502.821 25.0941 502.665 25.051C502.507 25.0064 502.42 24.9782 502.421 24.9701L502.422 24.9715Z" fill="#FEF9EC"/>
<path d="M503.366 24.847L503.384 24.7599C505.288 24.8986 505.6 25.1825 503.366 24.847Z" fill="#FEF9EC"/>
<path d="M352.292 5.81994C352.289 5.83246 352.289 5.84195 352.292 5.81994Z" fill="#FEF9EC"/>
<path d="M352.294 5.79429C357.225 5.55162 352.246 6.26521 352.294 5.79429Z" fill="#FEF9EC"/>
<path d="M352.667 5.81309C352.667 5.82495 352.666 5.83314 352.665 5.83907C352.666 5.82721 352.667 5.81309 352.667 5.81309Z" fill="#FEF9EC"/>
<path d="M183.524 37.9754C183.389 38.0476 183.281 38.1044 183.171 38.162C183.465 37.9833 183.932 37.7118 183.524 37.9754Z" fill="#FEF9EC"/>
<path d="M182.486 38.6085C182.416 38.5923 182.655 38.4394 183.171 38.162C182.911 38.3198 182.785 38.4039 183.524 37.9754C184.896 37.0874 185.654 37.0332 182.484 38.6093L182.486 38.6085Z" fill="#FEF9EC"/>
<path d="M155.793 55.1961C155.735 55.1055 156.072 54.7908 156.437 54.5217C156.807 54.2575 157.207 54.0432 157.265 54.1338C157.31 54.2054 156.961 54.5012 156.593 54.7661C156.228 55.0351 155.839 55.267 155.794 55.1975L155.793 55.1961Z" fill="#FEF9EC"/>
<path d="M152.981 57.4565C152.959 57.5329 153.476 57.37 152.85 57.8669C152.064 58.4914 151.202 59.0002 150.692 59.2328C150.189 59.4744 150.031 59.4285 150.66 58.9395C151.106 58.5635 152.209 57.7238 153.15 57.0468C154.095 56.3733 154.892 55.8815 154.686 56.1432C154.595 56.2617 154.184 56.5292 153.787 56.7958C153.39 57.0623 153.016 57.3407 152.981 57.4565Z" fill="#FEF9EC"/>
<path d="M150.661 58.9386C152.054 57.7622 149.939 59.4908 150.661 58.9386Z" fill="#FEF9EC"/>
<path d="M126.647 81.101C126.621 81.0545 126.804 80.8094 127.198 80.3658C127.031 80.6879 127.331 80.4359 126.976 80.958C127.119 80.7519 127.662 80.01 128.222 79.3311C128.791 78.6591 129.367 78.0391 129.538 78.0456C129.759 78.0549 129.451 78.5203 129.039 79.0736C128.835 79.3512 128.601 79.6481 128.4 79.9255C128.201 80.2058 128.03 80.4625 127.939 80.6466C128.455 79.6066 126.856 81.313 126.647 81.0996L126.647 81.101Z" fill="#FEF9EC"/>
<path d="M119.698 89.1928C119.708 89.2003 119.712 89.2051 119.718 89.2091C119.708 89.2017 119.698 89.1928 119.698 89.1928Z" fill="#FEF9EC"/>
<path d="M120.114 88.6743C120.575 87.9759 120.839 87.6546 120.944 87.5411C121.053 87.4296 121.015 87.5361 120.911 87.7217C120.698 88.0874 120.236 88.7844 120.114 88.6743Z" fill="#FEF9EC"/>
<path d="M120.133 88.6913C120.15 88.7064 120.143 88.701 120.133 88.6913Z" fill="#FEF9EC"/>
<path d="M116.736 92.9568L116.669 92.8996C119.065 89.7834 116.906 93.1063 116.736 92.9568Z" fill="#FEF9EC"/>
<path d="M-6.12826 176.212C-6.09179 175.52 -5.84331 174.534 -5.53609 173.592C-5.36471 173.642 -5.96754 175.816 -6.12826 176.212Z" fill="#FEF9EC"/>
<path d="M-60.4603 199.378C-61.15 199.098 -61.4108 198.955 -61.2407 198.947C-61.4552 198.787 -61.3529 198.779 -60.9338 198.922C-59.986 199.386 -60.4919 199.265 -60.4595 199.379L-60.4603 199.378Z" fill="#FEF9EC"/>
<path d="M480.162 21.289C478.906 21.1275 479.375 20.9921 479.382 20.9538C479.495 20.9601 479.581 20.9666 479.643 20.9724L480.176 21.0104C480.151 21.0061 481.162 21.4164 480.164 21.2882L480.162 21.289Z" fill="#FEF9EC"/>
<path d="M436.074 14.3372C436.166 14.3703 440.784 15.092 436.622 14.4807L436.074 14.3372Z" fill="#FEF9EC"/>
<path d="M433.135 14.1358C432.945 14.1086 433.068 13.8963 433.071 13.8816C433.31 13.892 433.418 13.9031 433.455 13.9118C434.22 13.981 435.772 14.1526 435.749 14.2633C435.225 14.2408 433.87 14.2412 433.135 14.1358Z" fill="#FEF9EC"/>
<path d="M390.928 9.13433C389.158 9.11876 389.833 8.95288 388.695 8.84106C388.677 8.84215 388.426 8.84265 388.059 8.84569C387.692 8.84732 387.211 8.8448 386.734 8.82895C385.781 8.79866 384.843 8.71641 384.876 8.50594C384.899 8.3478 388.164 8.7118 388.749 8.76854C389.398 8.83026 387.011 8.24076 387.406 8.33953C387.311 8.31169 387.264 8.29555 387.242 8.28597L386.859 8.16313C386.506 8.0006 389.319 8.57103 389.166 8.52992C389.979 8.74068 390.06 8.85397 390.036 9.00486C390.047 8.93053 390.788 8.92037 391.592 8.98947C392.795 9.09374 390.198 9.12706 390.927 9.13291L390.928 9.13433Z" fill="#FEF9EC"/>
<path d="M141.519 66.4118C141.532 66.4286 141.527 66.4223 141.519 66.4118Z" fill="#FEF9EC"/>
<path d="M141.636 66.2729C141.643 66.282 141.648 66.2882 141.653 66.293C141.646 66.284 141.636 66.2729 141.636 66.2729Z" fill="#FEF9EC"/>
<path d="M141.501 66.3918C143.363 64.2532 141.861 66.855 141.501 66.3918Z" fill="#FEF9EC"/>
<path d="M139.524 68.2777C139.561 68.1508 139.75 67.9025 140.09 67.5336C141.867 66.2466 139.751 68.5601 139.524 68.2777Z" fill="#FEF9EC"/>
<path d="M107.714 105.342C108.182 104.574 106.643 106.762 107.714 105.342Z" fill="#FEF9EC"/>
<path d="M107.582 106.397C106.833 107.752 106.205 108.389 105.762 108.675C105.319 108.962 105.052 108.897 104.985 108.837C106.021 107.604 106.934 106.566 107.85 105.458C107.758 105.38 107.593 105.517 106.839 106.493C107.132 106.112 107.425 105.73 107.714 105.343C108.653 103.796 109.283 103.464 109.389 103.55C109.475 103.622 108.071 105.616 107.581 106.397L107.582 106.397Z" fill="#FEF9EC"/>
<path d="M97.6905 116.253C97.7716 116.172 97.8304 116.118 97.8732 116.078C98.1349 115.835 98.4492 115.533 98.7785 115.251C99.0981 114.952 99.4303 114.668 99.7053 114.428C100.256 113.947 100.622 113.7 100.357 114.106C99.9368 114.725 99.3081 115.328 98.7591 115.728C98.2141 116.135 97.7565 116.344 97.6919 116.252L97.6905 116.253Z" fill="#FEF9EC"/>
<path d="M30.0259 153.812C30.0469 153.627 30.1815 153.209 30.2533 152.924C30.8081 152.062 31.0212 152.018 30.7387 152.934C30.3464 154.208 29.492 155.289 30.0259 153.812Z" fill="#FEF9EC"/>
<path d="M28.8726 155.925C28.8286 156.067 28.8133 156.164 28.8393 156.196C28.5796 156.862 28.8429 155.88 28.8726 155.925Z" fill="#FEF9EC"/>
<path d="M28.8387 156.198C28.8734 156.011 28.8799 155.938 28.872 155.927C28.9275 155.747 29.0345 155.489 29.2049 155.134C29.6701 154.406 29.2571 155.797 29.0684 156.332C28.4465 157.559 28.715 156.518 28.8387 156.198Z" fill="#FEF9EC"/>
<path d="M26.7525 160.09C26.5515 160.36 25.837 161.101 26.5302 159.945C26.8441 159.757 27.8711 157.822 27.9795 157.782C28.3937 157.614 27.3872 159.49 26.7533 160.091L26.7525 160.09Z" fill="#FEF9EC"/>
<path d="M26.7525 160.09C26.9214 159.939 26.9672 159.902 26.9609 159.93C26.9532 159.959 26.8847 160.045 26.8086 160.125C26.6587 160.288 26.4907 160.44 26.7525 160.09Z" fill="#FEF9EC"/>
<path d="M11.66 155.028C11.6911 155 11.9479 155.234 12.3066 155.598C12.658 155.962 13.1077 156.458 13.52 156.951C14.3542 157.937 15.0827 158.899 14.9338 158.775C14.7744 158.645 13.9807 157.726 13.1963 156.83C12.4179 155.934 11.6182 155.073 11.66 155.028Z" fill="#FEF9EC"/>
<path d="M-21.4531 203.829L-21.4914 203.75C-20.9869 203.556 -20.9395 203.495 -20.7058 203.49C-20.9975 203.671 -21.2046 203.791 -21.3295 203.848C-21.4536 203.907 -21.4974 203.892 -21.4523 203.831L-21.4531 203.829Z" fill="#FEF9EC"/>
<path d="M-26.0015 205.835C-26.7928 206.134 -26.4014 205.963 -26.0085 205.804C-25.6178 205.644 -25.2229 205.495 -26.0015 205.835Z" fill="#FEF9EC"/>
<path d="M-25.0873 206.029C-25.2254 206.073 -25.3507 206.123 -25.4737 206.151C-25.5953 206.178 -25.7074 206.205 -25.8102 206.228C-26.0161 206.272 -26.1855 206.304 -26.3214 206.322C-26.594 206.361 -26.7345 206.352 -26.7726 206.312C-26.848 206.234 -26.5147 206.03 -26.0015 205.835C-26.0897 205.871 -25.5546 205.665 -24.9754 205.38C-24.6825 205.243 -24.3704 205.11 -24.1049 205.003C-23.8469 204.881 -23.6297 204.795 -23.5143 204.786C-23.277 204.768 -23.4931 204.921 -23.8951 205.145C-23.9445 205.174 -23.9997 205.202 -24.054 205.231C-24.1108 205.257 -24.1704 205.284 -24.2337 205.311C-24.3574 205.363 -24.4881 205.42 -24.6217 205.478C-24.8904 205.592 -25.1713 205.711 -25.4265 205.819C-25.9508 206.011 -26.3851 206.16 -26.4264 206.225C-26.4479 206.256 -26.371 206.263 -26.1603 206.237C-26.0546 206.225 -25.9153 206.203 -25.737 206.173C-25.6482 206.157 -25.5494 206.14 -25.4405 206.12C-25.3326 206.095 -25.2165 206.062 -25.0887 206.03L-25.0873 206.029Z" fill="#FEF9EC"/>
<path d="M-41.1411 205.697L-41.1192 205.612C-40.8909 205.662 -40.6907 205.706 -40.5172 205.743C-40.343 205.778 -40.1962 205.808 -40.0707 205.833C-39.8226 205.885 -39.6664 205.925 -39.5831 205.952C-39.4172 206.008 -39.539 206.018 -39.7741 206.002C-40.0099 205.984 -40.3598 205.947 -40.6457 205.885C-40.9324 205.821 -41.1554 205.751 -41.1405 205.695L-41.1411 205.697Z" fill="#FEF9EC"/>
<path d="M-75.0285 192.595C-76.0996 192.035 -75.6605 191.917 -75.6367 191.877C-71.9585 193.457 -75.2718 192.32 -75.0285 192.595Z" fill="#FEF9EC"/>
<path d="M472.284 19.751C473.227 19.7367 475.701 20.2794 474.826 20.2284C474.155 20.1891 472.262 19.8558 472.284 19.751Z" fill="#FEF9EC"/>
<path d="M102.927 111.277C102.553 111.735 102.243 112.074 102.009 112.313C101.77 112.547 101.608 112.679 101.523 112.725C101.355 112.814 101.504 112.557 101.988 112.036C102.41 111.523 102.774 111.103 103.054 110.781C103.338 110.465 103.542 110.253 103.648 110.166C103.859 109.991 103.689 110.332 102.925 111.276L102.927 111.277Z" fill="#FEF9EC"/>
<path d="M101.99 112.036C103.1 110.681 101.405 112.682 101.99 112.036Z" fill="#FEF9EC"/>
<path d="M91.7998 119.312C91.8718 119.297 91.9483 119.26 92.019 119.236C92.2307 119.228 92.4899 119.235 92.6699 119.257C92.6899 119.262 92.7147 119.263 92.7401 119.261C92.7635 119.263 92.7847 119.264 92.8037 119.264C92.8419 119.268 92.8677 119.274 92.8815 119.285C92.9096 119.304 92.8837 119.334 92.7876 119.373C92.4253 119.507 92.183 119.491 92.022 119.456C91.8644 119.417 91.7983 119.348 91.7998 119.312Z" fill="#FEF9EC"/>
<path d="M571.932 45.0579C573.349 44.4035 575.242 43.2109 575.255 43.5681C575.346 43.4139 575.772 42.9837 576.533 42.7156C577.709 42.2958 576.664 42.9914 579.317 41.6402C579.544 41.5223 580.172 41.1952 580.848 40.8426C581.527 40.4861 582.248 40.1039 582.69 39.8936C581.817 40.2566 580.756 40.7643 580.057 40.9404C579.875 40.987 579.478 41.1653 578.982 41.3993C578.485 41.6281 577.887 41.9148 577.313 42.1921C576.157 42.7353 575.085 43.2378 575.059 43.176C574.226 43.7151 573.521 44.0672 572.941 44.2822C572.359 44.4943 571.902 44.5756 571.564 44.5827C570.889 44.5985 570.69 44.321 570.914 44.2215C573.241 43.1917 574.089 43.1889 573.871 42.6647C574.936 42.1174 576.001 41.7072 576.363 41.6432C576.419 41.6165 575.019 42.3064 575.044 42.2823C574.812 42.488 576.915 41.8317 577.764 41.3302C578.676 40.8038 577.765 40.9087 578.02 40.6696C578.289 40.4238 579.509 39.8847 579.454 39.7626C579.44 39.7314 579.753 39.5581 580.249 39.3038C580.495 39.1731 580.786 39.02 581.104 38.8515C581.263 38.769 581.429 38.6825 581.601 38.5927C581.685 38.5475 581.772 38.5029 581.859 38.4569C581.94 38.4098 582.024 38.3654 582.108 38.3188C582.771 37.9356 583.424 37.4327 583.91 36.929C584.395 36.423 584.701 35.9213 584.801 35.612C584.83 35.533 584.858 35.457 584.885 35.3832C584.909 35.3088 584.925 35.2357 584.942 35.1771C584.962 35.1168 584.968 35.053 584.98 34.994C584.991 34.935 585.002 34.8761 585.003 34.8205C585.011 34.5926 584.955 34.3955 584.898 34.224C584.839 34.0474 584.754 33.8542 584.675 33.6854C584.592 33.5132 584.509 33.3491 584.42 33.1846C584.238 32.8572 584.038 32.5294 583.754 32.1353C583.611 31.9375 583.449 31.7249 583.259 31.4811C583.071 31.2387 582.847 30.9656 582.607 30.6235C582.109 29.9316 581.463 29.3033 580.942 28.4203C580.916 28.3752 580.728 27.9818 580.54 27.6002C580.444 27.4113 580.349 27.2238 580.277 27.083C580.205 26.9422 580.155 26.849 580.149 26.845C579.93 26.7422 579.667 26.4751 579.363 26.1055C579.059 25.738 578.723 25.2632 578.369 24.742C577.655 23.7036 576.869 22.4756 576.166 21.5117C575.199 20.1794 574.966 19.8501 574.966 19.7487C574.963 19.649 575.181 19.7861 575.077 19.4104C574.987 19.3589 573.504 17.962 572.269 16.7734C571.035 15.5825 570.063 14.58 571.062 15.2433C570.61 14.9387 568.25 12.2071 567.779 11.3853C566.708 9.86307 565.975 9.08398 564.564 7.34671C563.471 6.01028 563.056 5.43448 562.63 4.94387C562.417 4.69856 562.198 4.47546 561.885 4.19385C561.572 3.91449 561.165 3.56853 560.562 3.11846C560.343 2.95734 560.137 2.81292 559.959 2.70694C559.871 2.65465 559.788 2.61223 559.723 2.58769L559.681 2.57639C559.671 2.57481 559.665 2.57806 559.658 2.57849C559.674 2.54835 559.703 2.49047 559.718 2.44581C559.735 2.39669 559.749 2.34193 559.759 2.31728C559.77 2.28815 559.768 2.24233 559.772 2.22311C559.778 2.21037 559.767 2.17897 559.766 2.17756C559.769 2.17592 559.758 2.16568 559.773 2.17934C559.782 2.18535 559.79 2.18492 559.819 2.19407C559.83 2.19703 559.842 2.19781 559.854 2.19856C559.863 2.19873 559.876 2.19723 559.896 2.20037C559.931 2.20264 559.965 2.20209 559.997 2.19652C560.024 2.19053 560.076 2.1889 560.116 2.18064C560.158 2.17521 560.198 2.16695 560.238 2.15729C560.251 2.15361 560.251 2.15362 560.251 2.15362L560.255 2.15479L560.263 2.15802C560.284 2.16843 560.31 2.18868 560.336 2.19805C560.387 2.21982 560.427 2.20573 560.457 2.15655C560.473 2.24307 560.577 2.54011 560.752 2.92407C560.838 3.11642 560.941 3.32972 561.052 3.55123C561.108 3.66159 561.167 3.77399 561.225 3.88717L561.315 4.05168C561.338 4.09839 561.361 4.13925 561.392 4.18557C561.986 5.05467 562.581 5.89091 562.756 6.00799C563.748 6.67757 562.105 4.73405 564.292 7.54533C566.04 9.79236 565.126 8.40509 565.553 9.4082C566.052 10.5805 567.815 12.0466 567.955 11.9733C568.053 11.9222 568.697 12.5331 568.76 12.4856C568.523 12.6617 570.488 14.7404 570.778 15.4674C571.452 15.8695 573.894 18.8302 575.581 20.8608L575.439 20.9656C576.617 22.3807 576.737 22.3867 577.813 23.6818C577.86 23.7133 577.697 23.7113 577.566 23.5631C577.963 24.1328 580.171 26.6031 580.503 26.9112C581.632 27.9596 581.174 27.8406 581.942 28.7051C582.319 29.1301 581.547 27.7818 582.228 28.5254C584.135 30.6018 582.663 29.7977 582.639 29.7233C582.686 29.8657 582.996 30.2298 583.312 30.5659C583.396 30.6527 583.478 30.7403 583.557 30.8223C583.606 30.8675 583.644 30.9206 583.679 30.9703C583.715 31.0206 583.75 31.0681 583.782 31.1136C583.904 31.2951 583.979 31.4284 584.013 31.465C584.155 31.6483 584.203 31.5958 584.22 31.4526C584.238 31.3108 584.194 31.0882 584.201 30.9471C584.194 30.8928 584.467 31.3233 584.59 32.0544C584.642 32.421 584.659 32.864 584.568 33.3375C584.482 33.81 584.27 34.3155 583.938 34.7328C583.608 35.1543 583.173 35.4677 582.746 35.6726C582.529 35.7608 582.32 35.8549 582.113 35.8995C581.997 35.9305 581.883 35.9607 581.772 35.9906C581.662 35.9943 581.555 35.9978 581.452 36.0011C580.818 36.01 580.355 36.0158 580.254 36.0161C580.18 36.0176 580.103 36.0222 580.021 36.0286C579.979 36.0319 579.938 36.0351 579.895 36.0391C579.846 36.0449 579.796 36.0494 579.745 36.0547C579.63 36.074 579.505 36.0654 579.385 36.0595C579.285 36.0567 579.181 36.055 579.072 36.052C578.638 36.0489 578.136 36.0455 577.576 36.0405C576.453 36.0291 575.088 35.9863 573.546 35.7851C572.502 35.7114 569.25 35.5106 568.71 35.3302C568.467 35.2485 567.955 34.9074 566.982 34.8171C566.138 34.7387 566.487 35.2324 565.205 35.1891C565.09 35.1857 564.724 35.1567 564.24 35.115C563.757 35.0667 563.156 35.008 562.57 34.9499C561.983 34.8881 561.412 34.829 560.986 34.7839C560.773 34.7602 560.597 34.7394 560.475 34.7256C560.414 34.7176 560.365 34.7118 560.333 34.7079C560.301 34.704 560.284 34.7006 560.283 34.6992C560.3 34.5918 561.24 34.4945 560.995 34.3087C561.125 34.4066 557.758 34.4527 556.47 34.3171C556.388 34.2345 557.259 33.9912 556.816 33.9012C556.62 33.8619 552.995 34.0422 551.354 33.7776C550.593 33.6549 551.15 33.3429 551.168 33.2777C549.367 33.0737 551.27 33.6492 548.342 33.3197C545.662 33.0066 545.827 32.7911 543.472 32.6101C541.299 32.4496 539.616 32.1452 537.673 32.0891C536.494 31.9375 536.995 31.7893 535.917 31.6863C535.156 31.6124 534.32 31.629 533.405 31.5994C532.489 31.5683 531.49 31.5007 530.406 31.2733C529.17 31.0136 530.334 30.9336 529.018 30.6895C527.407 30.391 528.132 30.9249 527.717 30.9221C527.03 30.9226 523.556 30.4574 523.586 30.3046C523.593 30.2685 525.735 30.4207 525.158 30.1243C524.708 29.8918 520.888 29.8068 520.672 29.792C518.759 29.6771 517.492 29.4805 516.903 29.3073C516.315 29.1341 516.406 28.9821 517.207 28.9442C515.647 28.8716 514.007 28.841 512.1 28.6718C510.172 28.5017 507.621 28.0861 505.797 27.7093C505.214 27.589 503.804 27.1552 503.17 27.0839C501.172 26.8596 500.033 26.9032 499.284 26.4619C498.628 26.0754 496.153 26.0541 496.624 26.3211C494.674 26.0225 495.341 25.8105 492.172 25.6331C491.115 25.5726 487.613 25.0369 486.37 24.8097C483.576 24.3016 484.368 24.2708 481.694 24.0988C480.364 24.0138 479.72 23.5983 479.741 23.492C479.748 23.7869 476.625 23.3611 473.501 22.8538C471.938 22.6005 470.377 22.3275 469.205 22.1149C468.62 22.0056 468.133 21.9132 467.792 21.8505C467.621 21.8155 467.488 21.7893 467.396 21.7707C467.306 21.7513 467.257 21.7382 467.258 21.736C465.496 21.2781 463.124 21.2703 460.994 20.9388C459.17 20.4679 458.984 20.6635 456.95 20.2876C453.205 19.5951 449.544 19.1871 445.967 18.6311C443.368 18.2206 441.325 17.8292 438.719 17.5073C438.08 17.4254 433.366 16.9507 433.624 17.0257C431.697 16.5142 431.094 16.455 427.164 15.8998C425.424 15.6622 421.263 15.1763 420.939 14.9084C420.434 15.1006 415.045 14.2211 413.313 13.9823C410.744 13.6356 409.99 13.7326 407.572 13.3812C406.681 13.2546 405.618 13.1222 404.526 12.9939C403.432 12.8699 402.31 12.7455 401.301 12.6158C399.286 12.3569 397.728 12.08 397.779 11.7685C397.735 12.0234 392.236 11.7198 390.098 11.4362C387.824 11.1484 387.654 10.9981 385.188 10.8793C385.171 10.8795 384.687 10.8831 384.105 10.8881C383.524 10.8873 382.879 10.88 382.643 10.8453C381.777 10.7216 383.366 10.6066 381.315 10.4562C380.45 10.3959 378.714 10.3928 377.815 10.2711C377.146 10.18 377.047 10.0402 376.203 10.0405C376.121 10.041 373.871 10.1673 373.582 10.0636C371.914 9.42368 372.352 9.97335 371.069 9.81414C370.425 9.73323 369.6 9.65878 368.665 9.58582C367.73 9.51509 366.686 9.43775 365.599 9.38848C363.429 9.2774 361.101 9.17289 359.175 9.05366C356.537 8.92547 353.67 8.67678 351.108 8.5739C349.745 8.52665 350.386 8.63763 348.407 8.5683C346.698 8.50825 347.064 8.64813 344.253 8.44865C341.492 8.28186 341.983 8.52292 339.894 8.44922C339.568 8.43815 338.857 8.40357 337.971 8.35682C337.084 8.30868 336.022 8.24917 334.999 8.21214C333.974 8.17087 332.987 8.13164 332.249 8.10301C331.51 8.08248 331.021 8.07173 330.992 8.07934C330.379 8.2619 329.077 8.35243 326.022 8.37245C325.387 8.37264 323.804 8.3736 322.378 8.37388C321.665 8.36632 320.991 8.36082 320.496 8.35556C320.001 8.34807 319.684 8.3321 319.685 8.30504C318.8 8.38366 318.024 8.4317 317.299 8.46499C316.574 8.49828 315.903 8.52465 315.229 8.53815C314.554 8.55024 313.877 8.56313 313.143 8.57728C312.41 8.59869 311.618 8.62723 310.714 8.67202C309.255 8.78729 307.622 8.91439 305.974 9.01839C304.327 9.13328 302.669 9.24882 301.16 9.3532C300.453 9.41384 298.611 9.50983 296.828 9.64085C295.044 9.77046 293.319 9.90608 292.846 9.99497C291.438 10.2384 291.543 10.5274 290.14 10.3943C290.356 10.4309 288.545 10.2254 288.123 10.4329C287.883 10.5531 287.176 10.6888 286.192 10.8339C285.21 10.9876 283.953 11.1548 282.608 11.3208C281.265 11.4947 279.836 11.6811 278.509 11.8533C277.184 12.0378 275.96 12.2126 275.027 12.3604C273.891 12.5431 273.171 12.6898 272.428 12.8124C271.686 12.9386 270.918 13.0401 269.696 13.1892C268.836 13.2911 268.011 13.4085 267.264 13.5466C266.516 13.6856 265.846 13.8563 265.287 14.0436C265.276 13.9538 263.249 14.1192 262.734 14.3864C262.311 14.5422 262.389 14.574 262.97 14.4852C262.805 14.5425 262.201 14.6604 261.357 14.8131C260.514 14.9672 259.432 15.143 258.323 15.3509C257.213 15.5539 256.067 15.7531 255.098 15.9425C254.128 16.1327 253.329 16.2929 252.905 16.3912C252.155 16.5631 251.511 16.7301 250.839 16.9096C250.167 17.087 249.464 17.2692 248.596 17.4678C247.319 17.7617 245.997 18.0911 244.646 18.4106C243.298 18.7451 241.928 19.0855 240.554 19.4274C239.186 19.7837 237.815 20.1408 236.469 20.4913C235.127 20.8583 233.804 21.2031 232.534 21.5571C227.839 22.8507 223.798 24.3625 219.059 25.9753C214.877 27.4051 210.814 28.8847 206.698 30.5372C206.232 30.7541 205.688 30.9718 205.132 31.1802C204.575 31.3857 204.008 31.5852 203.494 31.7692C202.464 32.1306 201.64 32.3958 201.537 32.4552C201.204 32.6458 201.409 32.6138 201.412 32.6574C201.413 32.6792 201.364 32.7186 201.172 32.8125C200.981 32.9064 200.648 33.0554 200.082 33.3066C198.937 33.6823 197.754 34.3956 197.677 34.5358C197.325 34.3105 193.099 36.3517 191.699 36.9891C191.547 37.0565 191.728 36.6833 191.763 36.6236C191.062 36.9588 190.601 37.1986 190.302 37.3711C190.005 37.5464 189.869 37.6588 189.813 37.7307C189.702 37.8774 189.913 37.8756 189.815 37.985C189.725 38.0837 188.524 38.7136 187.267 39.3547C186.016 40.0108 184.718 40.6887 184.409 40.837C183.615 41.2245 183.709 40.8448 183.776 40.7292C183.084 41.1703 182.609 41.5254 182.04 41.9007C181.756 42.0891 181.448 42.2855 181.082 42.5065C180.714 42.7261 180.289 42.9682 179.771 43.2632C179.252 43.5553 178.645 43.8812 178.02 44.2162C177.707 44.3837 177.39 44.5536 177.075 44.7219C176.765 44.8973 176.458 45.0688 176.163 45.2352C174.988 45.9065 174.012 46.498 173.793 46.7991C173.697 46.8042 173.051 47.1542 172.117 47.6878C171.651 47.9571 171.111 48.2687 170.535 48.611C169.964 48.9631 169.354 49.3416 168.736 49.7229C167.496 50.4818 166.259 51.3106 165.247 51.9889C164.232 52.6615 163.469 53.2256 163.184 53.46C162.617 53.9322 161.993 54.375 161.364 54.7772C160.743 55.1907 160.119 55.5679 159.543 55.8985C158.968 56.2304 158.44 56.5129 158.02 56.7459C157.602 56.9831 157.288 57.1645 157.131 57.2797C157.357 57.2224 157.162 57.4499 156.644 57.8973C156.127 58.346 155.278 58.9999 154.23 59.845C153.702 60.261 153.119 60.7195 152.495 61.2097C151.876 61.7062 151.215 62.2379 150.523 62.7935C150.177 63.0701 149.822 63.3539 149.463 63.6423C149.108 63.9355 148.747 64.2342 148.381 64.5376C147.652 65.1464 146.892 65.7577 146.146 66.3974C143.133 68.9316 140.109 71.6866 137.717 73.9751C135.332 76.2689 133.603 78.1152 133.096 78.7514C132.946 78.5898 130.745 81.2247 130.198 81.7511C128.884 83.0548 129.752 81.7626 128.147 83.9105C127.839 84.3139 127.416 84.8271 126.913 85.3952C126.412 85.9649 125.83 86.5917 125.228 87.2417C124.055 88.5654 122.766 89.9543 121.869 91.1469C121.069 92.1835 121.413 92.0003 120.513 93.0662C119.926 93.7926 119.31 94.4974 118.689 95.2302C118.062 95.9604 117.457 96.7215 116.869 97.5682C116.054 98.7471 115.552 99.8147 114.506 101.191C113.853 102.047 114.481 100.687 113.707 101.705C112.943 102.713 111.692 105.61 110.435 106.462C110.236 106.935 109.657 107.732 108.958 108.613C108.254 109.491 107.436 110.452 106.764 111.26C106.459 111.634 105.569 112.777 104.733 113.782C103.904 114.791 103.125 115.656 103.216 115.569C103.011 115.763 102.822 115.914 102.654 116.04C102.484 116.165 102.333 116.265 102.203 116.363C101.944 116.555 101.781 116.742 101.7 117.067C101.569 117.093 101.323 117.247 100.987 117.497C100.822 117.624 100.622 117.766 100.408 117.933C100.192 118.099 99.9612 118.289 99.6994 118.483C98.6738 119.274 97.3171 120.283 95.7388 121.145C95.5459 121.26 95.3395 121.355 95.1348 121.456C94.9286 121.555 94.7289 121.665 94.5169 121.753C94.3036 121.842 94.0916 121.931 93.8797 122.02L93.7203 122.085L93.5382 122.147C93.4144 122.187 93.2955 122.235 93.1661 122.264C92.6629 122.408 92.1189 122.478 91.5817 122.456C91.0439 122.435 90.5172 122.32 90.0479 122.142C89.5752 121.968 89.1659 121.731 88.8142 121.483C88.456 121.237 88.1632 120.974 87.9025 120.724C87.391 120.219 87.0345 119.758 86.7869 119.41C85.8763 118.122 85.1677 116.654 84.5339 115.107C83.9043 113.558 83.3585 111.923 82.847 110.252C81.8299 106.912 80.9521 103.439 80.0414 100.218C79.8125 99.4053 79.4578 98.1369 79.0684 96.9092C78.6833 95.679 78.2543 94.4967 77.9506 93.8209C77.8377 93.8597 77.8543 94.1489 77.3455 93.1048C76.7844 91.98 76.7511 91.3171 76.5666 90.8411C76.3002 90.1324 75.4962 89.2249 75.1164 88.7883C74.9709 88.6112 74.7164 88.2583 74.3708 87.8678C74.0259 87.4788 73.5858 87.0583 73.0933 86.7714C72.8464 86.6302 72.5905 86.5092 72.3294 86.4345C72.0677 86.362 71.8025 86.3159 71.5447 86.3088C71.0287 86.2873 70.5475 86.4073 70.2306 86.5094C69.5505 86.7536 69.0601 87.0499 68.6854 87.2925C68.3121 87.5475 68.0515 87.76 67.8288 87.96C67.719 88.0628 67.6177 88.1608 67.5158 88.2609C67.4148 88.3625 67.3178 88.4711 67.2117 88.5868C67.104 88.6997 66.993 88.8296 66.8655 88.9765C66.7372 89.122 66.596 89.2843 66.435 89.4806C66.6508 89.2263 66.1208 89.6752 65.5395 90.2532C64.9573 90.8298 64.3346 91.5445 64.2571 91.6381C63.7877 92.1985 63.7058 92.3754 63.6448 92.5009C63.5876 92.6297 63.5602 92.7188 63.2434 93.1497C62.5899 94.0325 62.0041 94.6939 61.4491 95.3695C60.8932 96.0437 60.3719 96.7355 59.8772 97.6882C59.0055 99.039 58.7349 99.4751 58.5053 99.8163C58.278 100.158 58.1009 100.414 57.4681 101.447C55.3085 104.99 53.3587 108.773 51.4236 112.447C50.4682 114.275 50.5524 113.613 49.6148 115.495C49.8952 115.235 49.4851 116.188 48.8963 117.443C48.6022 118.069 48.2699 118.776 47.957 119.441C47.6522 120.108 47.3639 120.735 47.1561 121.208C46.7042 122.241 46.1886 123.476 45.7734 124.332C45.3711 125.198 45.0801 125.693 45.0961 125.255C44.6299 126.355 45.1926 126.171 44.2838 127.851C43.7991 129.02 43.4445 129.997 42.9489 131.215C41.378 135.055 39.9469 137.92 38.2977 141.804C37.4352 143.831 38.4353 142.348 37.6578 143.956C37.1496 145 36.7946 145.729 36.4133 146.507C36.0307 147.286 35.6398 148.122 35.084 149.392C34.0963 151.896 33.653 152.746 33.3796 153.024C33.1083 153.303 33.0235 153.019 32.7329 153.254C32.2052 154.361 32.5088 154.135 32.6272 154.298C32.6861 154.381 32.699 154.559 32.5375 155.051C32.4538 155.297 32.3378 155.623 32.1433 156.051C31.9494 156.477 31.6927 157.008 31.3583 157.669C31.2151 157.942 30.8765 158.641 30.3818 159.509C29.8954 160.381 29.3262 161.452 28.6947 162.458C28.3867 162.962 28.0939 163.464 27.8043 163.923C27.5019 164.375 27.2222 164.792 26.984 165.148C26.7489 165.505 26.5552 165.801 26.4189 166.008C26.2608 166.229 26.1561 166.366 26.1666 166.371C26.1682 166.374 26.1382 166.42 26.0768 166.502C26.022 166.586 25.9071 166.7 25.7729 166.845C25.5088 167.133 25.0575 167.545 24.362 167.874C24.274 167.913 24.1862 167.956 24.0929 167.993C23.9955 168.023 23.8968 168.054 23.7966 168.085C23.5959 168.154 23.3811 168.183 23.1584 168.213C23.0472 168.232 22.9358 168.235 22.8236 168.236C22.7114 168.237 22.5969 168.237 22.4825 168.237C22.3719 168.228 22.2588 168.214 22.1465 168.202C22.0334 168.188 21.9175 168.176 21.8122 168.147C20.9277 167.962 20.1434 167.564 19.457 167.12C18.7681 166.672 18.165 166.171 17.63 165.687C17.0978 165.201 16.6292 164.732 16.2437 164.321C15.4726 163.5 15.0117 162.926 15.0533 162.891C14.0442 161.566 13.6144 161.267 13.1002 160.875C12.8442 160.678 12.5707 160.459 12.2023 160.078C11.8338 159.697 11.3726 159.155 10.7226 158.335C9.87967 157.275 9.2646 156.672 8.80297 156.305C8.6867 156.215 8.57999 156.137 8.482 156.072C8.38202 156.009 8.29076 155.958 8.20498 155.914C8.03342 155.825 7.88546 155.777 7.74364 155.746C7.71333 155.739 7.63438 155.687 7.5147 155.6C7.39265 155.522 7.23105 155.405 7.03753 155.278C6.94057 155.218 6.83451 155.151 6.72459 155.081C6.6123 155.02 6.49394 154.955 6.37112 154.889C6.24815 154.832 6.11992 154.773 5.98805 154.713C5.85728 154.672 5.72239 154.611 5.58842 154.578C5.04804 154.429 4.51496 154.427 4.08795 154.625C3.98241 154.676 3.87601 154.713 3.7841 154.785C3.69092 154.848 3.59992 154.899 3.52377 154.979C3.44719 155.051 3.37442 155.114 3.31578 155.181C3.25899 155.256 3.20844 155.324 3.17056 155.386C3.18011 155.399 3.12905 155.447 3.04739 155.556C3.00627 155.612 2.95691 155.676 2.8979 155.75C2.86799 155.786 2.83606 155.825 2.80273 155.865C2.77103 155.907 2.73977 155.957 2.70547 156.005C2.42011 156.377 2.09597 156.964 1.80473 157.553C1.6654 157.856 1.52422 158.151 1.41611 158.439C1.35902 158.581 1.30512 158.716 1.25362 158.841C1.20432 158.967 1.16572 159.089 1.12764 159.196C0.977778 159.626 0.903524 159.859 0.970921 159.718C0.808839 160.079 0.686533 160.215 0.558109 160.383C0.427459 160.551 0.302028 160.757 0.144447 161.265C0.0245984 161.637 -0.032406 161.889 -0.0726693 162.093C-0.113745 162.295 -0.134456 162.448 -0.165938 162.628C-0.228927 162.987 -0.320817 163.473 -0.673212 164.695C-1.10869 166.609 -0.699089 165.587 -1.29305 167.897C-1.58656 169.019 -2.28376 172.889 -3.03155 176.462C-3.76761 180.037 -4.65467 183.294 -4.88748 183.18C-5.18859 184.273 -5.01924 184.228 -5.43141 185.669C-5.84339 187.015 -6.32035 188.506 -6.8038 189.622C-7.12394 190.385 -7.44987 191.161 -7.77839 191.943C-8.12693 192.719 -8.45481 193.512 -8.83506 194.282C-9.01882 194.67 -9.19812 195.059 -9.40514 195.436C-9.60771 195.814 -9.79834 196.197 -10.0094 196.566C-10.228 196.933 -10.4446 197.297 -10.6591 197.658C-10.7641 197.84 -10.885 198.012 -11.0029 198.185C-11.1216 198.357 -11.2389 198.528 -11.3563 198.699C-11.6626 199.158 -11.9473 199.491 -12.1736 199.753C-12.4013 200.016 -12.5789 200.203 -12.725 200.344C-13.0341 200.613 -13.2049 200.694 -13.3719 200.802C-13.5406 200.907 -13.7047 201.039 -14.0115 201.393C-14.1734 201.562 -14.3729 201.786 -14.6295 202.09C-14.759 202.24 -14.897 202.417 -15.0629 202.605C-15.2332 202.792 -15.4221 202.999 -15.6336 203.228C-15.7959 203.402 -15.9569 203.586 -16.1348 203.756C-16.3165 203.923 -16.5041 204.089 -16.6975 204.256C-16.8909 204.422 -17.0864 204.591 -17.2879 204.756C-17.5003 204.909 -17.715 205.061 -17.9303 205.215C-18.1494 205.366 -18.3691 205.519 -18.5903 205.673C-18.8228 205.808 -19.0559 205.944 -19.2904 206.081C-19.5244 206.216 -19.7605 206.351 -19.9967 206.485C-20.2412 206.602 -20.4849 206.72 -20.7294 206.837C-22.6816 207.774 -24.6856 208.385 -26.3013 208.928C-26.3698 208.953 -26.4369 208.977 -26.5026 209C-26.5694 209.017 -26.6347 209.034 -26.6986 209.051C-26.8272 209.082 -26.9502 209.109 -27.0698 209.133C-27.309 209.181 -27.5329 209.217 -27.7527 209.246C-27.972 209.273 -28.1866 209.305 -28.4088 209.32C-28.6312 209.332 -28.8592 209.347 -29.1063 209.372C-29.3202 209.392 -29.5403 209.417 -29.7668 209.445C-29.8804 209.46 -29.9939 209.474 -30.1097 209.489C-30.2255 209.503 -30.3426 209.508 -30.46 209.52C-30.9315 209.559 -31.4171 209.606 -31.9064 209.654C-32.8855 209.703 -33.8805 209.766 -34.7813 209.709C-36.1139 209.65 -35.3295 209.492 -35.8229 209.386C-35.9419 209.359 -36.2138 209.334 -36.5704 209.308C-36.9258 209.279 -37.3709 209.273 -37.8216 209.221C-38.2747 209.178 -38.7409 209.135 -39.1523 209.097C-39.5618 209.051 -39.9123 208.994 -40.1377 208.955C-43.5268 208.364 -46.6856 207.54 -50.1149 206.365C-50.6351 206.177 -51.1641 205.986 -51.6976 205.794C-52.2265 205.594 -52.7607 205.391 -53.2949 205.189C-54.355 204.775 -55.4148 204.365 -56.4521 204.003L-57.0201 203.82L-57.5851 203.626C-57.9625 203.496 -58.3407 203.365 -58.7204 203.235C-59.0474 203.046 -59.4478 202.837 -59.9225 202.604C-60.8545 202.223 -59.933 202.843 -62.5586 201.563C-63.2688 201.172 -63.7351 200.934 -64.0686 200.783C-64.3995 200.626 -64.5954 200.557 -64.7651 200.51C-65.1052 200.419 -65.3386 200.419 -66.3172 199.977C-66.8263 199.742 -67.4566 199.432 -68.0979 199.06C-68.7412 198.691 -69.4063 198.287 -70.0042 197.909C-71.2061 197.162 -72.1166 196.47 -72.0712 196.389C-71.9604 196.194 -73.4593 195.466 -73.3886 195.744C-73.3599 195.859 -71.9101 197.104 -72.0634 197.054C-72.1466 197.027 -73.0771 196.538 -74.0193 196.035C-74.4913 195.787 -74.9593 195.52 -75.3284 195.31C-75.6961 195.1 -75.9651 194.943 -76.029 194.897C-76.6875 194.434 -75.8753 194.764 -75.8284 194.682C-75.6679 194.416 -78.3848 193.704 -78.5776 193.614C-78.893 193.497 -79.4508 193.228 -80.1362 192.874C-80.4794 192.696 -80.8542 192.499 -81.2468 192.288C-81.6379 192.076 -82.042 191.841 -82.4512 191.608C-83.2675 191.137 -84.1006 190.654 -84.8271 190.223C-85.5471 189.78 -86.1695 189.395 -86.5797 189.143C-86.9347 188.925 -87.3431 188.644 -87.7596 188.349C-88.1767 188.056 -88.5891 187.733 -88.9696 187.454C-89.7271 186.894 -90.3283 186.474 -90.4097 186.587C-88.2311 187.988 -88.9902 187.754 -91.1207 186.329C-91.8368 185.84 -92.5981 185.267 -93.3602 184.705C-93.7415 184.426 -94.122 184.147 -94.4911 183.876C-94.8583 183.601 -95.2167 183.338 -95.5607 183.097C-97.4504 181.774 -96.0764 182.972 -96.2354 182.934C-96.4116 182.889 -97.2384 182.33 -97.9929 181.749C-98.7455 181.161 -99.4407 180.572 -99.3919 180.51C-99.4523 180.584 -100.188 180.117 -101.005 179.538C-101.816 178.952 -102.713 178.265 -103.122 177.942C-103.978 177.316 -104.461 176.933 -104.746 176.724C-105.028 176.511 -105.105 176.463 -105.121 176.468C-105.151 176.48 -104.935 176.711 -105.631 176.293C-105.812 176.185 -106.182 175.854 -106.568 175.5C-106.959 175.14 -107.37 174.757 -107.61 174.535C-108.527 173.722 -109.626 172.919 -110.319 172.388C-112.354 170.832 -115.389 168.089 -115.472 167.497C-115.484 167.403 -114.833 167.008 -116.452 165.782C-117.849 164.489 -118.205 163.723 -118.088 163.612C-118.17 163.692 -119.294 163.531 -118.267 164.561C-116.707 166.118 -116.466 166.398 -117.008 166.274C-116.659 166.354 -117.525 165.512 -118.594 164.51C-119.665 163.508 -120.937 162.343 -121.431 161.815C-121.569 161.674 -122.354 160.865 -123.108 160.09C-123.863 159.318 -124.589 158.581 -124.648 158.632C-124.744 158.716 -123.994 159.417 -123.496 159.865C-124.197 159.24 -124.517 159.064 -124.903 158.751C-125.285 158.434 -125.739 157.988 -126.665 156.769C-127.574 155.556 -127.989 155.117 -128.355 154.756C-128.537 154.571 -128.704 154.408 -128.9 154.142C-128.997 154.008 -129.102 153.849 -129.216 153.62C-129.273 153.508 -129.335 153.365 -129.393 153.177C-129.408 153.122 -129.422 153.064 -129.434 153.007C-129.448 152.945 -129.458 152.859 -129.466 152.783C-129.469 152.742 -129.47 152.678 -129.468 152.627C-129.464 152.568 -129.466 152.529 -129.449 152.445C-129.434 152.37 -129.414 152.294 -129.39 152.222C-129.356 152.137 -129.307 152.047 -129.252 151.966C-129.207 151.895 -129.142 151.831 -129.073 151.769C-129.038 151.738 -129.002 151.709 -128.964 151.681C-128.927 151.657 -128.897 151.641 -128.861 151.622C-128.794 151.587 -128.709 151.549 -128.646 151.532C-128.589 151.516 -128.527 151.503 -128.467 151.493C-128.398 151.479 -128.363 151.481 -128.314 151.479C-128.268 151.477 -128.215 151.477 -128.173 151.479C-128.1 151.485 -128.011 151.492 -127.945 151.505C-127.671 151.555 -127.444 151.635 -127.212 151.724C-126.754 151.905 -126.28 152.141 -125.774 152.409C-124.764 152.944 -123.642 153.615 -122.587 154.274C-120.479 155.598 -118.646 156.876 -118.759 157.025C-121.436 155.284 -119.709 156.658 -118.227 157.813C-118.819 157.422 -119.337 157.11 -119.776 156.875C-119.825 156.939 -118.876 157.571 -118.128 158.085C-117.379 158.598 -116.825 158.984 -117.644 158.533C-117.754 158.675 -117.569 159.021 -117.228 159.463C-116.227 160.154 -116.308 159.862 -116.324 159.764C-114.641 160.936 -115.575 160.463 -116.969 159.68C-118.359 158.893 -120.231 157.831 -120.387 157.743C-121.97 156.883 -121.342 157.433 -120.332 158.209C-119.824 158.594 -119.227 159.048 -118.757 159.404C-118.288 159.761 -117.947 160.026 -117.961 160.044C-118.069 160.183 -118.826 159.639 -119.549 159.076C-120.271 158.512 -120.963 157.927 -120.92 157.959C-121.406 157.606 -122.688 157.015 -123.693 156.391C-124.731 155.745 -125.765 155.038 -126.606 154.522C-127.366 154.055 -127.83 153.823 -128.039 153.726C-128.088 153.703 -128.127 153.683 -128.158 153.669C-128.182 153.656 -128.197 153.647 -128.207 153.64C-128.226 153.625 -128.223 153.616 -128.2 153.612C-128.169 153.598 -128.008 153.623 -127.751 153.7C-127.497 153.775 -127.165 153.895 -126.851 154C-127.31 153.848 -127.489 153.831 -127.485 153.872C-127.481 153.914 -127.291 154.019 -126.978 154.193C-126.351 154.534 -125.233 155.163 -124.235 155.784C-125.04 155.288 -125.46 155.003 -125.626 154.839C-125.792 154.678 -125.704 154.638 -125.495 154.666C-125.074 154.718 -124.16 155.058 -123.83 155.176C-124.223 154.972 -125.403 154.233 -126.508 153.642C-127.058 153.349 -127.601 153.091 -127.962 152.984C-128.004 152.972 -128.044 152.962 -128.083 152.95C-128.113 152.946 -128.151 152.935 -128.171 152.934C-128.191 152.932 -128.216 152.928 -128.215 152.929L-128.219 152.928L-128.227 152.889C-128.232 152.871 -128.229 152.866 -128.23 152.855C-128.233 152.813 -128.241 152.773 -128.254 152.737C-128.272 152.693 -128.269 152.686 -128.28 152.664C-128.285 152.648 -128.303 152.623 -128.306 152.619C-128.307 152.616 -128.31 152.612 -128.312 152.608C-128.314 152.605 -128.323 152.599 -128.314 152.605C-128.295 152.618 -128.289 152.615 -128.288 152.616C-128.234 152.641 -128.205 152.634 -128.113 152.644C-128.072 152.646 -128.04 152.64 -127.998 152.635L-127.98 152.633L-127.963 152.663C-127.959 152.676 -127.956 152.684 -127.947 152.701C-127.918 152.756 -127.881 152.815 -127.842 152.862C-127.768 152.958 -127.696 153.017 -127.642 153.046C-127.534 153.103 -127.491 153.045 -127.484 152.978C-127.396 153.238 -127.176 153.586 -126.884 153.953C-126.592 154.322 -126.229 154.712 -125.855 155.084C-125.106 155.828 -124.315 156.497 -123.937 156.82C-123.437 157.247 -122.577 158.139 -121.943 158.835C-121.31 159.531 -120.913 160.038 -121.362 159.711C-121.53 159.59 -122.275 158.968 -122.583 158.749C-122.89 158.53 -122.776 158.731 -121.197 160.235C-120.055 161.315 -120.053 160.957 -120.197 160.666C-118.775 162.032 -119.411 161.665 -118.378 162.647C-117.007 163.939 -118.148 162.672 -117.086 163.573C-116.502 164.074 -114.441 166.443 -115.122 165.226C-115.284 164.934 -115.228 164.504 -113.858 165.761C-113.473 166.236 -113.749 166.246 -113.358 166.682C-112.352 167.796 -111.967 167.552 -112.008 167.524C-111.339 167.999 -110.646 168.961 -110.509 169.075C-109.562 169.876 -109.882 169.204 -108.442 170.471C-107.208 171.548 -107.681 171.435 -106.948 172.132C-106.36 172.685 -106.307 172.884 -106.316 173.017C-106.326 173.147 -106.398 173.209 -106.061 173.456C-105.882 173.588 -105.685 173.684 -105.502 173.755C-105.318 173.826 -105.143 173.869 -104.985 173.898C-104.67 173.955 -104.422 173.951 -104.311 173.975C-103.934 174.055 -103.232 174.587 -102.511 175.185C-101.782 175.774 -101.028 176.417 -100.572 176.745C-101.041 176.411 -101.639 175.967 -102.135 175.626C-102.633 175.288 -103.014 175.03 -103.075 175.101C-102.46 175.58 -101.611 176.178 -100.819 176.781C-100.423 177.08 -100.036 177.376 -99.6936 177.648C-99.352 177.92 -99.0426 178.157 -98.8154 178.358C-97.5383 179.265 -98.4436 178.442 -97.3244 179.174C-92.8712 182.018 -93.3706 182.237 -91.7038 183.588C-92.227 183.166 -91.8353 183.207 -91.1492 183.451C-90.8057 183.574 -90.3885 183.747 -89.9745 183.94C-89.557 184.129 -89.141 184.333 -88.8048 184.528C-88.773 184.547 -89.3521 184.471 -88.3913 185.101C-88.1318 185.27 -87.7818 185.489 -87.389 185.73C-87.1923 185.85 -86.9842 185.976 -86.7723 186.105C-86.5564 186.228 -86.3374 186.354 -86.1185 186.479C-85.2415 186.976 -84.3789 187.452 -83.9058 187.695C-82.5443 188.394 -85.6522 186.219 -86.4489 185.627C-85.5091 186.223 -84.7364 186.719 -84.0664 187.157C-83.3972 187.593 -82.8287 187.966 -82.2937 188.317C-81.7601 188.668 -81.2667 189.005 -80.7469 189.368C-80.2284 189.736 -79.6765 190.113 -79.0288 190.554C-76.2472 192.466 -76.4753 192.019 -73.2291 193.677C-71.2456 194.646 -71.5965 194.653 -70.4016 195.249C-70.6987 195.037 -70.7109 194.505 -69.6492 195.188C-69.3211 195.395 -69.8542 195.709 -68.8469 196.129C-68.0454 196.463 -67.8494 196.447 -67.5258 196.507C-67.2002 196.563 -66.7527 196.707 -65.4238 197.3C-63.247 198.281 -63.2824 198.395 -63.0839 198.677C-63.0795 198.678 -62.5651 198.831 -62.0277 198.99C-61.4909 199.152 -60.9379 199.329 -60.8611 199.393C-60.2608 199.896 -62.8232 199.171 -61.5507 199.966C-61.6962 199.874 -59.2448 199.977 -58.6061 200.136C-58.4341 200.183 -57.8645 200.405 -57.1085 200.709C-56.7312 200.861 -56.3053 201.032 -55.8615 201.212C-55.4144 201.384 -54.9458 201.565 -54.4846 201.742C-53.5616 202.094 -52.6655 202.448 -52.0061 202.673C-51.3479 202.902 -50.9295 203.034 -50.964 202.981C-50.8793 203.105 -51.2699 203.544 -48.9376 204.092C-48.2955 204.234 -48.2335 204.114 -48.0246 204.059C-47.8144 204.003 -47.4589 204.024 -46.2272 204.393C-46.4868 204.477 -46.205 204.701 -45.602 204.994C-44.9983 205.275 -44.077 205.647 -43.0584 205.989C-43.2112 205.812 -42.5746 205.633 -40.6758 206.149C-39.3313 206.479 -39.4047 206.593 -39.653 206.67C-39.8985 206.746 -40.3172 206.78 -39.6296 206.939C-39.4028 207 -38.1325 207.091 -36.7994 207.109C-36.1326 207.105 -35.4485 207.122 -34.8678 207.08C-34.5776 207.068 -34.3122 207.056 -34.086 207.047C-33.9732 207.044 -33.8698 207.041 -33.7782 207.037C-33.6874 207.031 -33.6083 207.025 -33.5415 207.02C-32.9998 206.986 -32.498 206.989 -32.0198 207C-31.5429 206.99 -31.0859 207.001 -30.629 207.021C-30.3998 207.037 -30.1744 207.027 -29.9455 207.026C-29.7153 207.025 -29.4836 207.023 -29.2496 207.021C-29.1324 207.019 -29.0129 207.018 -28.892 207.015C-28.8308 207.014 -28.7711 207.013 -28.71 207.012C-28.649 207.007 -28.5881 207.002 -28.5272 206.997C-28.2828 206.974 -28.0306 206.948 -27.7708 206.917C-27.0897 206.86 -26.1963 206.767 -25.2359 206.65C-24.7652 206.561 -24.2806 206.46 -23.8089 206.339C-23.6895 206.312 -23.5761 206.271 -23.464 206.23C-23.3506 206.189 -23.2393 206.148 -23.1289 206.105C-22.9089 206.017 -22.6964 205.926 -22.4946 205.827C-22.3941 205.776 -22.295 205.727 -22.2006 205.672C-22.108 205.611 -22.0176 205.549 -21.9245 205.486C-21.7404 205.359 -21.5557 205.23 -21.3522 205.098C-20.9363 204.848 -20.4905 204.527 -19.8298 204.226C-19.699 204.183 -19.1653 203.88 -18.6801 203.63C-18.4375 203.507 -18.2089 203.392 -18.0672 203.312C-17.9216 203.235 -17.8486 203.212 -17.9078 203.282C-17.8962 203.27 -17.5042 202.829 -17.0991 202.375C-16.7163 201.902 -16.3173 201.432 -16.2158 201.399C-16.3653 201.446 -16.6667 201.66 -17.0423 201.95C-17.1356 202.022 -17.2329 202.101 -17.3353 202.181C-17.4385 202.259 -17.5514 202.334 -17.6647 202.414C-17.8884 202.574 -18.1226 202.741 -18.3562 202.906C-18.5827 203.08 -18.835 203.212 -19.0606 203.352C-19.2901 203.488 -19.5057 203.613 -19.6962 203.719C-19.885 203.828 -20.0666 203.888 -20.2023 203.936C-20.3395 203.981 -20.4397 204 -20.4903 203.984C-20.601 203.948 -20.3339 203.711 -20.0548 203.465C-19.7871 203.2 -19.5117 202.919 -19.5625 202.837C-19.5584 202.844 -19.4841 202.807 -19.3573 202.734C-19.2939 202.697 -19.2178 202.653 -19.129 202.602C-19.0402 202.551 -18.9401 202.493 -18.839 202.418C-18.6341 202.271 -18.3921 202.101 -18.1328 201.916C-18.005 201.822 -17.8631 201.732 -17.734 201.624C-17.6027 201.516 -17.4708 201.406 -17.3366 201.297C-17.2025 201.187 -17.0678 201.076 -16.9336 200.966C-16.8663 200.91 -16.7995 200.857 -16.7335 200.802C-16.6714 200.744 -16.6093 200.685 -16.5478 200.629C-16.302 200.401 -16.0672 200.182 -15.8608 199.99C-15.6475 199.803 -15.4866 199.616 -15.351 199.483C-15.2184 199.348 -15.1247 199.257 -15.0815 199.224C-15.2126 199.323 -15.4768 199.597 -15.7994 199.894C-16.1314 200.182 -16.4995 200.511 -16.7987 200.761C-17.4322 201.222 -17.7402 201.411 -16.8333 200.463C-16.5081 200.125 -16.2208 199.871 -15.9738 199.674C-15.7345 199.47 -15.5457 199.312 -15.3967 199.196C-15.2306 199.06 -14.9498 198.915 -14.6397 198.678C-14.3364 198.435 -13.9808 198.117 -13.6572 197.665C-12.9729 196.654 -13.3037 196.644 -13.4577 196.738C-13.3191 196.533 -13.2056 196.384 -13.1219 196.272C-13.039 196.158 -12.9742 196.085 -12.9229 196.041C-12.819 195.951 -12.7648 195.966 -12.7006 195.967C-12.6364 195.967 -12.5636 195.954 -12.4212 195.8C-12.2826 195.643 -12.0568 195.36 -11.7504 194.781C-11.5074 194.336 -11.3768 194.071 -11.3183 193.915C-11.2645 193.755 -11.2777 193.706 -11.3149 193.694C-11.3899 193.671 -11.5631 193.797 -11.5113 193.493C-11.474 193.265 -11.2612 192.729 -11.04 192.25C-10.8308 191.762 -10.6034 191.336 -10.4978 191.347C-10.3783 191.358 -10.4916 191.826 -10.61 192.308C-10.7314 192.787 -10.8834 193.266 -10.7853 193.322C-10.122 191.607 -9.91677 190.885 -9.5958 190.038C-9.43075 189.618 -9.26552 189.152 -9.02135 188.508C-8.96112 188.345 -8.89405 188.175 -8.82668 187.986C-8.76071 187.798 -8.69059 187.594 -8.61547 187.375C-8.46382 186.938 -8.28541 186.437 -8.10096 185.842C-8.27953 186.353 -8.59867 187.157 -8.89296 187.878C-9.19919 188.594 -9.49491 189.217 -9.61791 189.379C-9.75317 189.554 -9.71048 189.355 -9.57193 188.967C-9.43784 188.577 -9.19353 188.008 -8.97234 187.418C-8.74365 186.831 -8.50651 186.24 -8.35415 185.827C-8.19653 185.416 -8.10347 185.193 -8.15383 185.35C-7.98081 184.82 -7.89317 184.422 -7.8344 184.113C-7.77563 183.805 -7.74796 183.586 -7.71668 183.403C-7.65111 183.038 -7.58124 182.817 -7.20436 182.331C-6.63012 181.61 -6.5975 178.705 -6.60026 178.587C-6.58858 178.307 -6.33087 177.306 -6.03992 176.202C-5.75199 175.096 -5.43608 173.886 -5.29504 173.199C-5.19836 172.745 -4.52188 168.713 -4.59107 168.993C-4.47206 168.523 -4.404 170.02 -3.91065 167.37C-3.65811 166.027 -3.71884 165.356 -3.70131 164.761C-3.54855 164.258 -3.33648 163.746 -3.13043 163.244C-2.92379 162.739 -2.73501 162.253 -2.59429 161.767C-2.49514 161.415 -2.44394 161.175 -2.41467 160.995C-2.38178 160.814 -2.37466 160.69 -2.37015 160.571C-2.36505 160.449 -2.36253 160.333 -2.33706 160.163C-2.31299 159.993 -2.26454 159.767 -2.15461 159.437L-1.74053 159.595C-1.64576 159.303 -1.5758 159.06 -1.51353 158.858C-1.44984 158.656 -1.40193 158.495 -1.36902 158.364C-1.30096 158.101 -1.2907 157.956 -1.28651 157.856C-1.28116 157.653 -1.34449 157.618 -1.14022 157.123C-1.04001 156.873 -0.895132 156.639 -0.761831 156.431C-0.630765 156.222 -0.477584 156.041 -0.341405 155.893C-0.205218 155.745 -0.0880423 155.632 0.00588467 155.557C0.102835 155.484 0.166482 155.451 0.181662 155.461C0.227273 155.505 -0.467442 156.635 -0.489053 156.724C-0.553184 156.87 -0.506842 156.853 -0.399649 156.72C-0.346069 156.653 -0.275235 156.558 -0.195646 156.438C-0.110187 156.32 -0.0107141 156.179 0.0935461 156.022C0.528964 155.357 1.12477 154.449 1.6536 153.64C1.81486 153.412 2.00037 153.235 2.13915 153.082C2.2755 152.924 2.4137 152.822 2.49748 152.736C2.67134 152.571 2.6794 152.524 2.48704 152.61C2.29445 152.693 1.89845 152.922 1.42473 153.374C1.31201 153.488 1.17207 153.61 1.05443 153.751C0.935376 153.893 0.808306 154.047 0.670179 154.212C0.552046 154.381 0.425909 154.563 0.291744 154.757C0.164252 154.953 0.0485261 155.162 -0.0824799 155.385C-0.0474363 155.325 0.0421766 155.142 0.161794 154.9C0.215746 154.778 0.301732 154.644 0.381429 154.502C0.466985 154.361 0.541799 154.211 0.643071 154.064C0.744352 153.917 0.845015 153.772 0.939682 153.637C1.03131 153.5 1.14945 153.379 1.23556 153.271C1.32752 153.163 1.40664 153.072 1.46245 153.006C1.52716 152.943 1.56776 152.902 1.5774 152.893C1.867 152.568 1.94064 152.471 1.86692 152.506C1.79542 152.542 1.57717 152.707 1.3361 152.918C1.12172 153.135 0.851996 153.391 0.687581 153.591C0.509242 153.79 0.369361 153.925 0.329236 153.888C0.2435 153.808 0.407548 153.529 0.735789 153.18C1.08546 152.835 1.60168 152.411 2.24449 152.128C2.32184 152.093 2.39836 152.056 2.4743 152.022C2.55632 151.991 2.63774 151.963 2.71856 151.937C2.8802 151.885 3.03377 151.832 3.18479 151.798C3.33967 151.767 3.4869 151.742 3.62123 151.721C3.68921 151.711 3.75133 151.702 3.81426 151.694C3.87601 151.69 3.93495 151.688 3.98882 151.687C4.42496 151.677 4.61884 151.701 4.38985 151.724C4.57444 151.702 4.73756 151.711 4.89456 151.703C4.97246 151.701 5.04814 151.699 5.12382 151.697C5.19549 151.7 5.26634 151.703 5.33659 151.707C5.47772 151.714 5.61742 151.722 5.76077 151.729C5.8989 151.747 6.04148 151.766 6.19458 151.791C6.79512 151.897 7.56534 152.121 8.57846 152.773C9.97722 153.679 11.2671 155.018 11.844 155.75C12.4727 156.543 13.5557 157.716 14.319 158.833C14.3892 158.775 15.0991 159.585 15.7776 160.383C16.4569 161.182 17.1188 161.957 17.0974 161.904C16.9099 161.501 15.4124 159.327 16.7144 160.492C16.5695 160.362 17.039 161.09 17.5879 161.794C18.1351 162.504 18.7734 163.167 18.9037 163.041C18.9746 162.972 18.3194 162.283 17.8131 161.682C17.3048 161.085 16.937 160.617 17.5513 161.135C17.5628 161.145 17.6702 161.269 17.8499 161.483C18.0303 161.694 18.2838 161.993 18.5917 162.338C18.899 162.685 19.2609 163.077 19.6567 163.476C20.0524 163.875 20.4861 164.275 20.9257 164.613C21.3629 164.951 21.8135 165.23 22.1899 165.368C22.5694 165.507 22.8412 165.529 23.0906 165.483C23.3395 165.439 23.5925 165.281 23.7997 165.126C23.9012 165.032 23.9903 164.948 24.0634 164.88C24.1335 164.796 24.1885 164.729 24.2258 164.683C24.2074 164.667 24.1464 164.695 24.0711 164.74C24.0353 164.763 23.9938 164.788 23.9517 164.816C23.9092 164.837 23.8667 164.858 23.8248 164.877C23.6647 164.954 23.5515 164.999 23.6485 164.854C23.672 164.82 23.7019 164.784 23.7383 164.746C23.774 164.71 23.8168 164.671 23.8602 164.616C23.9052 164.563 23.9552 164.51 24.0109 164.453C24.0396 164.422 24.0635 164.408 24.0998 164.357C24.1338 164.315 24.1705 164.271 24.205 164.227C24.4945 163.875 24.8413 163.484 25.1806 163.111C25.3517 162.926 25.5208 162.744 25.6783 162.574C25.835 162.403 25.9699 162.233 26.0962 162.09C26.3436 161.803 26.5237 161.597 26.5765 161.542C26.7087 161.4 26.8974 161.167 27.1122 160.895C27.3269 160.622 27.5691 160.31 27.7841 159.992C28.2247 159.365 28.6391 158.775 28.7815 158.634C28.4546 158.957 28.3238 158.951 28.3965 158.596C28.4332 158.418 28.52 158.152 28.6597 157.795C28.7972 157.438 28.9693 156.978 29.2002 156.427C29.2742 156.471 29.488 156.073 29.7286 155.575C29.8478 155.326 29.9758 155.053 30.0967 154.797C30.2116 154.537 30.3189 154.297 30.4088 154.117C30.9074 153.11 30.3426 154.582 30.6624 154.055C30.8694 153.714 31.0702 153.222 31.2668 152.684C31.3651 152.415 31.4628 152.135 31.559 151.856C31.6522 151.575 31.7454 151.293 31.8345 151.028C32.2007 149.963 32.5645 149.126 32.9677 149.333C32.7652 149.226 33.345 146.475 33.8619 146.778C33.9194 146.812 34.4158 146.702 33.8394 148.018C35.4382 144.362 34.1945 146.234 35.2497 143.372C36.013 141.296 37.773 137.484 36.9916 138.324C37.573 136.91 39.5707 135.843 40.4238 132.992L40.1034 132.841C41.0826 130.462 42.3051 128.469 43.3893 125.254C43.5515 124.786 43.8166 123.762 44.0864 122.839C44.3495 121.915 44.5839 121.084 44.6314 121.001C44.9891 120.279 45.3184 119.548 45.7107 118.795C45.7273 118.769 45.3701 118.003 45.6311 117.518C46.337 116.186 46.6088 116.341 47.0313 115.511C47.8196 113.947 48.5795 112.494 48.6335 112.884C49.3854 111.407 48.3214 112.288 49.7461 109.776C49.7951 109.682 51.1725 107.622 51.0606 107.555C51.2186 107.65 51.2857 107.746 51.5729 107.346C51.861 106.946 52.3595 106.046 53.4237 104.173C53.4798 104.208 54.1475 103.028 54.8011 101.833C55.4503 100.637 56.0908 99.4289 56.0025 99.3672C55.7005 99.8854 55.4473 100.319 55.2203 100.691C54.991 101.062 54.7932 101.373 54.6073 101.653C54.2326 102.212 53.9084 102.639 53.5189 103.159C52.8795 104.008 52.2486 105.255 51.5911 106.228C52.3562 104.885 52.7755 103.746 52.8242 103.658C53.3801 102.668 53.3989 103.14 53.7238 102.492C54.2673 101.429 53.5835 102.438 54.6315 100.634C55.3498 99.6425 55.9262 98.3627 55.9127 98.1995C55.9982 98.1652 56.3073 97.8251 56.5669 97.4742C56.8287 97.1238 57.0455 96.7638 56.9305 96.6817C57.1395 96.8354 57.0668 97.738 58.0339 96.6629C58.7033 95.925 59.4439 94.5391 59.5293 94.2249C59.6279 93.8391 59.3045 94.0634 58.9569 94.3336C58.6094 94.6038 58.2465 94.9223 58.2493 94.7027C58.2507 94.6399 58.3661 94.4492 58.5438 94.2038C58.7238 93.959 58.9644 93.6566 59.2066 93.3665C59.4553 93.0781 59.7048 92.8007 59.8991 92.6002C60.0956 92.4003 60.2371 92.281 60.2608 92.2993C60.7748 91.4125 61.4499 90.3688 62.3857 89.2103C62.7879 88.8297 62.8626 88.8354 62.7353 89.0705C62.6716 89.1881 62.5581 89.3626 62.4105 89.5755C62.2682 89.7911 62.0917 90.0452 61.8981 90.3186C61.1294 91.4182 60.1582 92.8734 59.7916 93.397C60.0801 92.9918 60.3686 92.6617 60.6138 92.4225C60.8581 92.1818 61.0536 92.0257 61.1646 91.9673C60.9766 91.9931 61.4257 91.3749 61.9741 90.6975C62.2497 90.358 62.541 90.0001 62.7853 89.6974C63.0318 89.3954 63.2153 89.1372 63.2666 88.9949C63.3888 88.6631 63.395 88.4622 63.7099 88.0249C63.7894 87.9151 63.8861 87.7898 64.0085 87.6439C64.1332 87.4986 64.2875 87.3362 64.4722 87.1451C64.8505 86.7688 65.3588 86.2855 66.1349 85.7097C65.2372 86.384 64.8796 86.8159 64.7794 87.0166C64.683 87.2206 64.8685 87.2132 65.173 87.0994C65.3255 87.0414 65.5063 86.9576 65.7064 86.8647C65.9056 86.7704 66.1103 86.6597 66.3206 86.5552C66.7298 86.3396 67.1254 86.13 67.3328 85.9783C67.2775 86.0158 67.1257 86.0133 67.0085 85.9438C66.8914 85.8743 66.8047 85.7307 66.9021 85.4828C67.0078 85.2395 67.2817 84.871 67.9827 84.4286C68.0713 84.3738 68.1641 84.3164 68.2649 84.2601C68.3688 84.2057 68.4814 84.1501 68.599 84.0935C68.7159 84.0355 68.8446 83.9818 68.9836 83.9297C69.1227 83.8776 69.2621 83.8197 69.4241 83.775C70.0476 83.5823 70.8631 83.4327 71.8437 83.5299C71.8393 83.5775 71.4285 83.5723 70.8673 83.6482C70.3062 83.7242 69.6167 83.9099 69.0345 84.1578C68.4498 84.4014 67.9594 84.6845 67.7019 84.8764C67.443 85.0691 67.4 85.154 67.7286 85.0527C68.0468 84.9497 68.2838 84.9501 68.5563 84.9111C68.6977 84.899 68.8526 84.881 69.0366 84.8481C69.1273 84.8295 69.2344 84.8165 69.3476 84.7944C69.4623 84.7751 69.5829 84.7431 69.7267 84.7221C69.9821 84.6404 70.1516 84.5858 70.256 84.5518C70.3602 84.5142 70.3935 84.4874 70.3777 84.4665C70.3604 84.4464 70.2926 84.4329 70.1922 84.4251C70.1417 84.4223 70.0832 84.4185 70.019 84.418C69.9565 84.4203 69.8889 84.4236 69.8176 84.4272C69.5302 84.4371 69.2092 84.4929 68.9945 84.5116C68.7861 84.5379 68.6902 84.5313 68.8605 84.4292C68.7242 84.5154 69.0914 84.3278 69.7886 84.1132C69.9593 84.0541 70.1639 84.0149 70.3736 83.9615C70.4801 83.9376 70.5951 83.922 70.7112 83.9019C70.8274 83.8818 70.9466 83.8637 71.0729 83.8546C71.5682 83.7979 72.1267 83.8118 72.6699 83.9097C73.2151 84.0046 73.7405 84.1823 74.1927 84.3928C74.641 84.6095 75.0199 84.8492 75.3119 85.062C75.6025 85.2757 75.8189 85.4552 75.9415 85.5667C76.0669 85.6765 76.1098 85.7119 76.042 85.6496C76.4172 86.0099 76.6947 86.3344 76.9033 86.6143C77.1169 86.8931 77.2616 87.1308 77.377 87.3273C77.5961 87.7231 77.6688 87.963 77.6861 88.1296C77.7235 88.4613 77.5421 88.5116 77.6887 88.9606C77.8304 89.4143 78.2102 90.0105 78.4167 90.1957C78.5207 90.2879 78.5848 90.2753 78.5529 90.0833C78.5195 89.8921 78.398 89.5188 78.0834 88.9056C78.5859 89.6001 78.8789 90.1826 79.1129 90.7408C79.3441 91.3007 79.5108 91.8434 79.7275 92.4887C79.4522 91.6799 80.1329 92.0649 80.4913 92.7411C80.7669 93.2509 80.9059 94.7153 81.1724 95.3168C81.3091 95.6155 81.0875 94.0861 81.2267 94.4737C81.2408 94.5144 81.3561 94.9646 81.5104 95.6159C81.6647 96.2671 81.8558 97.1189 82.0406 97.963C82.4117 99.6503 82.7632 101.304 82.8789 101.277C82.9683 101.259 82.3114 98.7086 82.6798 99.6722C83.1907 100.993 83.6803 103.647 83.7619 102.516C84.3648 104.641 83.9772 103.856 84.1393 104.82C84.5038 106.981 84.9901 107.54 85.4407 109.011C85.4887 109.165 85.6576 109.891 85.8336 110.599C86.0123 111.306 86.189 112.002 86.2176 112.113C86.2685 112.342 86.5939 113.537 86.5769 113.484C86.777 114 86.6642 113.323 86.607 112.759C86.5504 112.192 86.5409 111.743 86.8926 112.707C87.4836 114.293 87.7801 115.165 87.8018 115.551C87.8312 115.93 87.5778 115.827 87.205 115.288C87.1336 115.191 86.6999 114.439 86.392 113.89C86.0836 113.343 85.8719 113.021 86.1906 113.85C86.3576 114.445 86.6338 115.051 86.8856 115.493C87.1361 115.937 87.3656 116.214 87.4139 116.194C87.3393 115.703 87.424 115.694 87.5952 115.958C87.7683 116.218 88.0309 116.755 88.3592 117.33C88.6853 117.904 89.076 118.522 89.4558 118.959C89.8304 119.406 90.1798 119.676 90.3216 119.756C90.6587 119.942 90.9007 120.013 91.097 120.041C91.2923 120.077 91.44 120.072 91.6005 120.073C91.68 120.074 91.7631 120.062 91.8552 120.065C91.9016 120.061 91.9516 120.057 92.0053 120.052C92.0584 120.05 92.1151 120.047 92.1792 120.034C92.2427 120.024 92.3089 120.021 92.3831 120.007C92.4574 119.992 92.5388 119.977 92.6268 119.96C92.7165 119.936 92.814 119.91 92.9189 119.883C93.0396 119.842 93.1704 119.798 93.3104 119.751C93.5027 119.687 93.7297 119.618 93.9551 119.524C94.1808 119.433 94.4174 119.355 94.6243 119.267C95.0381 119.092 95.37 118.974 95.3965 119.026C95.448 119.132 96.3382 118.757 97.1665 118.235C97.9895 117.711 98.7404 117.069 98.6477 116.944C98.6015 116.881 98.1189 117.233 97.7045 117.494C97.2876 117.752 96.9542 117.943 97.2318 117.623C97.3659 117.464 97.578 117.282 97.8084 117.075C98.0379 116.868 98.301 116.66 98.5468 116.467C99.0321 116.074 99.4678 115.777 99.5189 115.84C101.133 114.639 101.366 114.245 101.206 114.246C101.045 114.243 100.464 114.571 100.367 114.683C100.727 114.267 101.143 113.81 101.646 113.282C100.992 113.897 100.542 114.344 100.451 114.238C100.509 114.184 100.693 114.027 100.94 113.807C101.188 113.589 101.507 113.315 101.828 113.011C101.989 112.86 102.152 112.707 102.313 112.556C102.469 112.4 102.621 112.247 102.765 112.102C103.049 111.814 103.286 111.551 103.423 111.367C103.385 111.494 103.362 111.599 103.451 111.501C103.547 111.406 104.866 109.727 105.04 109.619C105.205 109.53 105.226 109.67 105.44 109.501C105.653 109.333 106.064 108.859 106.97 107.517C107.564 106.635 108.076 105.728 108.568 104.914C108.836 104.769 107.668 107.123 109.137 105.243C109.224 105.133 109.874 104.091 110.474 103.077C111.076 102.066 111.633 101.085 111.573 101.124C111.342 101.274 110.293 103.024 110.062 103.108C109.728 103.233 110.977 101.09 111.832 99.7492C113.135 97.7076 114.306 96.4096 114.8 96.1001C115.064 96.3138 114.032 97.3309 113.137 98.6684C112.306 99.9132 114.044 97.9047 114.614 97.1129C115.447 95.6814 115.746 95.7983 115.857 95.7508C115.655 95.8074 119.044 90.6486 115.946 94.6883C114.74 96.3151 116.037 94.0931 116.054 94.0738C116.025 94.1448 116.725 93.1886 117.445 92.1976C118.158 91.1997 118.934 90.1974 118.995 90.1303C120.059 89.0108 120.639 88.6851 121.123 88.3907C121.492 87.7451 122.08 86.784 122.851 85.7338C123.531 84.8152 124.236 84.455 124.021 84.7464C124.523 84.0448 124.441 83.85 124.265 83.878C124.799 83.3706 125.446 82.7376 125.999 82.2685C126.55 81.798 126.985 81.4715 127.058 81.5458C127.163 81.6526 128.149 80.3978 128.227 80.4784C128.285 80.5405 126.66 82.5183 127.146 82.0662C128.199 81.0903 128.639 80.4864 128.876 80.0793C129.116 79.6741 129.142 79.456 129.352 79.2466C129.842 78.7549 130.666 78.05 131.352 77.4847C132.05 76.9295 132.612 76.5108 132.563 76.5619C132.909 76.189 132.612 75.5791 131.921 76.1528C131.129 76.6888 131.816 75.7625 132.724 74.7194C132.952 74.46 133.19 74.1877 133.427 73.938C133.666 73.6888 133.899 73.4533 134.104 73.2521C134.514 72.8498 134.819 72.5873 134.854 72.6275C134.157 73.4487 133.4 74.3573 133.253 74.6694C133.102 74.9767 133.519 74.6476 135.201 73.0303C135.844 72.4128 136.321 71.9081 136.691 71.5214C137.059 71.1326 137.299 70.8419 137.445 70.6261C137.735 70.1953 137.647 70.0657 137.436 70.0579C137.911 69.7837 138.028 69.8591 138.3 69.7283C138.573 69.5989 138.992 69.2537 140.111 68.1812C140.855 67.4658 141.537 66.8242 142.154 66.2797C142.773 65.7366 143.313 65.2726 143.747 64.8827C144.182 64.4928 144.511 64.1771 144.715 63.9352C144.921 63.6961 144.996 63.5246 144.917 63.42C145.019 63.5582 147.091 61.7141 147.22 61.6152C147.453 61.4408 147.053 62.1377 148.079 61.4083C149.135 60.6655 149.062 60.4781 149.87 59.8369C150.581 59.2722 149.244 60.8996 149.221 60.9388C149.046 61.2373 150.372 60.3288 151.192 59.7445C151.024 59.498 153.816 58.0735 154.213 57.7712C154.156 57.7155 154.297 56.5894 155.232 56.0346C155.572 55.8385 156.682 55.0604 157.727 54.3553C158.765 53.6398 159.704 52.9528 159.652 52.8685C157.376 54.5565 157.098 54.5382 157.703 53.9544C158.306 53.3728 159.791 52.2185 161.057 51.6928C161.583 51.2333 162.747 50.3957 163.222 50.018C163.343 50.2265 167.021 47.3229 166.332 48.476C166.19 48.7011 164.494 50.1895 163.499 50.8223C164.434 50.3331 165.957 49.3333 165.894 49.2212C166.766 48.765 166.472 48.9532 167.653 48.2057C167.011 48.6103 167.498 48.156 167.375 48.1707C168.287 47.5976 168.635 47.4076 168.965 47.2135C169.13 47.1183 169.289 47.0205 169.513 46.8744C169.736 46.7305 170.026 46.5425 170.446 46.2585C170.606 46.1607 173.569 44.4424 173.508 44.3199C173.331 44.3058 172.777 44.5482 171.871 45.0867C170.899 45.6758 169.838 46.2564 169.337 46.4782C168.842 46.7113 168.888 46.5605 170.155 45.7109C170.924 45.0152 171.693 44.5972 172.417 44.2717C173.148 43.9566 173.834 43.7317 174.438 43.4053C174.806 43.206 175.593 42.4319 175.577 42.3965C175.892 42.188 176.724 41.7247 177.567 41.2585C178.41 40.791 179.265 40.327 179.636 40.1334C179.067 40.4358 178.685 40.6622 178.447 40.8128C178.209 40.9634 178.114 41.0405 178.127 41.0631C178.153 41.1082 178.607 40.9285 179.204 40.6762C179.802 40.4304 180.541 40.109 181.127 39.8514C181.711 39.5897 182.115 39.4087 182.129 39.4027C183.134 39.0501 183.479 39.0782 183.979 39.0264C185.249 38.0111 183.066 38.9426 183.365 38.4807C183.492 38.2849 183.977 37.9766 184.59 37.6475C185.203 37.3198 185.945 36.9684 186.597 36.7047C187.896 36.1689 188.797 35.9063 187.478 36.6095C188.751 35.9287 189.623 35.4404 190.034 35.267C190.443 35.0872 190.383 35.2045 189.793 35.7313C189.809 35.7166 190.248 35.4613 190.722 35.1857C191.196 34.9101 191.703 34.6135 191.861 34.5152C191.929 34.6824 192.605 34.2547 193.098 33.889C193.592 33.5233 193.898 33.2016 193.202 33.5488C194.007 33.1462 194.031 33.3051 193.856 33.5643C193.769 33.6935 193.631 33.8483 193.515 33.9697C193.398 34.0897 193.311 34.1795 193.31 34.1817C193.63 34.1924 194.753 33.5666 195.646 33.0136C196.538 32.4556 197.209 31.9968 196.589 32.2907C197.683 31.7642 198.87 31.7798 199.403 31.5116C199.348 31.5397 199.922 31.1407 200.518 30.755C200.816 30.5621 201.119 30.3668 201.346 30.2191C201.46 30.1473 201.556 30.0883 201.623 30.0456C201.691 30.0066 201.73 29.9838 201.732 29.9866C201.708 29.9232 201.961 29.7527 202.361 29.5333C202.759 29.3126 203.302 29.0423 203.865 28.7927C204.988 28.285 206.17 27.8094 206.356 27.8092C206.871 27.8089 204.266 29.322 207.183 28.1452C207.554 28.0005 211.161 26.0854 212.143 25.8945C212.948 25.7244 210.053 26.8999 209.618 27.1097C208.82 27.4652 209.607 27.3247 209.79 27.3297C209.667 27.3277 209.249 27.3943 208.598 27.6477C208.181 27.8098 208.673 27.8298 209.163 27.6714C210.556 27.224 209.891 27.3259 210.819 26.9348C212.276 26.34 214.217 25.2269 215.317 25.0763C215.367 25.0288 215.43 24.8217 215.005 24.9616C214.249 25.2082 213.843 25.3638 213.643 25.4151C213.443 25.4651 213.448 25.4079 213.515 25.2354C213.542 25.1544 215.099 24.3662 215.495 24.3818C215.664 24.3877 214.601 24.851 215.714 24.5297C217.054 24.1431 217.761 23.7858 217.821 23.995C217.861 24.1319 218.951 23.6378 218.609 23.8785C218.094 24.1325 217.687 24.3581 217.393 24.558C217.453 24.5049 218.595 24.0842 219.734 23.6689C220.302 23.459 220.871 23.2492 221.302 23.0907C221.733 22.9299 222.028 22.8232 222.049 22.8001C222.431 22.3806 217.356 23.7809 218.384 23.2059C219.109 22.8081 220.507 22.3845 221.861 22.0539C223.214 21.7234 224.515 21.4514 225.038 21.2983C227.786 20.5159 228.21 20.1448 224.996 21.1382C227.844 20.3134 227.143 20.1877 228.823 19.6728C228.911 19.7645 228.13 20.2495 229.142 20.0277C230.205 19.7955 230.69 19.4368 231.26 19.2298C232.163 18.9037 233.034 19.0155 231.352 19.5976C229.457 20.2574 229.502 19.9477 228.178 20.3553C228.018 20.4064 228.323 20.3728 228.902 20.2586C229.482 20.1472 230.332 19.9533 231.26 19.6636C232.323 19.3279 233.163 19.0609 233.787 18.8289C234.41 18.5968 234.816 18.4055 235.015 18.2434C234.906 18.3331 235.605 18.2583 236.324 18.1984C237.044 18.1435 237.782 18.0985 237.75 18.2207C240.448 17.4894 240.524 17.1261 241.624 16.6774C243.206 16.0364 243.392 16.2899 244.253 16.0443C244.725 15.9087 244.273 15.8973 243.678 15.9177C243.084 15.9431 242.346 16.0085 242.244 16.0037C242.874 16.0177 246.55 15.1468 248.109 14.7856C250.277 14.1751 249.37 14.5314 249.929 14.5146C249.836 14.5194 251.331 13.9063 251.835 13.79C253.123 13.4787 254.249 13.3491 255.366 13.1458C256.677 12.9111 257.615 12.65 258.474 12.4526C259.333 12.2574 260.115 12.1383 261.103 12.1672C262.708 12.2219 261.368 12.7718 265.924 11.9509C271.53 10.798 265.683 11.5753 266.413 11.3004C266.858 11.1315 271.231 10.5403 270.75 10.82C270.591 10.906 270 11.1289 269.847 11.2511C269.695 11.3747 269.978 11.3803 271.573 11.0775C271.896 11.0187 273.63 10.6114 274.822 10.3125C276.013 10.0157 276.658 9.80134 274.785 10.0763C273.587 10.2531 273.392 10.4974 272.004 10.5472C271.809 10.5545 272.21 10.456 272.931 10.3012C273.292 10.2264 273.733 10.135 274.221 10.0357C274.709 9.94517 275.244 9.84531 275.789 9.74259C277.975 9.33 280.364 8.95045 280.754 8.90594C280.945 8.88571 279.111 9.50461 279.303 9.62144C279.489 9.73568 280.788 9.44409 281.019 9.34862C280.869 9.46332 279.301 9.92482 279.854 9.83476C280.149 9.78865 282.07 9.46486 283.923 9.19768C284.85 9.06258 285.756 8.92072 286.434 8.83555C286.774 8.79187 287.054 8.7575 287.251 8.7326C287.35 8.72229 287.426 8.7141 287.479 8.708C287.531 8.70414 287.56 8.70238 287.559 8.70461C287.555 8.63419 286.957 8.66348 286.217 8.72025C285.477 8.77784 284.596 8.87659 284.02 8.91992C285.744 8.76252 289.132 8.17789 290.022 8.36145C287.998 8.585 288.679 8.65564 289.864 8.66108C290.458 8.66995 291.176 8.66475 291.746 8.65314C292.032 8.64623 292.279 8.63867 292.457 8.63385C292.545 8.63003 292.616 8.62649 292.663 8.62365C292.712 8.62001 292.738 8.61768 292.737 8.61485C293.164 8.48641 295.689 7.69769 294.17 7.79465C296.096 7.67106 298.108 7.72753 298.114 7.93782C297.405 8.13717 298.744 7.9839 300.222 7.78438C301.701 7.57901 303.323 7.36433 303.167 7.37735C303.887 7.3035 304.552 7.23514 305.09 7.18027C305.626 7.12402 306.037 7.08262 306.24 7.04056C306.648 6.96284 306.236 6.88476 304.398 6.83539C303.607 6.79609 302.581 6.7855 301.691 6.76158C303.526 6.69814 305.959 6.52812 306.67 6.70199C307.416 6.88033 306.594 7.39402 310.032 7.20015C308.639 7.27133 310.384 6.93842 312.142 6.67106C313.901 6.40369 315.672 6.23395 314.313 6.55102C314.304 7.13116 317.723 6.08902 317.291 6.13394C318.095 6.06962 318.493 6.32135 319.46 6.178C320.178 6.07147 319.604 5.91862 318.799 5.88302C318.376 5.86613 316.629 5.75882 316.631 5.68068C316.636 5.44854 319.741 5.69819 319.736 5.86837C319.736 5.86837 319.785 5.90993 319.852 5.96858C319.918 6.02802 320.003 6.10536 320.071 6.18215C320.21 6.33494 320.291 6.48397 320.058 6.46803C321.369 6.55487 321.903 6.02125 321.538 5.95341C321.053 5.7711 320.833 5.325 324.267 5.36468C330.799 5.28404 323.337 6.02559 323.361 5.43873C323.359 5.48476 324.139 6.36458 324.497 6.33878C326.947 6.18661 326.293 5.81105 328.534 5.69696C328.69 5.68982 331.047 5.98073 331.46 6.01281C329.544 5.7603 330.162 5.52928 333.406 5.54315C334.212 5.54946 332.007 5.93186 331.855 5.98764C331.287 6.17483 332.284 6.04063 332.993 6.06736C334.394 6.11524 333.787 6.48994 336.616 6.17585C337.052 6.13073 339.471 5.62465 338.979 5.61555C340.343 5.64381 340.44 5.86035 341.287 6.00273C341.613 5.89351 344.561 5.76984 344.654 5.84733C344.911 6.02806 344.082 6.17767 342.856 6.25779C341.631 6.33204 340.009 6.30837 338.677 6.08859C338.666 6.24748 339.902 6.40004 341.315 6.47494C342.021 6.51277 342.771 6.53043 343.433 6.52065C344.094 6.50722 344.666 6.48532 345.013 6.4105C345.38 6.33379 344.351 5.79113 346.81 6.12116C346.794 6.28976 348.731 6.16553 349.153 6.15699C349.277 6.15464 350.079 6.34787 350.928 6.50033C351.777 6.64694 352.672 6.78427 352.987 6.61737C353.291 6.46059 354.034 6.29279 354.049 6.14316C354.061 6.14393 354.222 6.15976 354.512 6.18614C354.802 6.21027 355.199 6.24405 355.606 6.27937C356.423 6.34336 357.293 6.39905 357.476 6.36331C358.063 6.24787 357.262 6.08088 357.692 5.96755C358.995 6.03081 359.47 6.11752 359.451 6.21124C359.432 6.30135 358.918 6.39851 358.244 6.4893C357.568 6.57868 356.729 6.66113 356.059 6.71879C355.723 6.74552 355.431 6.76961 355.222 6.78506C355.117 6.7928 355.034 6.79782 354.976 6.80132C354.918 6.80479 354.886 6.80454 354.886 6.80454C356.796 6.8984 356.709 7.06691 358.488 6.98132C358.502 6.84925 359.075 6.82653 360.308 6.90785C361.003 6.98573 363.864 7.51176 363.884 7.34072C363.905 7.16885 365.31 7.13557 364.649 6.94776C364.641 6.94679 364.336 6.89504 363.886 6.81711C363.434 6.73778 362.85 6.6336 362.33 6.53357C361.29 6.33491 360.51 6.1543 361.561 6.24067C363.278 6.38039 364.398 6.57789 365.346 6.78199C366.295 6.98387 367.075 7.19515 368.113 7.37927C369.968 7.70248 370.851 7.90325 371.936 8.22522C372.624 8.13435 372.431 7.6407 373.818 7.74415C373.714 7.86773 373.494 8.08147 374.688 8.26572C376.377 8.53839 376.312 8.16828 376.448 8.16082C377.179 8.12064 378.644 8.28571 380.093 8.4765C380.818 8.57522 381.539 8.67193 382.163 8.75698C382.786 8.84786 383.311 8.92062 383.646 8.95305C385.338 8.9514 384.484 9.20163 384.623 9.25894C385.341 9.55267 386.843 9.32257 386.888 9.32277C388.74 9.32243 389.135 9.44967 390.083 9.27834C390.358 9.22827 392.5 9.47452 392.333 9.48818C391.565 9.55394 390.163 9.48568 390.136 9.66302C390.104 9.86762 394.611 9.88298 393.537 9.76803C394.283 9.67592 395.399 9.53676 395.43 9.34607C397.172 9.19707 397.673 9.8042 396.27 9.79144C394.284 9.77501 398.023 10.2148 398.057 10.0203C398.009 10.3017 400.225 10.4202 399.779 10.6307C402.712 10.9687 400.798 10.5164 402.014 10.4981C403.278 10.4806 403.09 10.7448 404.302 10.8836C406.725 11.172 405.527 10.2078 411.538 11.3242C411.535 11.3412 411.244 11.3251 410.798 11.2913C410.352 11.254 409.748 11.2019 409.12 11.1492C407.866 11.0393 406.516 10.922 406.123 10.9237C408.496 11.2166 407.376 11.4763 408.048 11.6634C408.985 11.9229 411.261 12.067 411.422 11.9567C411.468 12.2084 414.986 12.4792 414.942 12.7093C414.995 12.4291 416.103 12.5558 418.774 12.8833C420.303 13.0678 420.583 12.9475 422.181 13.1659C421.885 13.1785 419.961 13.2145 421.281 13.4335C423.612 13.8186 423.082 13.2489 423.09 13.201C422.636 13.0831 420.889 12.9459 420.47 12.8755C421.131 12.9824 419.594 11.9271 418.187 11.8847C417.89 11.8755 418.676 12.976 416.803 12.5408C414.605 12.139 415.254 11.4585 418.468 11.8671C420.279 12.0952 420.888 12.1892 421.283 12.2785C421.678 12.3678 421.862 12.4538 422.814 12.6817C424.562 13.0988 426.073 12.9141 427.654 13.2902C429.479 13.5467 427.114 13.7053 426.659 13.6904C426.649 13.7332 428.007 14.2889 428.258 14.3024C429.712 14.3668 428.57 13.6333 432.681 14.5407C427.215 13.8764 438.198 15.6212 438.272 15.2609C436.089 14.9749 435.918 14.6469 437.433 14.8694C438.689 14.9902 442.05 15.6933 441.618 15.693C441.815 15.6935 442.735 15.3146 444.207 15.709C445.015 15.9244 443.418 16.0086 443.176 16.0676C442.004 16.3529 445.964 16.3253 446.656 16.3618C446.704 16.364 447.959 16.0175 448.543 16.4111C448.949 16.6843 447.064 16.5305 446.559 16.6418C445.999 16.7658 449.395 17.2291 450.272 17.2581C450.187 17.253 452.34 17.1857 452.33 17.233C452.36 17.092 450.312 16.6053 451.345 16.539C452.054 16.4943 453.943 17.1625 454.357 17.2674C453.836 17.1339 455.374 17.1612 456.156 17.2922C457.348 17.4925 455.285 17.3816 456.433 17.5868C456.831 17.6242 457.216 17.6594 457.589 17.6939C458.135 17.7785 458.44 18.6642 456.679 18.3937C457.699 18.549 459 18.7677 459.974 18.8763C460.835 18.9725 460.178 18.7546 461.39 18.9436C461.305 18.9888 461.405 19.0667 461.353 19.1172C462.556 19.3038 464.861 19.3711 464.471 19.1845C464.288 19.0971 459.62 18.8566 460.252 18.3791C460.298 18.345 460.593 18.1035 461.538 18.2495C463.379 18.5356 461.758 18.53 462.041 18.6035C462.264 18.6608 465.523 18.7766 466.311 19.0223C466.311 19.0223 466.425 19.1577 466.541 19.2972C466.656 19.4376 466.77 19.5824 466.767 19.6008C466.691 19.9627 469.2 20.049 469.719 19.9916C470.577 19.895 473.268 20.2504 473.903 20.6315C473.87 20.7881 475.97 21.0747 477.147 21.2351C476.085 21.1793 472.595 21.2648 475.243 21.4347C477.244 21.5625 478.629 21.4655 478.388 21.1556C480.548 21.4948 478.111 21.9224 478.963 22.1615C479.087 22.197 479.38 22.135 479.643 22.0624C479.905 21.9897 480.142 21.9077 480.152 21.9035C480.557 21.6962 482.709 22.0978 484.541 22.4778C487.504 23.0408 487.422 22.9283 489.891 23.2563C491.525 23.4739 491.624 23.8339 492.839 23.9819C494.328 24.1631 494.285 23.344 495.272 23.3999C496.476 23.4699 499.745 24.3185 498.297 24.2224C497.77 24.1884 494.564 23.6867 494.897 23.8832C495.344 24.1531 500.665 24.4412 500.593 24.7816C500.565 24.9101 501.759 25.1775 503.202 25.4605C504.643 25.7408 506.333 26.0316 507.295 26.2167C508.827 26.5104 511.621 27.0186 512.967 27.0815C514.202 27.2611 514.493 26.7114 513.604 26.5518C512.425 26.3441 510.052 26.3158 509.612 26.1061C508.912 25.7769 509.791 25.8277 510.848 25.9371C511.905 26.0465 513.144 26.2105 513.161 26.1256C514.572 26.2976 516.946 26.686 518.485 26.9888C522.333 27.9272 522.216 27.2453 523.881 27.4793C524.299 27.6022 524.596 27.9117 524.968 27.9828C526.648 28.3055 527.364 28.3807 527.321 28.6049C527.341 28.4972 531.308 29.4447 531.163 29.4344C532.396 29.5171 532.841 28.507 534.786 29.0377C536.526 29.5099 538.935 30.0172 541.868 30.2065C542.572 30.2473 544.442 30.1016 544.852 30.2497C545.61 30.5243 542.213 30.2536 541.263 30.2267C541.577 30.2392 544.336 30.7998 544.651 30.7496C545.224 30.6554 544.017 30.5441 546.443 30.7558C547.666 30.8632 546.625 30.5568 548.479 30.8333C550.929 31.1908 550.265 31.3619 553.237 31.64C553.21 31.802 550.756 31.4994 550.742 31.5827C550.729 31.6614 553.171 32.0311 553.154 32.1313C553.183 31.9698 556.731 31.6483 554.837 31.3398C554.916 31.3526 552.359 31.1451 552.752 31.1135C553.891 31.0197 557.449 31.6621 558.542 31.8729C558.927 31.9511 556.656 32.2798 559.092 32.5004C561.283 32.6977 559.756 31.7752 560.351 31.8358C561.801 31.9849 562.367 32.3702 562.197 32.4591C562.401 31.9526 564.882 32.7165 564.846 32.9498C565.289 33.1281 566.589 33.4263 566.567 33.5836C566.62 33.2261 565.646 32.6043 570.294 32.9218C570.281 33.0101 571.326 33.5999 572.456 33.6407C574.025 33.6916 574.068 33.1612 576.571 33.3661C575.666 33.6442 577.064 33.7783 578.983 33.7361C579.153 33.7317 579.324 33.7323 579.497 33.7358L579.529 33.7361C579.529 33.7361 579.537 33.7356 579.542 33.7346L579.561 33.7327C579.561 33.7327 579.579 33.7302 579.587 33.7275C579.597 33.7255 579.596 33.7218 579.616 33.7199L579.746 33.7048C580.095 33.6671 580.449 33.6393 580.803 33.621L581.067 33.6073L581.2 33.6023L581.232 33.6004C581.232 33.6004 581.238 33.6007 581.242 33.6005L581.254 33.6027C581.269 33.6077 581.296 33.6067 581.301 33.6079L581.312 33.6109L581.378 33.5989C581.427 33.593 581.457 33.5723 581.498 33.5633C581.534 33.5502 581.586 33.5463 581.612 33.528C581.643 33.5138 581.675 33.5009 581.708 33.4894C581.745 33.4792 581.76 33.4593 581.79 33.4473C581.855 33.4252 581.882 33.3849 581.938 33.3582C581.971 33.3169 582.024 33.2882 582.051 33.2384C582.094 33.1987 582.112 33.1393 582.147 33.0891C582.162 33.0262 582.198 32.9715 582.203 32.9027C582.239 32.7729 582.227 32.6315 582.213 32.504C582.184 32.3782 582.146 32.2631 582.083 32.1845C582.026 32.1084 582.007 32.1307 581.991 32.174C581.978 32.2193 581.979 32.2957 581.96 32.3537C581.946 32.4085 581.926 32.4353 581.885 32.391C581.866 32.3681 581.845 32.3256 581.81 32.2731C581.797 32.2411 581.78 32.234 581.77 32.2149C581.766 32.2042 581.759 32.1952 581.75 32.1869C581.709 32.1377 581.666 32.0856 581.618 32.0287C581.084 31.3878 579.947 29.9097 580.032 29.8455C580.127 29.7757 578.749 28.164 578.376 27.7161C577.246 26.3565 577.952 27.4594 577.957 27.6122C577.967 27.8624 577.02 26.7214 576.833 26.3317C576.56 25.7655 576.565 25.5202 576.857 25.6186C577.233 25.7456 578.648 27.304 579.884 28.8373C579.455 28.1566 577.909 26.0483 577.794 25.9102C577.682 25.9934 576.289 24.5694 575.71 24.0974C575.559 24.2092 576.079 24.9443 575.93 25.0545C575.534 25.3488 572.049 20.2846 571.665 19.8221C571.142 19.1922 569.957 18.1479 568.878 16.8522C568.396 16.3752 567.409 15.1483 566.532 14.0483C566.093 13.4994 565.68 12.9825 565.376 12.6034C565.07 12.2259 564.868 11.9908 564.848 12.0067C563.948 11.2711 563.732 10.781 563.768 10.5688C562.498 9.53176 562.043 8.29848 561.677 7.64169C561.596 7.5948 560.391 6.80389 560.068 6.30634C560.016 6.22564 559.936 6.11013 559.837 5.96664C559.786 5.89603 559.731 5.81697 559.672 5.73445C559.657 5.71354 559.643 5.69321 559.626 5.67086L559.604 5.63868L559.56 5.58156C559.5 5.50716 559.441 5.41152 559.393 5.33421C559.128 4.88567 558.865 4.41011 558.599 3.87558C558.534 3.74248 558.468 3.60569 558.403 3.45722C558.337 3.30369 558.271 3.15744 558.195 2.92143C558.174 2.85269 558.155 2.79405 558.131 2.69344L558.116 2.62511L558.098 2.52263L558.084 2.41995C558.079 2.37216 558.075 2.30675 558.074 2.24923L558.074 2.16243C558.075 2.13174 558.075 2.11504 558.081 2.04759C558.091 1.93836 558.113 1.82622 558.142 1.72093L558.168 1.64065C558.184 1.59377 558.204 1.54663 558.224 1.50093C558.267 1.40869 558.317 1.31747 558.376 1.23302C558.405 1.19193 558.436 1.15143 558.468 1.11231C558.499 1.07323 558.53 1.03858 558.576 0.994978C558.662 0.911863 558.761 0.833686 558.867 0.769031C558.974 0.703541 559.087 0.651574 559.196 0.612953C559.278 0.586149 559.348 0.568092 559.428 0.553796C559.506 0.538932 559.586 0.530502 559.664 0.52654C559.703 0.524958 559.742 0.524752 559.782 0.524581L559.836 0.527168L559.865 0.529071C559.942 0.535368 560.019 0.547569 560.094 0.564195C560.132 0.572108 560.169 0.580786 560.206 0.591748L560.247 0.605265L560.276 0.615244C560.35 0.639954 560.424 0.670499 560.493 0.702078C560.535 0.722872 560.576 0.744504 560.615 0.766935L560.674 0.800589L560.713 0.826645L560.79 0.878189C560.843 0.915091 560.869 0.937582 560.909 0.967295C560.947 0.996403 560.976 1.02088 561.003 1.04478C561.223 1.23495 561.343 1.36702 561.441 1.47194C561.532 1.57367 561.588 1.64102 561.599 1.66441C561.69 1.85797 561.358 1.5462 561.047 1.3199C560.971 1.26394 560.889 1.20981 560.831 1.17616C560.763 1.1379 560.721 1.12295 560.723 1.14029C560.73 1.17779 560.918 1.35318 561.178 1.67074C561.427 1.97443 561.469 2.07615 561.41 2.0534C561.346 2.03028 561.18 1.88207 560.915 1.66101C560.88 1.63251 560.845 1.60397 560.808 1.57265C560.769 1.54213 560.73 1.51021 560.684 1.47509C560.589 1.40569 560.505 1.33563 560.289 1.22394C560.269 1.21272 560.224 1.19357 560.18 1.1758L560.114 1.15207L560.081 1.14091L560.024 1.12681C559.983 1.11688 559.94 1.10779 559.897 1.10236L559.833 1.0946L559.799 1.09149L559.735 1.09097C559.649 1.09174 559.561 1.10285 559.477 1.12321C559.431 1.13471 559.406 1.13986 559.337 1.16661C559.277 1.18987 559.218 1.22041 559.159 1.25599C558.918 1.41046 558.806 1.58415 558.72 1.78978L558.706 1.82784L558.699 1.84863L558.686 1.89168C558.679 1.92059 558.672 1.95087 558.666 1.98038C558.661 2.00986 558.656 2.04078 558.653 2.07086C558.649 2.09733 558.646 2.14052 558.647 2.14921C558.645 2.21421 558.648 2.28042 558.655 2.34415C558.659 2.3847 558.667 2.42361 558.674 2.46253C558.683 2.50651 558.688 2.52586 558.696 2.55528L558.719 2.63412C558.732 2.6734 558.747 2.72279 558.761 2.75623C558.788 2.82897 558.814 2.89088 558.84 2.94909C558.944 3.1769 559.043 3.35833 559.141 3.53107C559.239 3.70159 559.331 3.85719 559.415 3.99064C559.738 4.49989 559.811 4.56253 559.94 4.72322C559.973 4.76426 560.009 4.81095 560.057 4.87149C560.087 4.91052 560.121 4.95518 560.159 5.00465C560.196 5.04688 560.237 5.09473 560.282 5.14739C560.43 5.31427 560.638 5.55839 560.954 5.93606C561.861 7.02482 561.096 6.30521 561.854 7.21841C562.34 7.80382 561.71 6.73421 560.881 5.54016C560.777 5.39187 560.669 5.24157 560.562 5.08904C560.502 5.00736 560.443 4.92712 560.384 4.8446C560.352 4.79551 560.315 4.73793 560.289 4.69645L560.214 4.57407C560.022 4.25318 559.836 3.94501 559.673 3.67485C559.506 3.40268 559.355 3.16678 559.225 2.98067C559.094 2.79678 558.983 2.6467 558.895 2.6039C558.889 2.58817 558.878 2.53855 558.866 2.46271C558.863 2.43809 558.859 2.41206 558.856 2.38381C558.853 2.34974 558.85 2.3346 558.85 2.27262C558.85 2.24639 558.85 2.22017 558.85 2.19169L558.853 2.15074C558.854 2.13679 558.857 2.10305 558.861 2.08025C558.869 2.02873 558.881 1.97478 558.898 1.92344C558.903 1.90563 558.922 1.85353 558.945 1.8084C558.967 1.76331 558.992 1.71875 559.023 1.67685C559.054 1.63411 559.082 1.59968 559.126 1.55689C559.171 1.51409 559.222 1.47532 559.278 1.44136C559.334 1.4088 559.393 1.38053 559.452 1.35948C559.496 1.34512 559.535 1.33771 559.58 1.33063C559.623 1.32439 559.668 1.31953 559.712 1.31832C559.735 1.31844 559.756 1.31936 559.778 1.31948C559.8 1.3204 559.804 1.32155 559.817 1.3237C559.861 1.32977 559.909 1.34007 559.953 1.35201C560.102 1.39918 560.17 1.44689 560.229 1.48782C560.343 1.57065 560.418 1.64926 560.486 1.7283C560.756 2.04237 560.991 2.41394 561.245 2.77995C561.745 3.50597 562.26 4.17647 562.574 3.98777C562.664 3.93206 563.465 4.48983 563.827 4.65331C564.007 4.73509 564.08 4.71539 563.9 4.46813C563.718 4.22167 563.293 3.74562 562.439 2.92344C562.439 2.92344 562.689 3.13587 563.057 3.4477C563.421 3.76198 563.899 4.17727 564.367 4.58007C565.294 5.38838 566.157 6.15097 565.967 5.93342C568.176 8.48967 566.347 7.25143 569.338 10.7238C569.722 11.171 568.31 9.09038 568.48 9.30258C569.989 11.1746 570.602 11.9858 570.191 11.0583C570.253 11.1953 572.144 13.8012 572.736 14.3992C573.353 15.0162 573.718 15.1474 574.185 15.5488C573.907 15.4124 573.925 15.7817 575.053 17.1597C574.95 16.8319 576.117 17.5865 576.448 18.4699C576.775 19.3281 575.433 17.7785 575.338 18.0699C574.278 16.7709 575.38 17.837 574.336 16.5626C573.536 16.1433 575.863 18.8062 575.69 18.9303C575.699 18.9399 575.864 19.1079 576.112 19.3591C576.362 19.6095 576.69 19.9522 577.027 20.3082C577.706 21.0169 578.41 21.7963 578.589 22.0385C578.491 21.868 578.24 21.4434 577.974 20.9731C577.708 20.505 577.422 19.9972 577.263 19.6568C577.104 19.3163 577.071 19.1442 577.304 19.3569C577.534 19.572 578.047 20.1551 578.937 21.3608C579.892 22.6508 580.449 23.5841 580.611 24.0228C580.773 24.4607 580.549 24.3969 579.922 23.7215C580.318 24.1708 581.188 25.1211 582.054 26.1882C582.492 26.7175 582.919 27.2847 583.306 27.8126C583.686 28.3446 584.013 28.8513 584.241 29.2663C584.299 29.3722 584.347 29.4663 584.385 29.5479C584.406 29.6035 584.424 29.6571 584.44 29.7057C584.471 29.8044 584.479 29.8805 584.468 29.9322C584.443 30.0387 584.334 30.0562 584.214 30.0619C584.094 30.0691 583.965 30.0644 583.9 30.1325C583.835 30.1998 583.828 30.3374 583.992 30.6469C583.912 30.4956 584.137 30.6775 584.456 31.0061C584.775 31.3333 585.187 31.8153 585.425 32.2435C585.702 32.7408 585.728 32.9705 585.679 33.0492C585.63 33.1301 585.503 33.0816 585.432 33.083C585.545 33.2788 585.643 33.4684 585.728 33.6543C585.812 33.8388 585.889 34.0464 585.937 34.2286C586.041 34.5994 586.044 34.9301 585.991 35.1936C585.981 35.2612 585.973 35.3244 585.964 35.384C585.95 35.4446 585.938 35.5022 585.926 35.5562C585.903 35.6618 585.888 35.7509 585.865 35.8281C585.823 35.9823 585.805 36.1074 585.785 36.1939C585.719 36.5514 585.902 36.4836 585.988 36.4864C586.004 36.4884 586.001 36.5388 585.979 36.6306C585.957 36.7201 585.911 36.8424 585.854 36.9939C585.733 37.2877 585.533 37.6715 585.287 38.0201C584.809 38.7341 584.161 39.3242 584.006 39.3386C583.812 39.3546 583.483 39.5165 583.074 39.7022C583.064 39.7174 582.981 39.7953 582.854 39.8984C582.736 39.993 582.582 40.1173 582.432 40.2401C582.141 40.4756 581.859 40.7134 581.878 40.753L581.954 40.914C581.965 40.9323 581.692 41.0617 581.282 41.2438C580.871 41.4171 580.319 41.6384 579.77 41.8536C578.67 42.2783 577.573 42.6562 577.61 42.5993C577.097 42.9013 574.591 44.267 574.515 44.3036C573.114 45.1576 572.312 45.3836 571.941 45.3877C571.567 45.3889 571.617 45.1556 571.894 45.0572L571.932 45.0579Z" fill="#FEF9EC"/>
<path d="M539.065 29.5041C540.685 29.5141 540.841 29.7774 540.813 29.9285C540.823 29.874 539.438 29.5897 539.065 29.5041Z" fill="#FEF9EC"/>
<path d="M490.948 22.7605C490.204 22.66 489.913 22.5856 490.076 22.5365C489.827 22.434 489.924 22.4005 490.37 22.4365C491.413 22.6517 490.888 22.6598 490.946 22.7613L490.948 22.7605Z" fill="#FEF9EC"/>
<path d="M586.503 32.585C586.434 32.3412 586.388 32.2207 586.365 32.1645C586.332 32.0426 586.32 31.9522 586.338 31.9095C586.368 31.9508 586.519 32.1998 586.705 32.5998C586.798 32.7998 586.896 33.0309 586.991 33.3198C587.103 33.6535 587.185 34.0211 587.205 34.3633C587.227 34.709 587.189 35.0357 587.105 35.3039C587.068 35.4381 587.03 35.5614 586.993 35.6672C586.951 35.7725 586.904 35.8744 586.873 35.9339C586.81 36.0565 586.766 36.1161 586.751 36.1002C586.745 36.0925 586.747 36.0669 586.754 36.0176C586.758 35.9926 586.764 35.9631 586.773 35.9261C586.777 35.9083 586.781 35.8891 586.786 35.8677C586.793 35.8433 586.8 35.8166 586.807 35.7877C586.914 35.3314 586.989 34.8975 586.952 34.4849C586.924 34.0783 586.825 33.6993 586.733 33.3972C586.659 33.1509 586.597 32.946 586.553 32.8021C586.513 32.6674 586.495 32.5876 586.504 32.5841L586.503 32.585Z" fill="#FEF9EC"/>
<path d="M586.367 32.1637C586.396 32.2728 586.439 32.4058 586.504 32.5841C586.445 32.6088 586.287 31.9695 586.367 32.1637Z" fill="#FEF9EC"/>
<path d="M564.082 32.2556L564.096 32.1688C567.962 32.5339 564.048 32.4881 564.082 32.2556Z" fill="#FEF9EC"/>
<path d="M556.386 51.4142C556.426 51.3739 556.801 51.2027 557.35 50.9649C557.898 50.7235 558.622 50.4161 559.365 50.1076C560.848 49.4842 562.403 48.8477 562.782 48.7419C564.242 48.3422 562.695 49.6789 565.048 48.7787C566.558 48.1945 566.171 47.6608 566.147 47.5959C566.455 47.651 567.381 47.4226 568.778 46.9013C568.703 46.7047 571.469 45.6412 571.62 45.7211C571.818 45.8302 570.824 46.406 572.261 45.8809C572.285 45.9422 571.926 46.1438 571.349 46.4168C570.77 46.687 569.974 47.0323 569.128 47.3871C568.279 47.7326 567.384 48.099 566.609 48.4153C565.83 48.726 565.173 48.9921 564.805 49.1542C561.336 50.6572 563.077 49.6895 563.056 49.6338C562.965 49.3856 562.804 49.4412 561.006 50.0565C559.951 50.4326 556.102 51.7098 556.387 51.4134L556.386 51.4142Z" fill="#FEF9EC"/>
<path d="M576.32 43.8403L576.389 44.003C576.281 44.0693 576.207 44.1139 576.151 44.1442C575.493 44.5278 574.919 44.7408 574.821 44.7205C574.72 44.6959 575.098 44.4444 576.319 43.8389L576.32 43.8403Z" fill="#FEF9EC"/>
<path d="M581.38 24.6459C581.37 24.6516 581.364 24.6571 581.359 24.6617C581.369 24.656 581.38 24.6459 581.38 24.6459Z" fill="#FEF9EC"/>
<path d="M580.989 24.1466C580.977 24.1532 580.97 24.1573 580.989 24.1466Z" fill="#FEF9EC"/>
<path d="M581.011 24.1337C583.189 26.6983 580.739 24.3038 581.011 24.1337Z" fill="#FEF9EC"/>
<path d="M562.035 1.71559C561.948 1.61142 561.818 1.44206 561.561 1.14548L561.688 1.02118C562.124 1.41567 562.421 1.74051 562.685 2.03887C562.945 2.33604 563.15 2.59571 563.313 2.81701C563.638 3.25902 563.79 3.54522 563.794 3.6441C563.796 3.74239 563.653 3.65259 563.365 3.34323C563.073 3.03267 562.662 2.50906 562.036 1.71475L562.035 1.71559Z" fill="#FEF9EC"/>
<path d="M103.444 111.366C103.481 111.241 103.53 111.097 103.492 111.107C103.628 111.066 103.587 111.173 103.444 111.366Z" fill="#FEF9EC"/>
<path d="M-123.405 159.936C-123.309 160.024 -123.222 160.103 -123.163 160.157C-123.25 160.076 -123.328 160.007 -123.405 159.936Z" fill="#FEF9EC"/>
<path d="M477.474 21.2812C477.388 21.2688 477.28 21.2542 477.178 21.2399C477.36 21.2494 477.478 21.262 477.474 21.2812Z" fill="#FEF9EC"/>
<path d="M568.916 16.8565C570.067 18.2419 568.269 16.2173 568.916 16.8565Z" fill="#FEF9EC"/>
<path d="M-123.476 159.87C-123.453 159.891 -123.429 159.914 -123.405 159.936C-123.428 159.916 -123.452 159.894 -123.476 159.87Z" fill="#FEF9EC"/>
<path d="M209.808 27.3287C209.831 27.3288 209.848 27.3299 209.849 27.335C209.847 27.3307 209.829 27.3282 209.808 27.3287Z" fill="#FEF9EC"/>
<path d="M280.873 9.33331C281.08 9.30555 281.111 9.31611 281.038 9.34671C281.072 9.32133 281.032 9.31282 280.873 9.33331Z" fill="#FEF9EC"/>
<path d="M284.039 8.92025C283.906 8.93113 283.78 8.94016 283.67 8.94529C283.767 8.94162 283.899 8.93157 284.039 8.92025Z" fill="#FEF9EC"/>
<path d="M552.166 54.0799C552.19 54.1543 552.24 54.1951 552.054 54.3002C551.87 54.4068 551.448 54.575 550.523 54.893C550.579 55.0712 552.659 54.0751 554.892 52.9722C557.13 51.8756 559.531 50.6845 560.346 50.6123C560.917 50.5591 561.278 50.8918 558.848 51.8774C557.945 52.2466 557.278 52.4252 556.692 52.6018C556.106 52.7783 555.604 52.9557 555.016 53.2987C554.988 53.3149 554.926 53.3508 554.809 53.4256C554.652 53.5465 554.263 53.7521 553.766 53.9846C553.269 54.2172 552.661 54.4724 552.071 54.7061C550.888 55.1707 549.766 55.5239 549.724 55.3805C549.137 55.4734 550.89 54.4372 552.166 54.0799Z" fill="#FEF9EC"/>
<path d="M554.809 53.4256C554.88 53.3812 554.948 53.3399 555.016 53.2987C555.184 53.2113 554.164 53.9243 554.809 53.4256Z" fill="#FEF9EC"/>
<path d="M586.404 37.6702C586.47 37.5795 586.477 37.5908 586.271 37.9181C585.596 38.7664 585.074 39.1506 584.783 39.3394C584.488 39.5226 584.412 39.4892 584.532 39.3056C584.899 38.9548 585.411 38.5143 585.8 38.141C586.189 37.7699 586.467 37.4857 586.404 37.6725L586.404 37.6702Z" fill="#FEF9EC"/>
</svg>
