<svg width="36" height="36" viewBox="0 0 36 36" fill="none" xmlns="http://www.w3.org/2000/svg">
<path d="M18.0607 3.37727C22.7239 3.37727 23.2762 3.39502 25.1178 3.47904C26.8205 3.55676 27.7453 3.84127 28.3607 4.08037C29.1759 4.39719 29.7577 4.7757 30.3688 5.3868C30.9799 5.9979 31.3584 6.57975 31.6752 7.39487C31.9143 8.01034 32.1989 8.93507 32.2766 10.6378C32.3606 12.4794 32.3783 13.0317 32.3783 17.6949C32.3783 22.3581 32.3606 22.9105 32.2766 24.752C32.1989 26.4548 31.9143 27.3795 31.6752 27.995C31.3584 28.8101 30.9799 29.3919 30.3688 30.003C29.7577 30.6141 29.1759 30.9927 28.3607 31.3094C27.7453 31.5486 26.8205 31.8331 25.1178 31.9108C23.2765 31.9948 22.7242 32.0126 18.0607 32.0126C13.3972 32.0126 12.8449 31.9948 11.0036 31.9108C9.30084 31.8331 8.37612 31.5486 7.76072 31.3094C6.94552 30.9927 6.36368 30.6141 5.75258 30.003C5.14148 29.3919 4.76296 28.8101 4.44621 27.995C4.20704 27.3795 3.92253 26.4548 3.84482 24.7521C3.7608 22.9105 3.74305 22.3581 3.74305 17.6949C3.74305 13.0317 3.7608 12.4794 3.84482 10.6378C3.92253 8.93507 4.20704 8.01034 4.44621 7.39487C4.76296 6.57975 5.14148 5.9979 5.75258 5.3868C6.36368 4.7757 6.94552 4.39719 7.76072 4.08037C8.37612 3.84127 9.30084 3.55676 11.0035 3.47904C12.8452 3.39502 13.3975 3.37727 18.0607 3.37727ZM18.0607 0.230469C13.3176 0.230469 12.7229 0.250573 10.8602 0.335566C9.00122 0.42042 7.73174 0.715606 6.6208 1.14736C5.47236 1.59368 4.49842 2.19084 3.52752 3.16174C2.55662 4.13264 1.95945 5.10659 1.51314 6.25503C1.08138 7.36596 0.786195 8.63545 0.701341 10.4944C0.616348 12.3571 0.596313 12.9518 0.596313 17.6949C0.596313 22.438 0.616348 23.0327 0.701341 24.8954C0.786195 26.7544 1.08138 28.0239 1.51314 29.1348C1.95945 30.2832 2.55662 31.2572 3.52752 32.2281C4.49842 33.199 5.47236 33.7962 6.6208 34.2425C7.73174 34.6742 9.00122 34.9694 10.8602 35.0543C12.7229 35.1393 13.3176 35.1593 18.0607 35.1593C22.8038 35.1593 23.3985 35.1393 25.2612 35.0543C27.1202 34.9694 28.3897 34.6742 29.5006 34.2425C30.649 33.7962 31.623 33.199 32.5939 32.2281C33.5648 31.2572 34.1619 30.2833 34.6083 29.1348C35.04 28.0239 35.3352 26.7544 35.4201 24.8954C35.505 23.0327 35.5251 22.438 35.5251 17.6949C35.5251 12.9518 35.505 12.3571 35.4201 10.4944C35.3352 8.63545 35.04 7.36596 34.6083 6.25503C34.1619 5.10659 33.5648 4.13264 32.5939 3.16174C31.623 2.19084 30.649 1.59368 29.5006 1.14736C28.3897 0.715606 27.1202 0.42042 25.2612 0.335566C23.3985 0.250573 22.8038 0.230469 18.0607 0.230469ZM18.0607 8.72668C13.1077 8.72668 9.09245 12.7419 9.09245 17.6949C9.09245 22.6479 13.1077 26.6632 18.0607 26.6632C23.0137 26.6632 27.0289 22.6479 27.0289 17.6949C27.0289 12.7419 23.0137 8.72668 18.0607 8.72668ZM18.0607 23.5164C14.8456 23.5164 12.2392 20.91 12.2392 17.6949C12.2392 14.4798 14.8456 11.8734 18.0607 11.8734C21.2758 11.8734 23.8822 14.4798 23.8822 17.6949C23.8822 20.91 21.2758 23.5164 18.0607 23.5164ZM29.479 8.37236C29.479 9.52981 28.5407 10.4681 27.3833 10.4681C26.2258 10.4681 25.2875 9.52981 25.2875 8.37236C25.2875 7.2149 26.2258 6.27666 27.3833 6.27666C28.5407 6.27666 29.479 7.2149 29.479 8.37236Z" fill="#08388B"/>
</svg>
