<svg width="34" height="28" viewBox="0 0 34 28" fill="none" xmlns="http://www.w3.org/2000/svg">
<path d="M10.5776 27.5197C23.2702 27.5197 30.2125 16.9311 30.2125 7.74878C30.2125 7.44803 30.2125 7.14863 30.1923 6.85059C31.5428 5.86694 32.7087 4.64899 33.6352 3.25379C32.3757 3.81573 31.0397 4.18425 29.6716 4.34705C31.1122 3.47865 32.1904 2.1128 32.7055 0.503688C31.3509 1.31308 29.8689 1.8835 28.3235 2.19033C27.283 1.07631 25.907 0.338639 24.4082 0.0914622C22.9094 -0.155715 21.3715 0.101383 20.0325 0.822971C18.6935 1.54456 17.6279 2.69041 17.0008 4.0832C16.3737 5.476 16.2199 7.03809 16.5633 8.52775C13.8197 8.38925 11.1357 7.67133 8.68546 6.42059C6.23527 5.16985 4.07367 3.41425 2.34101 1.26776C1.45854 2.79746 1.18826 4.60833 1.5852 6.33165C1.98213 8.05497 3.01643 9.56117 4.47751 10.5436C3.37931 10.5108 2.30506 10.2125 1.34541 9.67385C1.34541 9.7023 1.34541 9.7321 1.34541 9.7619C1.34584 11.3662 1.89738 12.921 2.90646 14.1625C3.91554 15.404 5.32005 16.2558 6.88176 16.5735C5.8658 16.8525 4.79985 16.8933 3.76579 16.6927C4.20676 18.0734 5.06528 19.2808 6.22126 20.146C7.37724 21.0112 8.77288 21.491 10.213 21.5182C7.76937 23.452 4.75071 24.5018 1.64274 24.4986C1.09369 24.4976 0.545164 24.4641 0 24.3984C3.15583 26.4376 6.82782 27.5193 10.5776 27.5143" fill="#08388B"/>
</svg>
