<svg width="238" height="117" viewBox="0 0 238 117" fill="none" xmlns="http://www.w3.org/2000/svg">
<path d="M24.008 110.998L23.9624 111.07C25.2585 111.926 25.2852 110.833 26.2639 111.452C26.1146 111.635 27.8474 112.755 28.0202 112.665C28.1867 112.588 28.4616 112.596 28.4726 112.505C28.4773 112.46 28.4176 112.39 28.2448 112.276C28.0705 112.161 27.7846 112 27.3463 111.756C26.2466 111.153 26.4838 111.301 25.9764 110.731C26.0612 110.836 24.883 110.246 24.605 110.061C24.2531 110.003 23.9546 110.298 23.5933 110.312C24.9396 111.119 24.0944 110.864 24.008 110.998Z" fill="#F32F38"/>
<path d="M23.1534 110.326C22.6428 109.969 22.0506 109.271 21.9171 109.56C21.9233 109.447 21.8464 109.163 21.5322 109.054C21.0452 108.885 21.3656 109.29 20.4089 108.589C20.2456 108.469 19.4994 107.927 19.16 107.745C19.5151 107.886 19.9345 108.109 20.2503 108.147C20.4152 108.167 20.8724 108.464 21.2981 108.743C21.7254 109.02 22.1275 109.268 22.1621 109.216C22.6648 109.864 23.1659 109.966 23.5147 109.889C23.8666 109.811 24.0708 109.555 23.986 109.506C23.1282 108.974 22.6727 109.097 22.9774 108.64C22.6098 108.338 22.1762 108.172 22.005 108.169C21.9846 108.155 22.492 108.509 22.4873 108.494C22.5376 108.629 21.6421 108.396 21.3609 108.119C21.0562 107.827 21.5117 107.781 21.4599 107.626C21.4049 107.464 20.9258 107.224 21.0012 107.117C21.0405 107.062 20.5582 106.762 20.0304 106.403C19.5041 106.04 18.9213 105.632 18.7328 105.399C18.2913 104.972 18.029 104.809 17.7556 104.658C17.4838 104.504 17.2089 104.348 16.7691 103.905C16.5272 103.666 16.3952 103.28 16.0417 103.07C16.0056 103.048 15.3646 102.811 15.3646 102.795C15.3898 102.509 15.0803 102.223 14.6829 101.919C14.2838 101.617 13.7827 101.314 13.4025 101.029C12.8763 100.638 12.7443 100.545 12.6799 100.57C12.6171 100.592 12.6328 100.718 12.4286 100.73C12.4286 100.675 12.0217 99.9328 11.6509 99.3441C11.2802 98.7538 10.9535 98.3016 11.054 98.8527C11.0069 98.5999 9.99517 97.5967 9.61027 97.4617C8.97091 97.0661 8.70541 96.7317 8.03462 96.1477C7.01822 95.2261 7.04965 95.5385 6.52026 94.3956C6.33332 93.9764 6.21235 93.6891 6.404 93.6295C6.20764 93.4913 4.91945 92.6875 4.89746 92.4913C4.83933 91.9355 5.48657 92.7048 4.47803 91.7204C3.67057 90.9323 4.23451 91.3075 3.73496 91.1929C3.56686 91.1552 3.42077 91.0469 3.30608 90.9166C3.24797 90.8365 3.19455 90.7502 3.16941 90.6576C3.149 90.5618 3.13016 90.477 3.138 90.3923C3.15057 90.2258 3.1977 90.1128 3.25111 90.0908C3.34694 90.0484 3.37523 89.7643 3.45849 89.7486C3.38936 89.7627 3.33751 89.7172 3.2951 89.6324C3.26211 89.5461 3.2307 89.4236 3.22127 89.2886C3.18672 89.017 3.22125 88.7155 3.127 88.5664C3.27624 88.4659 3.40662 88.086 3.63756 87.7485C3.74596 87.5899 3.86849 87.4376 4.035 87.3309C4.07586 87.2963 4.10885 87.2822 4.16383 87.2477C4.22668 87.21 4.2895 87.1739 4.35077 87.1378C4.47331 87.0655 4.5927 86.9933 4.70424 86.9274L4.61313 86.7829C5.2415 86.4109 5.31376 86.4674 5.88874 86.1267C5.91544 86.1283 5.81804 86.0482 5.74734 86.0827C5.95471 85.8928 7.14235 85.3213 7.32458 85.2789C7.94353 85.1345 7.67803 84.9838 8.08962 84.7813C8.29228 84.6824 7.90111 85.213 8.26871 85.0497C9.29768 84.5944 8.46193 84.3982 8.4525 84.4374C8.49334 84.2883 9.11858 84.0732 9.19712 84.0905C9.39506 84.1344 9.27882 84.3291 9.28668 84.4767C9.29296 84.5992 11.1749 82.9821 11.3022 82.8801C11.6698 82.5865 12.6799 82.4703 13.6633 81.7152C14.0199 81.5032 15.1824 80.9333 15.3081 80.712C15.3646 80.6131 15.4055 80.2598 15.7385 80.062C16.0276 79.8909 16.1203 80.3524 16.5931 80.1562C16.678 80.1217 17.1037 79.8768 17.5058 79.6397C17.7069 79.5204 17.9017 79.4026 18.0478 79.3147C18.1201 79.2692 18.1798 79.2331 18.2206 79.2064C18.2615 79.1797 18.285 79.164 18.2835 79.1609C18.2285 79.0714 17.8185 79.0996 17.8295 78.9128C17.8232 79.0117 19.1553 78.6569 19.5968 78.3947C19.5905 78.3131 19.1412 78.2079 19.2732 78.0807C19.3313 78.0242 20.8425 77.7856 21.3672 77.3821C21.6107 77.1953 21.251 76.9912 21.2164 76.9394C21.8354 76.5736 21.3405 77.2612 22.3506 76.6725C23.2759 76.134 23.1125 75.9676 23.9687 75.5751C24.7573 75.214 25.3009 74.8011 26.0533 74.5672C26.4586 74.327 26.1931 74.2485 26.578 74.057C27.1232 73.7885 27.94 73.7822 28.614 73.1998C28.9973 72.8685 28.493 72.9046 28.9172 72.5797C29.4356 72.1809 29.379 72.7005 29.5455 72.6613C29.8205 72.5953 31.0269 71.9046 30.9484 71.779C30.9295 71.7491 30.1268 72.06 30.2305 71.7586C30.3106 71.5231 31.825 71.1259 31.9067 71.0961C32.0873 71.0301 32.2507 70.9642 32.3968 70.8998C32.4329 70.8825 32.4675 70.8668 32.502 70.8511L32.5508 70.8276L32.5759 70.8166C32.5932 70.8087 32.6089 70.8025 32.6246 70.7978L32.645 70.7899L32.6764 70.7774C32.9278 70.6737 33.1037 70.5591 33.2027 70.4634C33.3017 70.3692 33.3268 70.2844 33.2797 70.2326C33.2325 70.1823 33.1163 70.1557 32.9356 70.1619C33.2608 70.0866 33.6017 69.9955 33.9678 69.8511C34.15 69.7773 34.3401 69.6878 34.5364 69.5638C34.6354 69.4978 34.7344 69.435 34.8349 69.344C34.9355 69.2639 35.0375 69.154 35.1381 69.0379C35.1884 68.9735 35.2386 68.8981 35.2873 68.8243C35.336 68.749 35.38 68.6501 35.4224 68.5574C35.4633 68.4601 35.4947 68.3408 35.523 68.2278C35.5403 68.1006 35.5623 67.975 35.5528 67.8368C35.5497 67.5621 35.4601 67.2858 35.3376 67.055C35.2104 66.8289 35.0517 66.65 34.8899 66.5118C34.5647 66.2386 34.2348 66.1036 33.9222 66.0188C33.608 65.9372 33.3048 65.9152 33.0142 65.9419C32.9215 65.9513 32.7943 65.9749 32.6482 66.022C32.5759 66.044 32.4942 66.0785 32.4157 66.1099C32.3748 66.1303 32.3324 66.1507 32.29 66.1711C32.2476 66.1931 32.202 66.2167 32.1879 66.2308C32.0166 66.3611 31.8391 66.4867 31.7166 66.5244C30.9453 66.763 30.4473 66.7457 30.2713 67.1571C30.2336 67.2465 30.1394 67.3188 30.0231 67.3721C29.9069 67.4287 29.7686 67.4663 29.6382 67.4852C29.3759 67.5229 29.145 67.482 29.1999 67.3564C28.4773 67.6846 28.8323 67.8478 27.5536 68.1053C27.131 68.2011 25.8507 68.8196 25.4077 69.0692C24.4243 69.6501 24.773 69.6407 23.7142 69.9249C23.1864 70.0677 23.078 70.4602 23.1314 70.5529C23.0183 70.2954 21.8809 70.8527 20.7781 71.4823C20.2346 71.8088 19.6989 72.1526 19.3014 72.4164C19.1019 72.5482 18.9385 72.6613 18.8254 72.7414C18.7108 72.8214 18.6495 72.8732 18.6526 72.8779C18.1248 73.4054 17.1445 73.6001 16.4093 74.057C15.8736 74.6143 15.7055 74.4652 15.041 74.9644C14.4252 75.4181 13.8047 75.8373 13.1763 76.2298C12.5464 76.6207 11.9306 77.0163 11.343 77.4433C10.4837 78.0556 9.86791 78.6255 8.98505 79.2017C8.76198 79.3336 7.13605 80.3352 7.19889 80.2441C6.70247 80.9035 6.50454 81.0432 5.2572 82.037C4.71524 82.4891 3.36578 83.5049 3.40505 83.7718C3.26838 83.742 2.90079 84.0261 2.48449 84.3951C2.38081 84.4877 2.27398 84.585 2.16715 84.6839C2.06347 84.7875 1.95823 84.8912 1.85612 84.9932C1.57178 85.2742 1.30001 85.5411 1.0785 85.7609C0.944968 85.9038 0.830294 86.0262 0.756459 86.1251C0.525524 86.4062 0.384146 86.6417 0.288315 86.8881C0.195637 87.1315 0.15635 87.3685 0.161056 87.5977C0.176778 88.0546 0.315018 88.5005 0.798867 89.0405C0.977963 89.2383 1.19475 89.4424 1.44295 89.6371C1.56392 89.7376 1.69902 89.8302 1.83254 89.9275C1.90167 89.9731 1.9708 90.0202 2.04149 90.0673C2.07606 90.0908 2.11217 90.1144 2.14674 90.1364L2.23786 90.1929C2.66044 90.4535 3.1003 90.6796 3.50875 90.8491C4.32093 91.1898 5.04042 91.295 5.10483 90.9951C5.07028 91.1191 5.56669 91.3939 6.18406 91.6623C6.49197 91.7958 6.82972 91.9292 7.14391 92.0391C7.4581 92.149 7.75344 92.2165 7.96708 92.2573C8.88294 92.4175 8.98348 92.3076 9.92918 92.642C9.93233 92.642 9.97317 92.664 10.047 92.7001C10.1224 92.7346 10.2245 92.7833 10.3329 92.8335C10.5513 92.9324 10.7964 93.0329 10.8922 93.0408C11.2472 93.069 10.6738 92.7016 11.4797 92.8963C11.6494 92.9371 11.8992 93.0266 12.1521 93.1083C12.405 93.193 12.6642 93.2527 12.848 93.2637C13.1213 93.2762 13.1873 93.1601 13.5094 93.2825C13.5392 93.2951 14.3797 93.7472 14.5116 93.6813C14.8902 93.4945 15.0128 93.5117 15.107 93.5777C15.2013 93.6452 15.2673 93.7645 15.5296 93.7676C16.0574 93.7739 16.8602 93.8948 17.7258 94.0235C18.5929 94.1366 19.5229 94.2732 20.2958 94.3517C20.8268 94.3925 21.3814 94.4113 21.9328 94.4302C22.4842 94.449 23.0309 94.4757 23.5445 94.5039C24.0912 94.5338 23.8273 94.6044 24.6238 94.6468C24.9678 94.6656 25.0998 94.7033 25.2899 94.7316C25.4784 94.7598 25.725 94.7834 26.2921 94.7504C27.4059 94.6908 27.1986 94.8964 28.0406 94.8964C28.171 94.8949 28.4584 94.8886 28.8151 94.865C29.1717 94.8399 29.5989 94.8101 30.0105 94.7818C30.4221 94.7536 30.818 94.7269 31.1149 94.708C31.4118 94.6908 31.6082 94.6798 31.6192 94.6861C31.8642 94.8556 32.389 94.9529 33.6159 94.92C34.1264 94.92 36.1577 94.7771 36.1529 94.6782C37.5809 94.8446 38.2989 94.6044 39.7473 94.551C40.3348 94.5777 40.9899 94.551 41.6512 94.5228C42.311 94.4898 42.9771 94.4537 43.5803 94.405C44.1474 94.3626 46.5164 94.0518 46.9029 94.0769C47.4778 94.1256 47.4716 94.416 48.0025 94.1067C47.924 94.1743 48.6011 93.7237 48.7896 93.8634C49.2232 94.1852 52.5709 93.6844 54.0758 93.5667C54.9948 93.5023 55.254 93.5447 56.2201 93.3218C56.8988 93.1648 57.5335 93.0973 58.0141 93.2103C58.0032 93.1224 58.7839 92.8461 59.0227 92.9748C59.2065 93.0235 59.1845 93.0722 58.9536 93.1208C59.095 93.1522 59.9354 93.0156 60.8261 92.8618C61.7153 92.7032 62.6563 92.5274 63.0019 92.496C63.6146 92.441 64.0686 92.4583 64.7739 92.3672C66.8523 92.1019 69.2448 91.7346 71.3185 91.3656C73.2319 91.0249 74.9631 90.9888 76.9377 90.678C78.6799 90.4032 80.3812 90.1191 82.1313 89.8632C82.956 89.8412 84.1751 89.3373 84.2725 89.3498C84.5851 89.3922 83.985 89.5932 84.9605 89.4519C85.4177 89.2682 85.9816 89.3592 86.0461 89.4456C86.09 89.1065 87.9532 88.9306 88.5517 88.7988C88.6161 88.7846 88.4543 88.5554 88.426 88.5225C89.6514 88.3498 89.2806 88.6669 89.4016 88.7532C89.5116 88.8286 91.5569 88.5664 91.824 88.5146C92.1696 88.4455 92.0298 88.1802 91.9748 88.1174C92.6362 88.1629 92.9409 88.298 93.8835 88.1708C94.8276 88.0436 96.3373 87.6433 96.6468 87.8851C96.7017 87.7862 97.7904 87.5946 98.9388 87.4125C100.087 87.232 101.297 87.0828 101.6 87.1095C102.805 87.2147 104.069 86.4046 104.376 86.3512C104.231 86.5459 104.877 86.538 105.948 86.4219C106.484 86.3638 107.127 86.2774 107.829 86.1754C108.531 86.0718 109.296 85.9587 110.072 85.8221C111.626 85.5568 113.239 85.2711 114.549 85.0607C115.856 84.8394 116.859 84.6855 117.195 84.72C117.154 84.5207 118.543 84.4798 118.835 84.3888C119.548 84.1674 118.899 84.0607 119.999 84.1172C120.833 84.1549 122.567 83.4625 123.752 83.2851C124.272 83.2066 124.16 83.3793 124.702 83.2364C125.065 83.1407 125.422 83.0135 125.789 82.8926C126.155 82.767 126.532 82.6493 126.941 82.5834C127.508 82.4892 128.003 82.5881 128.666 82.3871C129.077 82.2631 128.447 82.1265 128.936 81.9789C129.418 81.8314 130.755 82.2113 131.203 81.6241C131.64 81.7654 132.731 81.3211 133.537 81.1343C133.906 81.0479 135.803 80.814 135.711 80.8454C136.129 80.7026 136.219 80.365 136.516 80.6633C136.623 80.3666 137.81 80.0243 139.123 79.7276C139.78 79.5785 140.467 79.4388 141.065 79.3179C141.664 79.1985 142.171 79.0965 142.468 79.0133C143.565 78.7213 144.835 78.3492 146.152 77.9504C146.48 77.85 146.813 77.7479 147.146 77.6459C147.479 77.5454 147.809 77.4261 148.141 77.3162C148.8 77.0901 149.457 76.8656 150.093 76.6474C150.734 76.4245 152.085 75.9236 152.684 75.8075C152.72 75.9127 152.641 76.043 153.119 75.9598C153.639 75.8703 153.804 75.539 153.989 75.4228C154.261 75.2517 154.809 75.291 155.069 75.236C155.474 75.1497 157.18 74.2768 157.788 74.0711C159.081 73.597 159.035 73.7053 159.904 73.5986C159.616 73.6347 160.963 73.0616 161.057 73.0287C161.624 72.823 161.392 73.0444 161.811 72.9109C162.673 72.6346 163.038 72.0977 163.911 71.9564C165.119 71.4666 164.662 71.6094 165.558 71.2169C166.324 70.881 167.108 70.5686 167.892 70.2546C168.286 70.1039 168.67 69.9264 169.055 69.7553C169.438 69.5826 169.82 69.4084 170.195 69.2278C170.941 68.8683 170.624 68.7741 171.392 68.4334C171.315 68.6124 171.716 68.49 172.233 68.2859C172.75 68.0802 173.386 67.8007 173.767 67.6296C174.605 67.2748 175.728 66.7473 175.304 66.6186C175.734 66.4113 175.785 66.8729 176.393 66.3784C176.848 66.1586 177.247 66.0236 177.723 65.7975C178.477 65.449 179.098 65.0471 179.726 64.6561C180.354 64.2668 180.973 63.8555 181.709 63.4457C182.477 63.0187 182.018 63.6404 182.604 63.2306C183.361 62.689 183.636 62.4284 184.601 61.8899C186.58 61.0421 185.813 60.9526 185.889 60.5523C186.31 60.3074 186.282 60.5209 186.401 60.6496C186.519 60.7752 186.792 60.8286 187.796 60.2163C188.002 60.0876 188.845 59.5695 189.626 59.064C190.408 58.56 191.142 58.0969 191.164 58.1283C191.174 58.1409 191.426 57.9933 191.794 57.7547C192.163 57.5176 192.652 57.1942 193.136 56.8645C194.099 56.1973 195.027 55.4845 194.964 55.3966C195.866 54.3981 195.921 55.3275 197.077 54.0166C197.82 53.1657 198.131 53.0527 198.452 53.0919C198.518 53.0998 198.901 52.7403 199.347 52.3635C199.79 51.9835 200.288 51.5769 200.602 51.5094C200.634 51.5487 201.129 51.1907 201.592 50.8469C202.049 50.4952 202.478 50.1593 202.395 50.266C202.604 49.9991 202.428 49.861 202.751 49.569C203.227 49.1372 203.171 49.4418 203.879 48.6961C204.486 48.1937 204.259 48.605 204.948 47.9362C205.031 47.8546 205.175 47.7368 205.361 47.5924C205.544 47.4433 205.769 47.2674 206.02 47.0743C206.272 46.8812 206.548 46.6693 206.833 46.4495C207.119 46.2313 207.412 46.0036 207.694 45.7713C208.258 45.3113 208.792 44.8607 209.162 44.5059C209.528 44.1448 209.729 43.8779 209.642 43.7963C209.97 43.4901 210.05 43.6283 210.491 43.2342C210.909 42.8669 211.36 42.4461 211.666 42.0787C212.084 41.5779 212.585 41.1305 213.072 40.6705C213.561 40.2137 214.057 39.7662 214.493 39.3015C215.633 38.033 214.313 38.4679 215.961 37.3878C216.582 36.9702 217.122 36.3155 217.65 35.6781C218.172 35.0344 218.662 34.3923 219.209 34.0014C219.584 33.7345 219.648 33.4393 219.871 33.1285C220.256 32.5853 220.922 32.0468 221.359 31.5005C221.684 31.097 221.343 31.2085 221.414 31.0154C221.482 30.8301 222.339 30.0388 222.561 29.7563C222.968 29.2178 223.379 28.7044 223.796 28.18C224.006 27.9194 224.209 27.6494 224.412 27.3715C224.614 27.0952 224.818 26.811 225.024 26.5143C225.533 25.7969 225.992 24.9758 226.542 24.2913C226.755 24.0542 226.971 23.8156 227.176 23.5675C227.216 23.4152 227.278 23.241 227.363 23.0447C227.582 22.7088 227.514 23.1829 228.033 22.1326C228.257 21.5125 228.359 21.3523 228.482 21.2644C228.601 21.1749 228.724 21.1514 228.948 20.7871C229.066 20.5972 229.182 20.3397 229.289 20.0603C229.398 19.7824 229.492 19.4778 229.559 19.1937C229.701 18.6253 229.762 18.1449 229.68 18.101C229.49 17.9974 229.838 17.4322 229.982 17.6017C230.042 17.6708 230.061 18.5327 230.112 18.4903C230.141 18.4668 230.332 18.0947 230.522 17.7116C230.714 17.3317 230.881 16.9298 230.896 16.867C230.961 16.5389 230.722 16.8042 230.642 16.7618C230.378 16.6252 231.424 15.958 231.492 15.8968C231.597 15.8026 231.743 15.6001 231.906 15.3394C232.064 15.0741 232.238 14.7491 232.409 14.4147C232.752 13.7459 233.089 13.0395 233.239 12.6862C233.51 12.0771 233.644 10.8557 233.889 10.964C233.679 11.435 233.652 11.6234 233.724 11.5747C233.76 11.5496 233.821 11.4664 233.897 11.3298C233.935 11.2607 233.975 11.1791 234.019 11.0849C234.04 11.0378 234.063 10.9876 234.087 10.9342C234.111 10.8777 234.134 10.8164 234.158 10.7536C234.404 10.077 234.546 9.24963 234.769 8.61694C235.072 7.74719 235.008 8.49762 235.083 8.45995C235.254 8.37831 235.617 6.95907 235.471 6.9104C235.652 6.97163 236.08 5.64817 236.176 5.23841C236.442 4.42989 236.483 4.29488 236.511 4.29644C236.539 4.29644 236.55 4.4346 236.732 4.1473C236.828 3.99816 236.825 3.33407 236.869 3.06875C236.955 2.56793 237.194 2.05455 237.273 1.55374C237.285 1.45641 237.298 1.35437 237.292 1.20679C237.29 1.16912 237.285 1.12515 237.281 1.08276C237.276 1.04037 237.263 0.980721 237.252 0.930484C237.246 0.905366 237.234 0.864543 237.224 0.833149C237.212 0.797041 237.204 0.770353 237.185 0.727961C237.142 0.638479 237.108 0.563116 237.017 0.448506C236.946 0.354309 236.809 0.228709 236.665 0.150217C236.588 0.107825 236.505 0.0732933 236.42 0.048175C236.344 0.0277634 236.264 0.0120583 236.184 0.00421396C235.897 -0.0177666 235.694 0.0528816 235.581 0.0968426C235.333 0.200461 235.224 0.288375 235.113 0.368437C234.913 0.523861 234.783 0.660451 234.66 0.793894C234.541 0.927346 234.437 1.05608 234.349 1.18167C233.994 1.67934 233.815 2.11422 233.911 2.29476C233.944 2.35285 234.572 2.67626 233.975 3.24615C233.565 3.88669 233.661 4.30901 233.796 4.3875C233.702 4.33098 232.97 4.31686 233.236 3.79878C233.642 3.0138 233.691 2.86622 233.361 2.88507C233.573 2.87251 233.334 3.29953 233.025 3.7972C232.716 4.29644 232.332 4.86947 232.216 5.13479C232.144 5.27452 231.441 6.75969 231.314 6.68904C231.206 6.63095 231.445 6.29813 231.605 6.08462C231.146 6.67805 230.973 6.3625 230.632 7.54467C230.301 8.71584 229.996 8.25585 229.759 9.11147C229.548 9.84934 227.607 12.8385 227.937 13.0065C228.568 11.9091 228.32 12.7647 228.073 13.4759C228.215 13.2326 228.353 13.0348 228.487 12.8841C228.625 12.9531 227.63 14.476 228.133 13.9061C228.287 13.9846 228.377 14.1887 228.424 14.4524C228.197 14.8779 228.075 14.7083 228.028 14.6518C227.264 16.0883 229.3 13.4665 229.396 13.3597C230.34 12.2482 229.16 14.724 229.239 14.7633C229.541 14.9156 229.877 13.4241 229.861 13.4634C229.954 13.242 230.398 12.8495 230.631 12.435C230.871 12.0064 231.053 11.5308 231.203 11.1461C231.748 9.75358 231.435 10.4318 231 10.8164C231.633 10.2544 231.035 11.2246 230.585 12.052C231.311 10.7175 230.218 11.5527 229.962 11.7254C230.072 11.5841 230.334 11.0975 230.57 10.6453C230.802 10.1932 231.013 9.78183 231.013 9.78026C231.239 9.42389 231.402 9.51023 231.446 9.5903C231.476 9.03925 232.364 8.10357 232.642 7.80998C233.006 7.41593 233.58 6.07834 233.226 6.37663C233.094 6.48652 232.192 7.55095 233.107 6.08462C233.44 5.55711 233.602 5.76906 233.633 5.92762C234.03 5.25882 233.74 5.41268 234.03 4.93227C234.417 4.29958 234.184 4.94012 234.527 4.51153C234.712 4.27133 235.095 3.07345 235.165 3.73441C235.182 3.89454 235.418 4.15358 235.809 3.56956C235.864 3.3325 235.667 3.28697 235.747 3.07502C235.956 2.53339 236.321 2.76889 236.304 2.77674C236.426 2.69353 236.498 2.54282 236.539 2.42193C236.583 2.2979 236.588 2.21312 236.599 2.20528C236.61 2.19743 236.615 2.199 236.622 2.19586C236.627 2.19429 236.626 2.199 236.627 2.20057C236.594 2.15974 236.55 2.10166 236.517 2.05613C236.481 2.00433 236.453 1.96665 236.426 1.93054C236.399 1.89285 236.374 1.85675 236.352 1.82221C236.307 1.74528 236.272 1.69662 236.244 1.64795C236.132 1.44229 236.106 1.34652 236.095 1.26488C236.095 1.25546 236.095 1.24604 236.095 1.23505C236.095 1.22564 236.095 1.22407 236.095 1.21778C236.095 1.21308 236.098 1.20365 236.098 1.20208C236.098 1.20208 236.098 1.20208 236.098 1.20051C236.095 1.20522 236.077 1.23976 235.971 1.28686C235.861 1.3371 235.667 1.39205 235.328 1.42188C235.237 1.43287 235.155 1.43287 235.045 1.43914C234.935 1.44542 234.821 1.44699 234.7 1.44542C234.692 1.44856 234.695 1.45485 234.692 1.47369C234.687 1.53805 234.689 1.62597 234.701 1.68719C234.712 1.75 234.734 1.79552 234.756 1.8379C234.802 1.91954 234.858 1.98234 234.844 2.16131C234.817 2.45333 234.912 2.54909 235.004 2.60247C235.097 2.65585 235.185 2.67155 235.124 2.82384C234.986 3.16138 234.445 3.22889 234.33 3.27598C234.139 3.35605 234.037 3.67475 233.957 4.02956C233.878 4.38279 233.821 4.77057 233.741 4.97624C233.906 4.55549 234.103 3.87883 234.271 3.92751C234.082 4.50054 233.733 5.45192 233.68 5.93704C233.473 6.51478 233.501 6.01868 233.273 6.49437C232.821 7.43163 232.705 7.91046 232.694 8.26684C232.683 8.62165 232.774 8.85399 232.709 9.27788C232.75 9.01256 232.536 9.07379 232.279 9.26219C232.15 9.35638 232.01 9.48197 231.886 9.60913C231.825 9.67194 231.765 9.73787 231.716 9.79596C231.663 9.86033 231.613 9.93255 231.573 9.99849C231.566 10.0111 231.87 9.92313 231.694 10.3392C231.503 10.7882 230.95 11.7804 230.703 12.1226C230.521 12.3675 230.548 12.132 230.62 11.7835C230.691 11.4334 230.813 10.9734 230.856 10.7772C230.691 11.1822 230.559 11.5182 230.449 11.8133C230.334 12.1069 230.24 12.3581 230.16 12.5983C229.999 13.0787 229.891 13.512 229.743 14.129C229.395 15.4415 229.247 15.1777 228.526 16.418C228.073 17.159 228.271 17.1323 228.007 17.5876C228.033 17.4385 227.682 17.1213 227.56 17.6221C227.522 17.776 228.017 17.911 227.756 18.2548C227.34 18.8027 227.297 18.2941 226.7 19.2722C226.209 20.0728 226.298 20.1356 226.386 20.3272C226.386 20.3272 226.345 20.3648 226.283 20.4198C226.22 20.4747 226.135 20.5485 226.05 20.6239C225.88 20.7762 225.711 20.9379 225.714 20.985C225.736 21.3508 226.583 20.6553 226.451 21.266C226.465 21.1969 225.258 21.4968 225.056 21.6695C224.856 21.8704 223.244 24.4216 223.175 24.274C223.218 24.3635 223.69 24.588 222.952 25.2238C222.547 25.5723 222.515 24.9538 221.914 25.7874C222.09 25.8047 222.11 25.9852 222.043 26.2631C221.973 26.5394 221.81 26.9084 221.629 27.3103C221.576 27.1737 221.164 27.1517 220.778 27.8551C220.231 28.8473 221.23 28.089 220.946 28.5819C220.845 28.7452 219.342 29.9054 219.031 30.21C218.378 30.827 218.255 31.5287 217.817 32.2839C217.523 32.7643 217.316 33.7879 216.758 34.2698C216.48 34.5116 216.076 34.5666 215.787 35.1003C215.734 35.1992 215.292 36.0093 215.44 35.9497C215.437 35.9513 215.377 35.9795 215.289 36.0203C215.201 36.0627 215.086 36.1192 214.973 36.1805C214.744 36.2998 214.515 36.4285 214.519 36.4866C214.5 36.1554 215.669 34.9104 215.52 34.6137C215.438 34.452 214.934 34.8758 214.793 34.7518C214.816 34.7722 214.493 35.2385 214.145 35.7126C213.795 36.1852 213.429 36.675 213.398 36.7661C213.493 36.4882 214.551 35.1051 213.684 35.8241C213.41 36.113 213.324 36.3783 213.269 36.5384C213.206 36.7221 213.236 37.1821 212.914 37.5071C212.565 37.865 212.417 37.6248 212.416 37.5275C211.838 38.1131 212.728 37.8179 211.982 38.5731C211.404 39.1587 211.641 38.6155 211.352 38.6641C211.244 38.683 211.044 38.8148 210.886 38.9608C210.727 39.1069 210.606 39.2638 210.666 39.3423C210.732 39.4303 210.931 39.3596 211.131 39.2827C211.329 39.2042 211.53 39.121 211.607 39.1948C210.978 39.6124 210.71 39.7662 210.433 40.0049C210.152 40.2388 209.861 40.5543 209.139 41.2357C209.426 40.9123 210.045 40.1791 210.078 39.9907C210.113 39.7804 209.767 40.1352 209.436 40.5198C209.107 40.9076 208.776 41.3079 208.873 41.22C208.22 41.8291 208.016 41.4837 207.989 42.1211C207.978 42.3566 207.661 42.5497 207.332 42.6753C207.004 42.8009 206.676 42.87 206.649 42.8763C206.407 42.9328 205.486 44.0286 205.048 44.3662C204.904 44.4808 203.568 45.3804 203.648 45.2987C203.512 45.4306 204.192 45.3584 203.326 45.9659C202.888 46.2737 202.568 46.2784 202.321 46.3349C202.052 46.6504 201.892 47.1513 201.609 47.4024C201.196 47.7745 201.191 47.4747 200.788 47.7965L201.061 48.1246C200.338 48.6992 200.463 48.2471 200.158 48.4888C199.853 48.7338 199.781 49.2157 199.828 49.2738C199.88 49.3382 200.208 48.9787 200.233 48.9567C200.428 48.8264 200.012 49.7558 199.214 49.7825C198.441 49.9458 198.5 49.8233 199.69 49.0572C199.608 49.109 198.785 49.39 198.752 49.3931C198.189 49.4418 199.14 49.1262 199.008 48.9614C198.719 48.6003 197.952 50.0619 198.127 49.9049C197.847 50.1593 197.641 50.0604 197.054 50.5879C196.645 50.9521 196.141 51.4215 195.929 51.7229C195.698 52.0463 195.205 52.4121 194.881 52.8611C194.829 52.7921 194.496 53.048 194.177 53.3164C193.855 53.5786 193.544 53.8502 193.552 53.8235C193.61 53.6069 194.27 52.7355 193.604 52.9883C193.755 52.9318 192.793 54.205 192.592 53.9224C192.481 53.7639 193.8 52.8768 193.165 53.0841C193.159 53.0856 193.109 53.1312 193.026 53.2065C192.942 53.2835 192.825 53.3934 192.682 53.5237C192.397 53.7843 192.023 54.1438 191.628 54.497C190.836 55.2019 189.998 55.9492 189.786 56.078C189.735 55.9995 190.061 55.5897 189.859 55.6635C189.471 55.8001 188.633 57.0215 188.563 57.1377C188.39 57.436 187.65 58.1205 187.576 58.2932C187.743 57.8928 187.421 57.8598 186.52 58.2005C186.608 58.3387 185.93 58.6103 185.658 58.7767C185.281 59.0138 185.879 58.805 185.7 58.9776C185.229 59.4282 183.498 59.3607 183.949 60.108C183.828 59.9102 182.612 59.9636 182.917 60.4518C182.951 60.5052 183.041 60.9103 183.537 60.6324C182.158 61.4032 182.739 60.6465 181.616 61.1018C180.796 61.4189 179.418 62.3499 179.61 61.8067C179.082 62.0908 179.106 63.6325 177.935 63.9246L177.773 63.6231C176.867 64.0768 176.201 64.7959 174.889 65.1522C174.506 65.2559 173.161 65.3642 173.101 65.4129C172.831 65.5777 172.545 65.7033 172.259 65.8744C172.256 65.876 172.226 65.8477 172.181 65.8053C172.134 65.763 172.071 65.708 172.003 65.6546C171.867 65.5494 171.708 65.4568 171.614 65.5086C171.097 65.7959 171.229 66.0691 170.901 66.2261C170.282 66.5228 169.702 66.8038 169.906 66.9498C169.311 67.2136 169.556 66.5369 168.571 67.099C168.535 67.1194 167.754 67.7442 167.7 67.6265C167.774 67.7882 167.832 67.873 167.682 68.008C167.532 68.1477 167.166 68.3188 166.389 68.6548C166.441 68.7725 164.425 69.4931 164.343 69.3C165.229 68.9876 165.493 68.7631 165.899 68.424C166.229 68.1461 166.752 67.9829 167.132 67.7081C166.585 67.9656 166.081 67.9734 166.045 67.9876C165.635 68.154 165.87 68.3141 165.595 68.3895C165.143 68.5119 165.55 68.2576 164.797 68.5622C164.402 68.8463 163.836 68.8934 163.754 68.8243C163.74 68.9421 163.225 69.3895 163.12 69.1399C163.215 69.3691 163.658 69.6329 163.223 70.0552C162.923 70.3456 162.298 70.432 162.144 70.3645C161.959 70.2891 162.047 70.1164 162.153 69.9406C162.26 69.7647 162.381 69.5811 162.274 69.501C162.153 69.4162 161.194 70.0458 161.239 70.1588C160.832 70.1918 160.356 70.2687 159.814 70.4147C159.107 70.892 161.285 70.4147 161.753 70.2404C161.392 70.3755 161.175 70.6172 161.126 70.7381C161.131 70.454 160.003 71.1212 159.725 70.9815C159.4 70.8182 159.343 70.6235 158.075 71.1541C159.549 70.5387 158.471 71.9846 158.099 72.0898C158.146 72.0757 158.157 71.7021 157.912 71.4885C157.664 71.2703 157.174 71.2358 156.182 71.8277C156.212 71.9062 156.66 71.7617 157.059 71.6518C157.453 71.5325 157.799 71.4493 157.631 71.6754C157.466 71.8967 157.488 72.1291 157.158 72.3975C156.445 72.6425 157.485 71.79 157.2 71.79C157.43 71.7947 154.63 72.5561 154.863 72.4776C153.548 72.925 154.101 73.2343 153.835 73.542C153.567 73.8545 152.733 73.6708 153.669 73.2218C153.009 73.2563 152.736 73.5075 152.264 73.7556C152.558 73.6001 152.191 73.239 151.894 73.2532C151.671 73.2626 151.254 73.7603 150.994 73.7791C150.865 73.7885 151.338 73.3474 151.184 73.3898C151.122 73.407 148.791 74.8247 148.717 74.6096C148.691 74.5311 149.65 74.1449 149.242 74.1873C148.684 74.2454 147.743 74.7886 148.035 74.3082C147.206 74.5672 147.572 74.6112 147.237 74.8247C146.483 75.3098 146.136 75.0853 145.547 75.2564C145.423 75.2925 144.458 75.7761 144.375 75.8232C144.292 75.8703 143.841 76.1152 143.863 76.1089C143.431 76.2314 144.76 75.2815 143.954 75.5107C142.622 75.8907 142.576 76.3585 143.144 76.4292C143.25 76.4433 144.6 76.3915 143.913 76.5862C143.469 76.8374 142.865 76.8185 142.836 76.7149C143.429 75.9503 141.161 77.0933 140.825 77.1247C140.046 77.2393 140.154 77.043 139.197 77.4308C138.871 77.5642 138.332 77.8044 138.363 77.9128C138.428 78.1388 136.957 78.7715 136.877 78.4795C136.839 78.3398 137.776 78.0917 137.403 78.0085C137.04 77.9269 136.228 78.2079 136.272 78.3696C134.789 79.1326 135.529 78.2534 135.653 78.255C135.424 78.255 135.174 78.2911 134.885 78.3539C135.229 78.2315 135.48 78.1718 135.446 78.0446C135.317 78.076 134.235 78.5941 133.862 78.613C133.922 78.6538 133.971 78.693 133.919 78.7072C133.867 78.7213 133.013 78.8359 132.954 78.927C132.851 79.0918 133.193 79.2849 131.889 79.3697C131.462 79.3979 131.032 79.3634 130.645 79.365C130.565 79.5078 131.669 79.7213 130.755 79.9851C130.647 80.0149 128.771 80.0275 128.812 79.9663C128.889 79.8469 129.714 79.8359 129.765 79.6915C129.839 79.4796 128.829 79.4592 128.201 79.5204C127.242 79.6146 126.619 79.9443 126.454 80.1923C126.529 80.511 127.029 80.1641 127.659 80.0714C128.245 79.9851 127.275 80.4498 126.902 80.5314C126.235 80.5189 126.265 80.8109 126.239 80.88C126.261 80.8266 125.657 80.8203 125.293 80.7732C124.927 80.7167 124.804 80.6413 125.78 80.4278C126.551 80.2598 125.524 80.2096 125.511 80.2049C125.577 80.2426 123.67 80.4639 123.604 80.4922C123.039 80.7292 122.849 81.0181 122.677 81.2332C122.369 81.1657 121.909 81.0919 121.394 81.1123C120.943 81.1296 120.71 81.4498 120.857 81.4561C120.511 81.4436 120.44 81.2693 120.472 81.1516C119.934 81.3902 119.14 81.7246 119.18 81.9224C119.21 82.0637 118.572 82.0637 118.596 82.1705C118.613 82.2521 119.628 82.194 119.381 82.2929C118.313 82.7199 118.173 82.2113 117.946 82.2678C117.415 82.3997 116.351 82.9947 116.409 82.9884C116.208 83.0088 116.013 82.4169 116.343 82.2709C117.003 81.7858 114.468 81.9742 114.507 82.1752C115.366 82.2207 116.414 82.3447 114.607 82.6775C113.225 82.9193 113.021 82.6367 113.087 82.3322C112.714 82.6336 113.123 82.855 111.902 82.9444C110.279 83.0638 109.315 83.4657 109.222 82.968C109.254 83.1344 108.165 83.2082 108.102 83.2223C107.991 83.249 108.327 83.4845 107.851 83.6321C107.362 83.7828 107.309 83.6038 106.91 83.6666C106.558 83.7216 107.423 84.0183 107.442 84.0324C107.587 84.1297 106.98 84.3401 106.594 84.4469C106.544 84.1643 105.425 84.8896 105.229 84.921C105.221 84.8456 104.794 84.1078 104.39 84.2758C104.244 84.3354 103.724 84.4689 103.235 84.5552C102.747 84.6416 102.29 84.6902 102.274 84.5945C104.5 84.3951 102.506 83.8723 101.539 84.5301C101.256 84.4846 100.695 84.5426 100.452 84.516C100.491 84.7467 98.6183 84.6117 99.1666 85.1031C99.2765 85.202 100.191 85.3716 100.65 85.2915C100.254 85.4501 99.5404 85.5521 99.52 85.4297C99.1509 85.5772 99.286 85.5505 98.7393 85.6306C99.0362 85.5867 98.7628 85.5066 98.799 85.4485C97.9585 85.571 98.191 85.6353 97.3851 85.6495C97.3113 85.6589 95.9807 85.9069 95.9571 85.7593C95.9995 85.6526 96.2273 85.5647 96.6373 85.494C97.5249 85.3716 98.4958 85.0387 97.2893 85.0592C96.4425 84.7923 95.9524 85.4045 95.4214 85.5207C95.2596 85.5568 94.8072 85.3512 94.8009 85.3151C94.5009 85.3103 93.3148 85.5191 92.9896 85.5631C93.995 85.425 93.7594 85.5914 93.2739 85.7892C93.032 85.8881 92.7273 85.9964 92.4838 86.078C92.3612 86.1173 92.256 86.1534 92.1806 86.177C92.1052 86.2005 92.0612 86.2146 92.0643 86.2131C91.6732 86.4281 91.5789 86.6071 91.4202 86.8112C90.7526 86.593 91.659 86.2978 91.436 86.0623C91.0542 85.6589 88.5093 86.582 89.6922 86.4988C88.5501 86.5804 88.1024 86.5271 88.7575 86.863C88.7386 86.8536 87.9422 86.8175 87.7929 86.7971C87.8495 87.1362 86.5016 86.6385 87.1159 86.6008C86.7593 86.6228 86.7985 86.7673 86.9258 86.907C86.9886 86.9761 87.075 87.0451 87.1441 87.0969C87.2148 87.1472 87.2651 87.1833 87.2667 87.1833C87.0829 87.4894 85.1993 87.0922 85.7413 87.0577C85.2606 87.0875 84.9056 87.6197 84.6683 87.626C84.717 87.626 83.5231 87.2869 83.5294 87.3167C83.4854 87.0608 81.6144 87.2131 81.4982 87.3654C81.3379 87.5758 82.5633 87.8144 81.3317 87.9934C81.1746 88.0169 79.5235 87.7987 79.159 87.9934C78.8574 88.1551 80.0922 88.0703 80.2854 88.0656C80.6326 88.0562 80.3467 88.2477 80.2901 88.3246C80.3278 88.2744 80.4786 88.1645 80.752 88.1253C80.9279 88.1001 80.7771 88.3137 80.5807 88.3717C80.0199 88.5382 80.2571 88.3655 79.8597 88.3906C79.236 88.4314 78.3233 88.221 77.929 88.4895C77.9007 88.4659 77.8269 88.3074 77.9997 88.2713C78.6155 88.1441 78.6846 88.1959 78.5495 87.9479C78.5197 87.8945 77.8128 87.7846 77.6902 87.9447C77.6384 88.0138 78.1002 88.0232 77.6588 88.1567C77.1262 88.3184 76.8058 88.2697 76.8403 88.4738C76.8623 88.6088 76.38 88.5664 76.5544 88.6559C76.7885 88.6951 76.9786 88.747 77.1247 88.8098C77.0603 88.7705 75.2018 88.984 75.1531 88.9369C74.9254 88.7156 76.9362 88.1143 76.4539 87.9793C75.7768 87.7893 74.2153 88.5586 73.7927 88.6433C72.6852 88.8694 72.4543 88.6794 73.766 88.4848C72.6161 88.7046 72.8187 88.3607 72.1338 88.4581C72.1259 88.5696 72.5061 88.7517 72.1118 88.882C71.6986 89.0186 71.4489 88.8521 71.2085 88.8506C70.8268 88.849 70.5581 89.2321 71.265 89.2117C72.0615 89.1897 71.9736 88.9322 72.514 88.8569C72.6443 88.838 72.0741 89.1614 71.3106 89.2415C70.434 89.3341 69.914 89.3137 69.702 89.1457C69.8182 89.2383 68.6809 89.758 68.7594 89.9605C67.6629 90.1081 67.5545 89.7878 67.0738 89.6952C66.3826 89.5633 66.3747 89.8569 66.0197 89.8663C65.6301 89.8773 66.6418 89.3263 66.7109 89.2588C66.4972 89.466 65.0237 89.6811 64.3969 89.7627C63.5046 89.7721 63.8989 89.8616 63.6978 89.9935C63.7308 89.9715 63.0773 89.8051 62.8747 89.8177C62.3531 89.8506 61.9274 90.0186 61.4859 90.1002C60.4523 90.2934 59.9354 90.0265 59.2285 90.5304C58.6535 90.9386 59.2458 91.1725 57.4251 91.3829C55.1566 91.4488 57.4502 90.9873 57.1329 90.8774C56.9396 90.8099 55.2257 91.1411 55.4488 91.2997C55.5949 91.4033 56.4731 91.6639 55.1833 91.7C54.9225 91.7126 52.3384 91.5069 53.826 91.3593C54.302 91.3107 54.412 91.4991 54.9367 91.284C55.2289 91.1694 51.7178 91.24 51.413 91.284C51.3376 91.2965 52.1168 91.5807 52.0619 91.7204C52.0084 91.8617 51.4759 91.7989 51.3753 91.7455C51.4476 91.8303 52.1058 92.0093 51.8843 92.014C51.7665 92.0172 50.9952 92.0376 50.2537 92.058C49.883 92.0721 49.5201 92.0847 49.2499 92.0941C48.9797 92.1066 48.8022 92.1192 48.8037 92.1318C48.7896 91.9983 49.7322 91.901 50.1799 91.8115C49.8421 91.8743 49.3316 91.8868 48.8666 91.9198C48.4 91.9481 47.979 91.9983 47.8203 92.1475C49.4242 92.0203 46.8102 92.7849 46.8039 92.7425C46.6233 92.6828 45.566 92.2291 46.1614 92.1396C45.4073 92.2479 44.6345 92.529 44.6517 92.7268C45.2408 92.9575 42.5105 92.7048 42.6362 92.6969C41.4894 92.6687 40.6898 92.7126 42.1131 92.2872C42.4179 92.1773 42.8153 92.0784 43.1578 91.9716C42.4414 92.0815 41.4831 92.1318 41.2192 92.35C40.9412 92.576 41.3009 93.0188 39.9389 93.0879C41.0386 93.0439 37.1175 92.2589 38.2203 92.7299C38.2517 93.2872 36.8583 92.4771 37.0327 92.4866C36.7138 92.4567 36.5677 92.7158 36.1828 92.6153C35.8969 92.5415 36.1168 92.3704 36.431 92.306C36.5959 92.2715 37.2762 92.1035 37.2715 92.0219C37.2605 91.8068 36.0571 92.1632 36.0634 92.3296C36.0634 92.3296 36.0461 92.372 36.021 92.43C35.9974 92.4897 35.9675 92.5682 35.9424 92.6436C35.8937 92.7958 35.867 92.9434 35.9581 92.9183C35.4444 93.0549 35.2182 92.5462 35.3596 92.474C35.545 92.284 35.6157 91.8476 34.2741 91.9873C31.7134 92.0046 34.6511 92.6247 34.6307 92.0328C34.6323 92.0768 34.3463 92.9513 34.205 92.934C33.2357 92.8257 33.4886 92.452 32.6073 92.3735C32.5476 92.3672 31.6208 92.6608 31.4574 92.6922C31.8344 92.5651 31.9616 92.4489 31.836 92.3672C31.7103 92.2872 31.3317 92.2338 30.6955 92.226C30.3797 92.2228 31.2406 92.62 31.3019 92.6687C31.5249 92.8492 31.1322 92.7236 30.8526 92.7378C30.3012 92.7644 30.5337 93.1412 29.4246 92.7943C29.2518 92.7425 28.3171 92.1914 28.5103 92.193C27.9762 92.1757 27.9306 92.3814 27.5944 92.4944C27.4703 92.3782 26.322 92.1694 26.2827 92.2275C26.0612 92.5462 27.5552 92.9999 28.6155 92.6608C28.6171 92.967 26.6456 93.0941 26.113 92.7519C26.0424 92.7064 26.1162 92.5651 26.0832 92.4614C26.0502 92.3578 25.9151 92.2903 25.425 92.3798C25.4202 92.5431 24.6725 92.3186 24.5091 92.2856C24.4149 92.2652 23.1989 92.8602 22.9806 92.496C22.8753 92.3217 22.602 92.1035 22.6098 91.9591C22.6051 91.9591 22.5407 91.9606 22.4276 91.9653C22.3129 91.9685 22.1574 91.9701 21.9956 91.9701C21.6736 91.9685 21.3327 91.9543 21.2651 91.9057C21.0515 91.7487 21.3766 91.6513 21.2211 91.5101C20.2079 91.4316 20.4514 91.6906 20.9541 91.9685C21.2054 92.1066 21.5212 92.2495 21.7757 92.3563C21.9029 92.4096 22.0144 92.4552 22.0946 92.485C22.1354 92.4991 22.1668 92.5117 22.1888 92.5195C22.2108 92.5274 22.2234 92.5305 22.2234 92.5289C21.4725 92.4709 21.4882 92.6388 20.8064 92.4191C20.8158 92.2872 20.5943 92.2385 20.112 92.1851C19.8371 92.1898 18.6715 92.4065 18.6856 92.2417C18.6998 92.0752 18.1656 91.9025 18.4437 91.7895C18.4453 91.7895 18.4735 91.7848 18.5285 91.7769C18.5835 91.7675 18.6621 91.755 18.7532 91.7408C18.9354 91.7094 19.1726 91.6686 19.3831 91.6247C19.8041 91.5383 20.1215 91.4441 19.7114 91.4221C18.3714 91.3468 17.9049 91.7361 17.0644 91.8193C16.3119 91.8994 15.9459 91.9826 15.4793 92.1553C15.2342 91.9842 15.3898 91.5462 14.8525 91.4567C14.8682 91.587 14.9154 91.8225 14.4315 91.8303C13.7482 91.8413 13.8424 91.5038 13.7937 91.4771C13.6617 91.4049 13.4512 91.3562 13.2014 91.3201C12.9517 91.284 12.6626 91.2651 12.3767 91.2353C11.8033 91.1851 11.2284 91.1584 10.9676 91.1066C10.3518 90.8224 10.6031 91.1976 10.5387 91.2275C10.3738 91.3013 10.1633 91.2306 9.99988 91.1223C9.83492 91.0171 9.70926 90.8946 9.70142 90.8899C9.03533 90.5524 8.85937 90.6042 8.56874 90.2698C8.48391 90.1725 7.66076 89.9951 7.7173 90.0327C7.96551 90.2494 8.48392 90.4441 8.44622 90.6136C8.42581 90.7094 8.00951 90.554 7.65604 90.3718C7.30572 90.1834 7.01509 89.9872 7.21773 90.0437C6.98525 89.8067 6.64277 89.4534 6.68991 89.2744C6.14165 88.7878 5.78034 89.2368 6.26576 89.5099C6.95697 89.8977 5.52741 89.5429 5.58081 89.3514C5.53682 89.4833 5.34519 89.4613 5.15982 89.4314C4.97601 89.4016 4.80949 89.3686 4.83776 89.5147C4.32091 89.3137 4.26123 89.2117 4.28166 89.1426C4.30209 89.0688 4.40104 89.0138 4.23453 88.8521C4.06329 88.6842 3.96431 88.6653 3.85435 88.6637C3.74596 88.6637 3.62657 88.6779 3.4365 88.568C3.34537 88.5162 3.26212 88.4487 3.24013 88.4125C3.21185 88.3702 3.1977 88.3246 3.19141 88.2807C3.18041 88.1896 3.20241 88.0986 3.21341 88.0106C3.2244 87.9212 3.22599 87.8427 3.17886 87.7579C3.15529 87.7155 3.11759 87.67 3.06418 87.6103C3.01233 87.5507 2.9432 87.4659 2.91336 87.3481C2.89136 87.3466 2.85366 87.3874 2.83323 87.4596C2.81439 87.5318 2.82696 87.6323 2.86624 87.7265C2.94165 87.918 3.11445 88.0986 3.14273 88.1802C2.95422 88.042 2.8191 88.0436 2.69342 88.0797C2.56775 88.1158 2.47035 88.1975 2.34938 88.1504C2.17973 88.086 2.01007 87.8835 1.97237 87.6794C1.95666 87.5773 1.96921 87.4784 2.0085 87.4078C2.0462 87.3371 2.09805 87.2948 2.13889 87.2885C2.03206 87.2759 2.0195 87.1252 2.12319 86.9839C2.2253 86.8442 2.39179 86.706 2.47978 86.5867C2.54732 86.4988 2.58032 86.4266 2.53163 86.3889C2.64474 86.4705 2.76412 86.4595 2.91807 86.3732C3.12387 86.2382 3.40036 85.9886 3.80881 85.651C4.27223 85.2601 4.45131 85.3103 4.92575 84.8927C4.80792 84.9288 4.05857 85.2067 4.42931 84.8315C5.09069 84.1721 5.22422 84.6965 5.25406 84.7295C5.14567 84.8833 4.56757 85.2632 4.45131 85.3826C4.63511 85.1973 4.68223 86.2366 4.18738 86.4956C4.0837 86.5537 3.71298 85.5961 3.2794 86.2366C3.2087 86.3214 3.15686 86.4014 3.1223 86.4752C3.10659 86.5098 3.08773 86.5506 3.08773 86.5773C3.08773 86.6024 3.09246 86.626 3.09873 86.6479C3.12544 86.739 3.20084 86.8081 3.28724 86.863C3.33122 86.8897 3.37678 86.9133 3.42234 86.9337C3.49146 86.9305 3.57787 86.9085 3.66898 86.8724C3.85122 86.8002 4.06486 86.6668 4.30521 86.4643C5.37817 85.5411 4.99643 85.8033 5.45357 85.169C5.88088 84.5913 6.55794 84.5081 6.94598 83.9884C7.50994 83.541 6.5014 83.7373 6.33959 83.8236C6.30973 83.7891 6.52024 83.1627 6.61293 83.1203C7.14548 82.8706 7.10464 83.5975 8.20272 82.329C7.32456 82.9617 7.70474 82.5551 8.35196 82.0433C9.00075 81.5346 9.89936 80.9035 10.0156 81.0526C9.30554 81.5487 9.41549 81.8329 9.8915 81.4671C10.3188 81.2159 11.2896 80.2661 11.1184 80.3148C11.1985 80.2928 11.7515 80.4843 12.1379 80.0086C12.3532 79.748 11.6682 79.8485 11.5426 79.8312C11.2378 79.7841 11.4781 79.6475 11.8363 79.522C12.1945 79.3964 12.6595 79.2708 12.7883 79.2189C12.8071 79.2111 13.4795 79.3634 13.5172 78.9803C13.5439 78.715 12.8669 79.0384 12.6092 79.0007C12.3233 78.9615 13.4512 78.2142 13.7953 78.109C13.7623 78.12 14.6687 77.9693 14.6404 77.9316C14.719 78.0446 14.1299 78.6412 14.5792 78.5972C14.8871 78.5674 15.3238 77.839 15.44 77.7118C15.2955 77.8735 15.8972 77.7008 16.1533 77.5265C16.5428 77.2565 15.7574 77.5265 16.1265 77.2581C16.2695 77.1906 16.4077 77.1278 16.5444 77.0681C16.7267 76.9519 16.4392 76.1842 15.8469 76.5642C16.1894 76.3444 16.6183 76.0492 16.9654 75.875C17.2718 75.7211 17.1037 75.9582 17.5106 75.6976C17.4556 75.6662 17.4603 75.5924 17.4163 75.5547C17.8247 75.3004 18.7406 75.068 18.6636 75.2548C18.6463 75.2988 18.1861 75.4621 17.7902 75.6567C17.3943 75.853 17.0691 76.0948 17.3063 76.2659C17.3409 76.291 17.5718 76.4684 17.886 76.2659C18.5065 75.8828 17.8483 76.0131 17.93 75.9299C17.996 75.864 19.2731 75.5186 19.4836 75.2517C19.4836 75.2517 19.4334 74.7572 19.4145 74.7273C19.3203 74.5782 19.5167 74.4338 19.7727 74.3364C20.0288 74.2391 20.3383 74.1826 20.4561 74.1904C20.8504 74.2155 21.7992 73.7336 21.9013 73.3662C21.8228 73.2343 22.5721 72.8654 22.9916 72.6597C22.5784 72.7665 21.0939 72.8968 22.1228 72.5985C22.9005 72.3724 23.51 72.3771 23.5351 72.6597C24.286 72.2452 23.1125 72.0113 23.3686 71.7554C23.444 71.6801 23.9498 71.903 23.9624 71.9124C24.2138 72.0726 24.9443 71.622 25.5569 71.2028C25.8083 71.0442 25.9984 70.9328 26.1555 70.8464C26.3141 70.7632 26.4398 70.7083 26.5608 70.6596C26.8043 70.5623 27.032 70.4932 27.4829 70.3017C28.0799 70.0505 27.9903 69.7223 28.4427 69.5512C29.0004 69.3503 29.2659 70.0803 29.6524 70.0065C30.1237 69.917 31.1809 69.0661 30.6201 69.1917C30.4158 69.2372 29.2628 69.771 29.3335 69.5842C29.3806 69.4602 29.9289 69.2953 30.4473 69.1258C30.7049 69.0379 30.9594 68.9594 31.1385 68.8824C31.3176 68.8039 31.4244 68.7254 31.3898 68.6501C31.338 68.5355 31.748 68.2749 32.257 67.9985C32.3858 67.931 32.5194 67.8604 32.6513 67.7897C32.711 67.7583 32.7723 67.7285 32.8304 67.6971C32.8477 67.683 32.8791 67.672 32.9105 67.6594C33.0519 67.6139 33.2467 67.617 33.3755 67.6327C33.4792 67.6437 33.6064 67.6736 33.7148 67.7254C33.7714 67.7505 33.8154 67.7803 33.8547 67.8086C33.8861 67.8384 33.9143 67.8651 33.9222 67.8839C33.9332 67.9044 33.9395 67.9185 33.9363 67.9436C33.9363 67.9499 33.9363 67.9562 33.9363 67.9624C33.9332 67.9703 33.93 67.9781 33.9269 67.986C33.9269 68.0001 33.9128 68.0205 33.9033 68.0394C33.8578 68.1179 33.7792 68.2011 33.6881 68.2497C33.6331 68.3157 33.5436 68.3408 33.4713 68.3377C33.3991 68.3345 33.3205 68.3 33.2655 68.2529C33.1477 68.1571 33.1116 68.008 33.1713 67.9295C33.1823 67.9169 33.1948 67.9028 33.2106 67.8918C33.2231 67.8792 33.231 67.8698 33.2451 67.8588C33.2577 67.8478 33.2718 67.8384 33.2875 67.829C33.2954 67.8227 33.3064 67.8164 33.3174 67.8102C33.3299 67.8039 33.3425 67.7992 33.3457 67.7992L33.3661 67.7992C33.3661 67.7992 33.3786 67.8054 33.3834 67.8086C33.4352 67.8384 33.4933 67.8635 33.5546 67.8824C33.6096 67.8996 33.6363 67.9138 33.6834 67.92C33.8342 67.9483 33.8295 67.9169 33.7667 67.9467C33.7478 67.9546 33.7368 67.9609 33.7195 67.9703C33.696 67.9813 33.6756 67.9938 33.6599 68.0064C33.6331 68.0284 33.5876 68.0582 33.5703 68.0755C33.5185 68.1241 33.4902 68.1508 33.4698 68.1728C33.4918 68.1524 33.5122 68.132 33.5452 68.1006C33.5672 68.0802 33.5954 68.0551 33.6331 68.0299C33.6567 68.0095 33.6881 67.9876 33.7274 67.9687C33.7698 67.9389 33.8389 67.9279 33.8028 67.9342C33.8075 67.9342 33.7588 67.9373 33.729 67.9295C33.7227 67.9263 33.6756 67.9232 33.652 67.9153C33.6222 67.9091 33.6002 67.8996 33.5703 67.8887C33.4855 67.8651 33.4226 67.8337 33.3472 67.7929C33.2545 67.7505 33.1728 67.7003 33.1037 67.6485L33.0912 67.639L33.0707 67.639C33.0629 67.639 33.0613 67.639 33.0472 67.639C33.0236 67.6422 33.0063 67.6375 32.9906 67.6233C32.9262 67.6736 32.7471 67.8274 32.502 67.9907C32.2586 68.1555 31.9742 68.3329 31.7355 68.4758C31.7182 68.4899 31.7009 68.5041 31.6836 68.5166C31.6475 68.5386 31.6129 68.5606 31.5768 68.581C31.5077 68.6187 31.448 68.6658 31.3898 68.7097C31.3207 68.76 31.3066 68.7772 31.2704 68.8055C31.239 68.8306 31.2092 68.8557 31.1793 68.8793C31.0615 68.9719 30.9547 69.0426 30.8557 69.0959C30.6609 69.2043 30.5038 69.2466 30.364 69.2639C30.0859 69.3 29.8786 69.2388 29.5911 69.4084C29.4749 69.5497 29.4906 69.837 29.3696 69.9296C28.8276 70.3456 28.5731 70.4775 28.6878 70.6627C28.6328 70.5733 27.4468 71.735 27.5002 71.713C27.0399 71.8952 26.4084 71.0725 25.8617 71.7068C25.3731 72.2751 24.6301 72.9329 23.5383 73.3788C23.2759 73.4855 22.4669 73.5514 22.3695 73.721C22.1904 74.0318 23.4204 73.4525 23.7896 73.3379C23.6687 73.3756 22.8219 74.137 22.6743 74.1245C22.404 74.1025 22.8345 73.8858 21.9626 74.3129C21.5227 74.5279 21.8008 74.1637 21.1866 74.5876C20.3744 75.1465 20.7184 75.2281 19.669 75.7839C19.7523 75.9189 20.5849 75.3946 20.6273 75.4636C20.6681 75.528 19.8717 76.1073 19.9235 76.1921C19.8403 76.0586 18.2945 76.1717 18.9024 75.7054C18.8773 75.7242 19.7931 75.269 19.6235 75.2862C19.1318 75.3318 18.0133 76.258 17.6881 76.5752C17.5734 76.6866 18.6086 76.6992 17.7572 77.1702C16.9921 77.5941 17.1697 76.6348 16.9654 76.7557C16.4659 77.0509 16.4203 77.4433 16.5271 77.4999C16.2177 77.0964 15.594 78.0289 15.7181 78.2283C15.6286 78.434 15.2625 78.85 15.3442 78.9787C15.1604 78.6836 15.2515 78.0352 13.6021 78.8861C13.6492 78.9599 13.5125 79.5847 13.0994 79.7669C12.526 80.0212 12.2652 79.5785 11.4059 80.0887C11.8787 80.2017 11.4074 80.5016 10.6581 80.7261C9.59143 81.0432 8.8201 82.2317 8.18545 82.4279C7.8744 82.5253 8.62687 81.8361 7.76128 82.3479C7.47694 82.5158 6.87528 82.9523 6.92869 83.0402C6.98838 83.136 6.25004 83.541 6.0521 83.6588C5.44885 84.0167 5.81175 83.6179 5.80704 83.5175C5.79918 83.351 5.29492 83.6525 5.20223 83.8236C5.06869 84.0732 5.0844 84.2443 5.25406 84.326C5.47243 84.4312 6.23435 84.0795 6.89257 83.6572C6.67263 83.9068 5.86045 84.5678 5.7976 84.6039C5.72692 84.4893 4.96972 84.7577 4.64925 84.7875C4.55343 84.6337 4.82521 84.3935 4.73094 84.2428C4.60527 84.0418 4.08841 84.3668 3.57786 84.7561C3.45062 84.8535 3.32339 84.9555 3.20242 85.0544C3.14273 85.1047 3.08303 85.1518 3.02648 85.1989L2.98406 85.2334C2.9762 85.2397 2.97306 85.2428 2.96049 85.2523L2.92279 85.2789C2.87252 85.3166 2.82225 85.3496 2.7814 85.392C2.69499 85.4705 2.6133 85.5427 2.53946 85.6102C2.50335 85.6447 2.46721 85.673 2.4358 85.706C2.40596 85.7405 2.37924 85.7719 2.35411 85.8017C2.252 85.9226 2.18287 86.009 2.14674 86.0482C1.73986 86.4847 1.0785 87.2728 0.924556 88.2336C0.894715 88.3262 0.860135 88.4518 0.839723 88.6009C0.824002 88.7517 0.800452 88.9228 0.802021 89.1112C0.79416 89.4848 0.842861 89.9197 0.94183 90.3373C1.05023 90.7612 1.20102 91.16 1.38012 91.4755C1.54506 91.7926 1.69432 91.9653 1.67075 91.9842C1.70374 92.0674 1.73986 92.1427 1.77443 92.2134C1.78227 92.2275 1.79013 92.2416 1.79642 92.2558L1.81054 92.2872C1.81997 92.3076 1.82942 92.3264 1.83883 92.3437C1.85926 92.3798 1.87969 92.4112 1.9001 92.4379C1.94252 92.4928 1.9865 92.5305 2.03048 92.5556C2.11847 92.6059 2.20644 92.6043 2.27713 92.576C2.47507 93.2621 3.1223 93.361 3.41921 93.4945C3.41921 93.518 3.43334 93.7017 3.4742 93.8964C3.51817 94.0879 3.58887 94.292 3.69255 94.3579C3.96432 94.5275 5.10169 95.493 5.19909 95.4993C5.40487 95.5118 4.77178 94.9482 5.33261 95.2277C5.86359 95.4899 5.15509 94.8007 4.84248 94.4333C4.544 94.0848 4.80478 94.2684 4.2738 93.686C3.89363 93.2653 4.07743 93.6593 3.76481 93.3029C3.56531 93.0721 4.02716 93.3202 4.50944 93.664C4.98858 94.011 5.47557 94.4678 5.30276 94.6939C5.32948 94.7222 5.73162 94.8195 6.07723 94.9624C6.42127 95.1068 6.7009 95.3062 6.4684 95.5621C6.3333 95.7081 6.89414 97.2372 5.7929 95.7254C5.7929 95.7254 6.03641 96.1979 6.26262 96.6532C6.48726 97.1085 6.69463 97.5449 6.6145 97.4601C7.56806 98.4241 7.36542 97.4303 8.65673 98.7365C8.82324 98.9061 7.9231 98.388 8.00478 98.4586C8.18858 98.6172 8.34567 98.7522 8.47293 98.8621C8.60174 98.9704 8.69915 99.0568 8.75727 99.1211C8.8751 99.2499 8.83896 99.2923 8.60018 99.2562C8.67243 99.2672 9.76894 99.9862 9.96061 100.27C10.1585 100.567 10.1303 100.792 10.2387 101.03C10.2387 100.865 10.4775 100.785 10.999 101.269C10.8199 101.274 10.933 101.93 11.3823 101.969C11.8206 102.007 11.2755 101.393 11.4907 101.258C11.0006 100.804 11.3289 101.341 10.8466 100.894C10.8372 100.418 11.7955 101.457 11.9243 101.31C11.9274 101.314 11.9793 101.394 12.0594 101.515C12.1379 101.638 12.2447 101.798 12.361 101.96C12.5904 102.286 12.8417 102.628 12.9344 102.705C12.6438 102.572 10.5638 101.58 12.394 103.115C13.3743 103.939 13.9335 103.966 13.5314 103.319C13.668 103.525 13.9681 103.953 14.3153 104.387C14.6624 104.817 15.0552 105.253 15.3914 105.437C16.0779 105.809 15.759 104.781 16.3386 104.969C16.1957 104.922 16.535 105.476 16.8633 105.647C17.2451 105.845 17.2812 105.594 17.3346 105.486C17.8577 105.913 18.0384 106.155 18.0682 106.31C18.0981 106.465 17.9803 106.531 17.9237 106.585C17.8373 106.665 18.4264 107.724 18.5992 107.654C18.7045 107.611 18.8474 107.635 19.0077 107.687C19.0077 107.707 19.0894 107.844 19.1663 107.982C19.2449 108.119 19.3187 108.26 19.2936 108.294L19.1946 108.434C19.149 108.502 20.9776 109.205 20.9792 109.117C21.1473 109.288 22.016 110.032 22.038 110.059C22.935 111.059 23.3859 110.411 23.1612 110.323L23.1534 110.326Z" fill="#F32F38"/>
<path d="M29.0067 113.596C28.9925 113.536 28.4804 113.2 27.9321 112.871C27.3807 112.547 26.8089 112.197 26.6471 112.164C26.0313 112.02 26.3769 112.93 25.4658 112.486C24.8782 112.2 25.2647 111.707 25.2992 111.651C25.1217 111.734 24.718 111.667 24.1713 111.415C24.2813 111.243 23.1973 110.737 23.0842 110.827C22.9413 110.941 23.268 111.277 22.6868 111.043C22.6145 111.155 23.1753 111.497 23.8179 111.861C24.1399 112.04 24.4808 112.227 24.7761 112.39C25.0762 112.547 25.3275 112.681 25.4642 112.767C26.7461 113.577 26.1743 112.993 26.2041 112.945C26.3329 112.728 26.4036 112.745 27.1121 113.042C27.5331 113.211 29.0569 113.81 29.0067 113.599L29.0067 113.596Z" fill="#F32F38"/>
<path d="M30.2493 115.348C30.1771 115.48 30.0954 115.513 30.7976 115.857C30.7128 116.015 30.0153 115.386 29.2471 114.734C28.4852 114.07 27.6604 113.372 27.2645 113.42C26.9881 113.453 26.6975 113.767 27.6102 114.292C28.2904 114.681 28.7161 114.582 29.079 115.026C29.0884 115.036 29.1073 115.059 29.1418 115.108C29.3005 115.444 30.8981 116.445 31.0332 116.186C31.2893 116.205 30.7693 115.499 30.2493 115.347L30.2493 115.348Z" fill="#F32F38"/>
</svg>
