<svg width="33" height="23" viewBox="0 0 33 23" fill="none" xmlns="http://www.w3.org/2000/svg">
<path d="M32.0093 3.71125C31.6361 2.32027 30.5373 1.21994 29.1481 0.846243C26.6393 0.161133 16.542 0.161133 16.542 0.161133C16.542 0.161133 6.44475 0.181894 3.93598 0.867004C2.54682 1.2407 1.44794 2.34103 1.07473 3.73201C0.411255 6.24408 0.411255 11.4966 0.411255 11.4966C0.411255 11.4966 0.411255 16.7491 1.09547 19.2819C1.46867 20.6729 2.56755 21.7732 3.95671 22.1469C6.46548 22.832 16.5628 22.832 16.5628 22.832C16.5628 22.832 26.6601 22.832 29.1688 22.1469C30.558 21.7732 31.6569 20.6729 32.0301 19.2819C32.7143 16.7699 32.7143 11.4966 32.7143 11.4966C32.7143 11.4966 32.6936 6.24408 32.0093 3.71125Z" fill="#FEF9EC"/>
<path d="M13.4113 15.8772L21.7877 11.0192L13.4113 6.16113V15.8772Z" fill="#1D58BA"/>
</svg>
